<svg version="1.1" id="Layer_1" xmlns="http://www.w3.org/2000/svg" xmlns:xlink="http://www.w3.org/1999/xlink" x="0px" y="0px"
	 width="100%" viewBox="0 0 1024 1024" enable-background="new 0 0 1024 1024" xml:space="preserve">
<path fill="#000000" opacity="1.000000" stroke="none" 
	d="
M133.378540,493.918518 
	C134.539490,498.683380 135.723343,503.029907 134.521652,507.588135 
	C134.170837,508.918854 134.475739,510.206116 135.097626,511.453644 
	C140.566391,522.424316 143.845535,534.076050 145.843323,546.125610 
	C145.937180,546.691711 146.205246,547.228943 146.571777,547.729736 
	C144.049713,523.921875 142.468552,499.988800 135.233292,476.950806 
	C134.267548,473.875732 132.659637,471.824097 129.730865,470.350525 
	C120.580841,465.746826 112.118721,460.177063 105.983208,451.699738 
	C104.428070,449.551086 103.046410,447.349915 105.140190,443.699829 
	C112.260086,453.005890 119.659828,461.127380 130.653412,466.011688 
	C126.669334,454.496765 119.814819,445.155121 114.806152,434.798004 
	C122.158745,441.543671 126.768982,450.216370 132.231033,459.559235 
	C133.410019,453.208984 131.327957,448.511169 129.299561,443.983948 
	C124.215378,432.636536 115.726570,423.920685 106.648743,415.719116 
	C104.969292,414.201782 102.727699,412.878387 104.500473,409.638855 
	C108.944656,411.196533 111.819817,414.762512 114.915260,417.825653 
	C125.723450,428.521179 134.860992,440.260040 136.884125,456.042908 
	C136.926346,456.372375 137.107101,456.705170 137.073288,457.020325 
	C135.494019,471.743408 142.493942,484.926453 144.593674,498.986542 
	C145.572830,505.543121 146.519058,512.104614 147.550674,519.144775 
	C148.321274,512.874817 146.848175,507.199066 146.750092,501.452545 
	C146.343307,477.622772 146.606049,453.828064 149.864502,430.162048 
	C150.069656,428.671967 150.355331,427.239227 149.716370,425.754456 
	C139.428528,401.848267 143.624390,378.888092 154.244858,356.331482 
	C162.253006,339.323151 172.777618,323.978577 184.939865,309.715149 
	C186.178375,308.262726 187.383713,305.809174 189.636185,306.762238 
	C192.325897,307.900299 190.766571,310.487457 190.589371,312.529694 
	C189.482498,325.286743 188.480408,338.053619 187.269180,350.800690 
	C185.948181,364.702972 184.633347,378.621979 180.101883,391.971344 
	C176.398788,402.880310 171.080063,413.078918 162.197296,420.395050 
	C154.811859,426.477905 152.964523,433.966034 152.288803,442.646545 
	C150.477005,465.920990 149.751007,489.199097 151.332291,512.509399 
	C151.948196,521.588867 152.777969,530.653870 153.581848,540.611450 
	C154.977341,523.493225 156.709930,507.306732 161.128418,491.538116 
	C161.475540,490.299316 161.651337,488.856171 161.380402,487.623657 
	C156.138596,463.776733 162.927734,443.143311 178.396774,425.027435 
	C191.592773,409.573517 205.140594,394.419922 218.534988,379.135406 
	C219.195984,378.381134 219.852524,377.599640 221.386948,377.792511 
	C223.699738,379.804535 222.469528,382.684631 222.129822,385.019409 
	C218.953003,406.853760 213.425522,427.997375 203.889297,448.045197 
	C196.599564,463.370239 185.763901,475.570709 172.078217,485.195709 
	C167.185699,488.636597 164.627304,492.578156 163.397003,498.312897 
	C160.001144,514.141907 158.056808,530.120667 157.258118,546.260498 
	C157.170792,548.025330 156.785812,549.880981 157.916214,551.933899 
	C159.728317,550.300415 159.943848,548.091736 160.520737,546.186279 
	C163.429947,536.577576 166.951462,527.221924 172.706924,518.939270 
	C175.313385,515.188354 174.708664,510.939636 175.511108,506.942902 
	C177.265640,498.204041 181.391342,491.131195 188.472382,485.721619 
	C193.143921,482.152771 198.300949,479.441284 203.609558,477.021667 
	C212.702286,472.877289 222.016541,469.214996 230.798019,464.396149 
	C231.932846,463.773346 233.086212,462.965027 234.618820,463.457153 
	C236.333466,464.996857 235.413498,466.831390 234.917328,468.494446 
	C232.525208,476.512299 229.040436,484.033264 224.808044,491.264679 
	C216.082443,506.173126 203.137024,514.509705 186.060394,516.160706 
	C180.141327,516.732910 176.449097,519.206421 173.849045,524.577209 
	C169.501419,533.557739 165.038040,542.430847 162.918488,553.004150 
	C168.939987,553.608704 174.479355,554.132874 180.010941,554.729187 
	C185.806717,555.353882 191.601395,556.122742 197.122711,558.053284 
	C203.429764,560.258545 204.728348,562.842529 203.984650,569.445618 
	C202.979980,578.365906 202.300278,587.322449 201.323471,596.246277 
	C200.870071,600.388367 202.860367,601.127136 206.343002,600.559937 
	C226.892258,597.213074 247.613327,595.329651 268.360779,593.954468 
	C293.124359,592.313232 317.926270,591.298828 342.762909,591.664917 
	C349.807312,591.768799 349.808563,591.677673 349.758026,584.577209 
	C349.754486,584.077271 349.752380,583.577271 349.750641,583.077332 
	C349.703125,569.516479 351.418579,567.062317 364.830170,565.052795 
	C381.247803,562.592896 397.658569,562.437622 414.105804,568.129944 
	C414.625275,564.461914 415.110596,560.927185 415.628510,557.397156 
	C417.445953,545.010559 424.386322,536.836731 436.077454,532.587280 
	C447.894592,528.291870 460.363770,526.995667 472.611023,524.693359 
	C484.020416,522.548645 495.455109,520.538635 506.611023,518.517761 
	C507.296814,517.061218 506.533203,516.493347 505.940125,515.990906 
	C494.364471,506.184235 492.379120,493.145081 493.966644,479.177734 
	C494.962799,470.413483 497.278595,461.877869 500.447083,453.593964 
	C501.842102,449.946747 504.100189,446.996033 506.427795,443.913452 
	C510.319641,438.759155 513.091248,432.994324 512.040955,426.100006 
	C511.176941,420.428284 511.673523,414.814026 513.364868,409.317902 
	C513.963196,407.373688 514.695557,405.116272 516.354858,404.238556 
	C522.406860,401.037262 526.600159,395.581757 532.147827,391.825500 
	C532.966614,391.271088 534.160645,391.026062 534.385193,390.009003 
	C535.593811,384.533569 540.061462,383.523071 544.500793,382.520325 
	C559.849060,379.053345 575.223877,379.495605 590.612976,382.275360 
	C592.718201,382.655670 595.030334,383.482330 596.937195,382.963989 
	C599.295593,382.322906 603.081665,381.768921 602.985168,378.737885 
	C602.859070,374.778900 605.718201,370.208374 599.883179,366.935455 
	C581.275146,356.498199 572.617615,339.807007 571.707520,318.844116 
	C571.490173,313.836639 571.070374,309.709869 564.949707,308.072296 
	C559.741943,306.679047 557.965149,301.651123 556.942932,296.821228 
	C555.379883,289.435059 555.389526,281.996613 556.370972,274.470154 
	C557.012390,269.550995 559.489868,267.085541 564.065857,265.988678 
	C569.265625,264.742310 571.899353,257.245819 568.264648,253.247147 
	C558.191895,242.165573 555.287048,229.671478 560.251465,215.320953 
	C557.516785,216.091141 556.277100,220.525116 553.325989,218.346039 
	C550.664917,216.381058 552.311951,212.977325 552.989807,210.367783 
	C556.596313,196.483124 565.577942,187.214706 578.467224,181.458130 
	C580.437988,180.577942 582.465576,179.825394 584.448792,178.971786 
	C584.717102,178.856308 584.879089,178.493896 585.337830,177.955124 
	C583.989746,175.460419 581.295166,173.694611 580.383484,170.788254 
	C579.928772,169.338654 579.350220,167.881500 580.525391,166.551605 
	C581.566833,165.373016 582.999268,165.579514 584.257446,165.994034 
	C602.120056,171.878922 619.829834,168.295975 637.574829,165.274765 
	C653.747253,162.521317 669.729187,162.776611 685.304199,168.727631 
	C690.135803,170.573715 694.497620,173.229340 698.605774,176.379974 
	C699.629822,174.813004 698.711304,173.764023 698.537842,172.690125 
	C698.252625,170.924667 697.142029,169.004776 699.307678,167.776703 
	C701.225952,166.688873 702.825317,167.961533 704.329041,169.003799 
	C710.853333,173.526169 714.239929,180.034149 715.865417,187.895020 
	C721.067932,188.032272 726.263916,187.991409 730.849792,190.722458 
	C732.414490,191.654297 733.961914,192.647644 735.379333,193.784760 
	C736.723022,194.862732 737.785889,196.303436 736.974365,198.130203 
	C736.255066,199.749466 734.627686,199.752045 733.093323,199.735123 
	C731.458557,199.717087 729.823364,199.731064 727.224792,199.731064 
	C730.614136,203.350739 733.961304,205.769363 736.244690,209.157974 
	C746.032410,223.683090 748.148499,239.592758 744.768005,256.464142 
	C743.752930,261.529877 742.286865,266.496155 740.106628,271.198395 
	C736.794495,278.341583 734.449951,284.922974 735.748901,293.701813 
	C738.244934,310.570404 724.616333,323.947510 707.667908,323.724457 
	C706.128418,323.704163 705.066833,323.898224 704.732056,326.141937 
	C709.522278,326.652100 714.226318,327.069489 718.906555,327.671997 
	C725.220520,328.484711 731.322876,330.190491 737.072876,332.910461 
	C746.518250,337.378418 749.979858,344.188599 748.263184,354.410004 
	C747.311584,360.076019 749.118164,362.533783 754.724854,362.862549 
	C780.979126,364.401947 807.236755,365.956207 833.385620,368.801422 
	C845.273987,370.094971 857.232483,371.316345 868.745178,374.861359 
	C883.031372,379.260437 888.846924,387.043549 889.293152,401.914368 
	C889.899963,422.134949 887.111938,442.109802 884.751282,462.094208 
	C882.606079,480.254852 879.899231,498.349884 877.357300,516.462219 
	C876.944641,519.402710 878.199890,520.560547 880.844360,521.409424 
	C900.270996,527.645569 908.569275,538.539001 910.343323,558.913025 
	C912.449524,583.102722 910.366882,607.151123 908.534546,631.222595 
	C908.496582,631.720703 908.344421,632.227661 908.400208,632.712708 
	C908.836060,636.503479 906.044067,641.007263 908.312256,643.800171 
	C910.534851,646.536926 915.237915,644.405945 918.824768,644.810913 
	C920.439453,644.993225 922.215210,644.746521 923.070557,647.075684 
	C920.598145,650.225159 917.049316,648.947388 914.010437,648.986023 
	C906.851807,649.077148 906.879333,649.025269 906.328308,655.885132 
	C904.836609,674.458679 902.659851,692.940857 899.527222,711.327820 
	C897.614380,722.555237 892.157288,730.859558 881.221802,734.079712 
	C873.120605,736.465271 870.250854,741.058044 870.369019,749.073364 
	C870.558044,761.897522 869.316833,774.682495 868.301086,787.462708 
	C867.997803,791.278687 867.729431,795.098389 867.361267,798.908264 
	C866.758789,805.143860 863.254822,808.194885 856.352295,808.593262 
	C849.600586,808.982971 844.441589,805.838989 843.690857,799.984802 
	C842.104858,787.616821 841.009949,775.186157 839.694092,762.783264 
	C839.278076,758.862000 838.799988,754.947266 838.277344,750.393860 
	C831.659851,752.605286 825.560730,754.654663 819.454407,756.682190 
	C788.486328,766.964722 757.459534,777.050598 725.392395,783.457703 
	C722.024780,784.130554 720.701111,785.960022 720.390747,789.211365 
	C718.731567,806.595581 716.944763,823.967651 715.253418,841.348938 
	C714.212158,852.049622 707.219788,856.677307 697.320679,853.177429 
	C692.759644,851.564758 690.122559,848.451477 689.810669,843.602112 
	C688.731567,826.826172 687.604004,810.052185 686.718201,793.265686 
	C686.279846,784.959839 686.501160,784.946350 678.738098,782.636536 
	C675.056580,781.541199 671.339844,780.423950 668.245056,778.096008 
	C665.596191,776.103516 662.552979,776.545898 659.641602,776.063538 
	C637.980042,772.475037 616.429443,768.293640 594.922424,763.883728 
	C588.631958,762.593811 587.903809,762.895691 587.081665,769.068481 
	C585.720886,779.286011 584.647461,789.541687 583.421570,799.777527 
	C583.284546,800.921753 583.334778,802.596069 582.637634,803.087402 
	C575.346863,808.226013 578.542297,816.161255 577.629028,822.778076 
	C576.808167,828.725830 574.635254,832.308716 568.948425,834.035706 
	C553.001404,838.878723 537.070923,843.649231 520.129089,843.401245 
	C516.966553,843.354980 513.995605,842.296326 510.911499,842.090393 
	C509.430328,850.942932 506.341156,853.614929 499.191559,852.450073 
	C493.664825,851.549683 491.350159,848.864624 490.722900,843.029297 
	C489.838654,834.803406 488.814209,826.592712 487.801300,817.962830 
	C479.225433,819.662048 471.321289,821.447815 463.337708,822.744934 
	C456.123413,823.916931 448.859070,824.942383 441.505585,823.317688 
	C434.184662,821.700195 432.090942,816.222595 436.940063,810.449402 
	C441.083099,805.517029 446.921295,802.732483 452.088959,799.103882 
	C454.488403,797.419189 456.877014,795.718933 459.243408,794.044922 
	C458.747406,793.286743 458.617645,792.836670 458.396179,792.785889 
	C446.704559,790.100220 446.379822,789.094299 445.527924,777.131165 
	C444.449493,761.987244 445.107178,746.816772 444.135193,731.682312 
	C443.934784,728.561340 442.917053,726.795532 439.889771,725.871399 
	C427.071625,721.958313 420.474304,713.067627 419.520294,699.845886 
	C419.206177,695.492371 417.513733,694.374756 412.813904,694.752869 
	C394.560028,696.221191 376.260742,697.401306 357.929779,697.216187 
	C353.540771,697.171936 352.185852,698.528687 352.262573,702.929260 
	C352.927734,741.076843 353.444641,779.227417 353.844391,817.378784 
	C353.886536,821.401611 355.282501,823.047729 359.235138,823.291931 
	C374.216553,824.217224 389.032837,826.260620 403.436859,830.662415 
	C410.299805,832.759766 417.058655,835.139099 422.888977,839.522827 
	C431.386719,845.911987 431.511444,854.175415 423.017639,860.548645 
	C413.707458,867.534363 402.682892,870.424866 391.567749,872.639038 
	C353.308838,880.260376 315.171234,879.868103 277.295990,870.018005 
	C270.660522,868.292358 264.325897,865.693909 258.583282,861.881470 
	C247.952835,854.823975 247.829849,845.450378 258.527649,838.484558 
	C270.535309,830.665833 284.331726,827.975586 298.175568,825.758057 
	C305.560822,824.575134 313.020386,823.777405 320.475067,823.142517 
	C323.871735,822.853210 325.213806,821.406006 325.199554,818.163269 
	C325.191498,816.337158 325.550690,814.510986 325.570007,812.682922 
	C325.953705,776.360718 326.217621,740.036804 326.782898,703.717468 
	C326.862152,698.626282 325.399689,697.258240 320.341370,697.247131 
	C282.832306,697.164795 245.505249,694.364624 208.419312,688.690063 
	C204.901855,688.151794 203.864365,689.634460 203.511963,692.495239 
	C201.438690,709.326172 199.415192,726.163269 197.327042,742.992310 
	C194.809494,763.281921 192.219162,783.562439 189.708817,803.852966 
	C188.178040,816.225952 186.631973,828.598755 185.292709,840.993225 
	C184.274857,850.413086 177.311508,855.231262 169.593338,851.561401 
	C166.424164,850.054565 164.968826,847.814636 165.284485,844.012390 
	C167.224503,820.643250 168.925552,797.254395 170.769592,773.877136 
	C172.992920,745.691772 175.284302,717.511658 177.524414,689.327637 
	C177.640213,687.870728 178.027054,686.340454 176.664902,684.457275 
	C167.556366,686.784851 158.028168,687.684631 148.386856,687.276062 
	C141.020782,686.963928 133.884064,685.673218 126.891235,683.240662 
	C121.595314,681.398376 118.697273,677.931641 117.676064,672.521545 
	C116.442879,665.988342 114.844818,659.520630 113.737434,652.968384 
	C113.087646,649.123657 111.782547,646.803162 107.354599,647.294861 
	C105.838966,647.463196 103.124008,648.395935 103.132919,645.469299 
	C103.140274,643.055115 105.577042,643.554382 107.060440,643.685669 
	C111.402626,644.069946 112.206978,641.869690 111.591858,638.212402 
	C108.032104,617.047424 106.354378,595.655029 103.909523,574.354919 
	C102.435539,561.513306 104.107849,558.987122 116.909927,556.210144 
	C123.740921,554.728455 130.679626,553.703857 137.695633,553.708801 
	C141.551819,553.711548 142.999634,552.590271 142.282013,548.331055 
	C140.419495,537.276550 137.605164,526.553345 133.235794,516.217957 
	C131.959000,513.197815 130.363525,511.590393 126.780968,511.084625 
	C119.653397,510.078339 112.960960,507.427917 106.908295,503.386169 
	C104.954895,502.081726 103.027367,500.753235 104.444275,497.208160 
	C111.681442,501.192017 118.253296,506.266083 127.691010,506.678101 
	C121.993149,495.934906 113.839211,488.303162 106.329498,480.022430 
	C116.475998,485.064026 123.505325,493.443512 130.619980,503.325470 
	C130.883255,495.198486 128.152069,489.389679 123.910561,484.135529 
	C119.428932,478.583984 113.375854,475.005920 107.532211,471.150940 
	C105.749504,469.974945 103.141281,469.078979 104.507965,464.679382 
	C116.984573,471.958496 128.883148,478.797363 133.378540,493.918518 
M667.366211,524.662292 
	C668.795654,526.623291 669.092957,528.871704 669.372070,531.233276 
	C670.464539,540.475647 671.424988,549.758118 677.200073,557.669006 
	C679.447754,560.747986 681.491211,562.263367 685.347107,559.879089 
	C687.977417,558.252502 691.161133,557.442322 694.177124,556.530884 
	C710.264526,551.669189 726.812927,548.724121 743.147339,544.887024 
	C745.297119,544.382019 747.634277,544.241821 747.660217,541.272217 
	C747.766357,529.123474 749.041870,516.987305 748.365784,503.829437 
	C744.493958,512.712830 740.392944,520.285706 735.138184,527.200378 
	C722.377686,543.991577 707.493103,547.451050 688.677795,538.130554 
	C680.878418,534.266968 674.163818,528.797913 666.610596,523.465149 
	C659.234802,516.717957 652.042480,509.769958 645.488281,502.225677 
	C638.623962,494.324554 630.536133,486.711792 628.909790,475.977844 
	C627.614380,467.428131 619.803406,463.985382 616.927429,456.997772 
	C616.712280,456.475189 615.124023,456.368286 614.162720,456.325806 
	C606.251160,455.976471 598.684021,454.179077 591.501587,450.877472 
	C588.139526,449.332001 586.653076,449.799255 586.662292,453.921509 
	C586.688049,465.407043 587.037720,476.940613 586.147522,488.368622 
	C584.567261,508.656372 584.343140,529.405151 569.224304,545.953613 
	C564.803101,550.792847 567.315674,560.464783 572.842346,563.262817 
	C572.514832,559.028015 571.932251,554.944336 571.970642,550.866516 
	C571.999695,547.781311 572.144653,544.408203 575.406067,542.516296 
	C583.729675,537.687866 589.128967,530.486267 592.080566,521.467285 
	C593.704895,516.503845 596.724731,515.553040 601.660950,516.189209 
	C623.416992,518.993164 645.221436,521.422241 667.366211,524.662292 
M905.511292,563.000183 
	C905.235596,560.854919 904.910828,558.714661 904.691895,556.563599 
	C902.954590,539.489563 893.550415,529.380859 876.708862,526.015930 
	C869.961548,524.667786 863.410950,525.577881 856.909058,526.903259 
	C823.017822,533.811340 789.126160,540.724731 755.301208,547.947937 
	C734.651306,552.357605 713.851257,556.206665 693.590149,562.259399 
	C680.843994,566.067139 672.477722,574.431824 669.048401,587.523254 
	C665.992981,599.187622 664.783630,611.116760 664.415161,623.076233 
	C663.871582,640.722168 664.299377,658.398804 663.710999,676.042358 
	C662.816284,702.871765 664.203186,729.663513 664.538269,756.469543 
	C664.655518,765.848633 667.439941,774.267395 678.253601,777.187805 
	C689.796814,780.305298 701.430237,781.570862 713.321350,780.136597 
	C730.404236,778.076172 746.889160,773.377136 763.356934,768.655518 
	C801.938843,757.593262 839.925842,744.782776 877.311646,730.147827 
	C887.749451,726.061890 893.105042,719.006653 894.783997,708.041443 
	C897.955688,687.327759 899.970154,666.511230 901.904419,645.660950 
	C904.427917,618.460693 906.229309,591.252869 905.511292,563.000183 
M437.073883,666.551025 
	C453.236176,664.462646 469.440338,662.666077 485.473297,659.671326 
	C500.429199,656.877747 515.335876,653.895325 529.444092,647.852478 
	C501.228516,648.351929 473.091583,648.357666 443.767242,645.069885 
	C445.976807,643.114746 446.961395,643.367432 447.947601,643.425781 
	C476.042603,645.087585 504.132202,646.617065 532.301086,645.029785 
	C537.671570,644.727234 541.969238,642.893188 545.712646,639.347351 
	C549.819153,635.457520 549.916504,631.669861 546.009827,627.643433 
	C541.755005,623.258240 536.916382,621.452087 530.422058,621.782349 
	C509.482758,622.847046 488.488678,619.974365 467.526276,622.232056 
	C466.396881,622.353699 464.831726,622.824524 463.900513,620.396179 
	C486.430328,617.537048 508.789917,619.482849 531.109863,619.389954 
	C524.072510,615.431763 516.600891,613.173889 509.002533,611.356995 
	C487.606506,606.241089 465.906036,603.020081 443.996552,601.139709 
	C436.040924,600.456970 436.082214,600.442505 432.403625,607.673767 
	C428.134125,616.066711 422.279694,622.230835 411.873871,621.397705 
	C409.090851,621.174927 408.037964,623.018616 406.948059,624.868042 
	C403.854095,630.117981 399.390137,632.920715 393.278351,633.739868 
	C387.939606,634.455444 382.654236,634.418823 377.340210,634.084290 
	C367.938934,633.492310 361.694885,628.499084 357.681763,620.133240 
	C354.920715,614.377502 352.628876,608.445129 351.841003,602.169800 
	C351.248383,597.449463 349.258270,596.238647 344.723419,596.298767 
	C306.252625,596.808838 267.816315,598.001648 229.568665,602.432678 
	C205.101013,605.267273 180.716980,608.757385 157.102020,616.172607 
	C148.818588,618.773560 140.615250,621.622559 133.840607,627.326111 
	C130.671677,629.994080 128.352097,633.596008 131.631607,637.254395 
	C137.040466,643.288086 143.419327,648.099976 152.220901,647.825928 
	C163.038742,647.489136 173.859116,646.784668 184.673172,646.873474 
	C204.323059,647.034851 223.955200,648.464966 243.623886,647.795349 
	C244.874100,647.752808 246.788651,647.049438 247.110138,649.824768 
	C217.278976,652.317688 187.409622,647.267761 157.612747,651.094055 
	C161.467712,652.625305 165.365768,653.894470 169.327393,654.917297 
	C213.792542,666.398499 259.314667,669.128967 304.905304,670.556030 
	C348.709137,671.927124 392.501709,670.929810 437.073883,666.551025 
M829.793579,486.583221 
	C830.768494,479.341248 831.716675,472.095581 832.723755,464.858093 
	C835.127136,447.587158 836.556702,430.137482 841.734070,413.360962 
	C845.022827,402.704224 849.521362,392.735229 859.186584,386.165314 
	C862.633484,383.822388 866.356506,382.425507 870.696838,383.715759 
	C870.303650,385.673584 869.015259,385.833313 867.984070,386.137970 
	C860.101807,388.466125 854.972412,393.904114 851.160034,400.862610 
	C847.450317,407.633728 844.816711,414.837067 843.328674,422.376587 
	C836.820496,455.352051 834.392029,488.945648 828.366028,521.998413 
	C827.670593,525.812866 828.974609,527.026855 833.041077,526.167664 
	C843.612244,523.934143 854.117676,520.928223 864.914307,520.373352 
	C871.011902,520.059937 872.159668,517.123962 872.765076,512.135376 
	C875.187073,492.179413 878.144348,472.285492 880.359558,452.308289 
	C882.191467,435.787079 884.161926,419.236420 883.647339,402.547913 
	C883.269531,390.298065 878.863403,383.953156 868.374451,380.643524 
	C859.455688,377.829346 850.227234,376.524109 840.984070,375.333527 
	C819.522156,372.569153 797.920166,371.344086 776.370667,369.570312 
	C769.883911,369.036377 763.316040,369.487732 756.707031,369.487732 
	C756.823364,369.990631 756.848083,370.504211 757.054321,370.929901 
	C761.939209,381.013000 762.683899,391.016907 756.482056,400.875549 
	C755.652100,402.194794 756.042480,403.429535 756.459534,404.699524 
	C762.877136,424.242188 761.266663,444.039520 758.771790,463.974518 
	C757.207703,476.472504 752.432373,488.391876 753.226562,501.355652 
	C753.947754,513.128113 753.301697,524.982666 753.330994,536.800903 
	C753.335266,538.545532 752.666504,540.466614 754.083313,541.994934 
	C754.474792,542.085266 754.815613,542.274597 755.105164,542.215027 
	C777.093262,537.691467 799.077148,533.147583 821.061890,528.607666 
	C823.289856,528.147522 824.416016,526.878723 824.720337,524.531982 
	C826.323364,512.170227 828.040222,499.823273 829.793579,486.583221 
M638.551392,484.945190 
	C648.996765,499.328369 661.327820,511.914124 675.209778,522.963074 
	C681.878540,528.270935 689.172974,532.605530 697.155762,535.748535 
	C706.999329,539.624268 715.755859,537.834412 723.621094,530.991089 
	C730.652405,524.873352 735.907776,517.383362 739.777100,508.991150 
	C752.838867,480.661041 757.117249,450.772064 754.483826,419.898346 
	C753.691406,410.608093 750.997681,401.567566 744.812256,394.055084 
	C741.952576,390.581879 738.722229,388.558777 733.945007,390.034515 
	C730.460815,391.110931 726.787231,391.563263 723.278687,392.573761 
	C703.617798,398.236237 684.677185,406.293793 664.517944,410.287598 
	C661.991760,410.788055 661.282166,412.180817 661.293457,414.469940 
	C661.316589,419.135437 661.538208,423.824768 661.153809,428.460815 
	C660.733032,433.536713 662.132507,436.951904 667.161072,438.995239 
	C669.684143,440.020477 671.766296,442.241821 673.900635,444.092102 
	C680.772949,450.049622 687.576904,456.086090 694.815796,462.451477 
	C699.406494,449.326233 699.811646,435.670746 705.467041,423.495941 
	C705.689514,437.716400 702.714355,451.397705 699.774048,465.268799 
	C708.279175,467.966553 716.090027,471.139648 720.010742,481.092590 
	C715.989563,479.760406 714.854980,476.830231 712.591614,475.299072 
	C710.394287,473.812561 708.285095,472.193176 704.907959,471.329651 
	C715.598328,484.827118 716.361633,486.248138 714.937683,491.390289 
	C707.381409,479.887451 697.617981,471.411957 687.716553,463.145996 
	C677.888672,454.941528 669.407227,444.850098 656.782654,439.399017 
	C654.581909,452.098114 649.075562,461.845673 638.803711,468.475372 
	C632.426453,472.591400 632.157837,473.238647 635.612305,480.037781 
	C636.365112,481.519440 637.300537,482.908264 638.551392,484.945190 
M718.108398,199.405167 
	C720.448181,195.262497 725.112000,196.613739 729.236755,194.825943 
	C725.394226,193.049088 721.952393,191.666931 718.345398,192.634048 
	C713.830017,193.844711 712.425781,191.810410 711.583252,187.890778 
	C710.458923,182.660187 708.088013,178.000900 703.767334,174.226303 
	C703.403259,178.644638 706.051758,182.720566 703.937500,187.579651 
	C699.569824,183.781235 696.006775,180.050217 691.543884,177.442245 
	C676.366089,168.572876 659.865173,168.132614 643.078369,169.866547 
	C624.100220,171.826828 605.257446,177.691467 585.713623,170.802063 
	C587.747681,175.810165 593.116943,176.162613 595.830078,180.694931 
	C578.562866,184.849579 563.958313,192.016296 557.530945,210.234497 
	C561.388245,210.063660 563.694824,206.495270 568.133362,207.683533 
	C561.418152,221.483459 559.523926,234.944641 570.085815,248.497208 
	C571.192566,243.765335 572.081726,239.963913 573.034119,235.891953 
	C570.005066,236.112717 567.158569,235.903809 568.368530,232.167206 
	C571.435669,222.696167 577.489014,215.704544 586.643127,211.567139 
	C586.938477,211.433655 587.478577,211.841568 588.509033,212.217804 
	C583.557251,218.275879 576.467712,222.336349 573.894897,230.207687 
	C592.957581,229.016632 609.305969,221.495438 625.130371,212.049652 
	C619.699158,220.507278 611.014038,224.643570 602.682556,230.082687 
	C607.658447,231.688156 611.802002,231.986694 615.964111,231.539230 
	C630.330078,229.994827 643.449707,225.160767 655.158875,216.583359 
	C656.722046,215.438309 658.117249,213.271317 661.283325,214.669159 
	C655.961182,222.843964 647.407715,226.669800 639.060669,232.396317 
	C657.948120,234.053223 672.237183,226.619781 685.204224,215.684387 
	C685.740906,216.792038 686.060669,217.136932 685.991516,217.362564 
	C685.657227,218.453064 685.215637,219.510513 684.816772,220.581406 
	C679.365784,235.214615 680.069153,249.014969 690.684082,261.273224 
	C693.858032,264.938507 697.456238,268.216858 696.198608,273.958618 
	C708.470520,273.923096 720.545105,270.663483 730.860535,279.198456 
	C734.908691,272.451080 737.639343,265.651672 739.141479,258.475525 
	C742.593140,241.985321 741.920959,226.080124 731.886597,211.565033 
	C728.339905,206.434647 723.068420,203.626587 718.108398,199.405167 
M466.519867,564.112549 
	C464.893280,544.166443 450.488373,541.852844 434.879791,542.107300 
	C434.818970,539.618530 436.080109,539.320190 437.142853,539.004272 
	C451.391022,534.767212 467.260895,545.320557 469.348267,560.168884 
	C470.397583,567.633179 469.938599,575.129395 470.463287,582.585144 
	C470.845459,588.016174 469.106567,594.631958 472.322723,598.561401 
	C475.276276,602.170044 482.025116,600.680115 486.953979,602.071838 
	C489.244598,602.718567 491.103760,602.416138 493.062012,601.109741 
	C509.852112,589.908325 528.607605,583.010559 547.533569,576.560486 
	C553.162415,574.642151 558.746033,573.434814 562.107727,567.467529 
	C563.547302,564.912231 564.487671,563.344055 563.317322,560.456177 
	C560.001465,552.274780 561.137085,544.826904 567.816711,538.577271 
	C569.557495,536.948547 571.245667,535.199219 571.749695,532.096069 
	C540.224243,538.201111 509.270966,544.419800 477.944794,548.642639 
	C478.302063,547.538513 478.793701,547.034363 479.367523,546.910278 
	C509.423523,540.413269 539.539856,534.225952 569.969604,529.703430 
	C571.858276,529.422729 573.775452,529.384033 574.442993,527.273132 
	C575.931274,522.566772 577.373230,517.834412 577.930786,512.396912 
	C568.677002,512.705322 560.124817,514.901367 551.421021,515.701721 
	C543.547791,516.425720 536.807556,521.055725 528.891602,521.877563 
	C524.844177,522.297668 520.961060,521.018066 517.000916,521.751465 
	C495.917603,525.656128 474.822388,529.497620 453.752625,533.473938 
	C445.919342,534.952148 437.960693,536.196228 431.128448,540.797913 
	C422.623260,546.526306 416.400116,564.677917 419.394897,574.608398 
	C419.983093,576.558838 421.348511,576.495850 422.857330,576.682800 
	C430.682861,577.652344 435.372864,581.171936 435.740326,588.731201 
	C436.044067,594.978455 438.827942,596.252014 443.899475,596.132324 
	C444.224731,596.124695 444.550507,596.276428 444.880493,596.310303 
	C452.233093,597.066711 459.586334,597.816833 466.607391,598.534241 
	C466.607391,586.916504 466.607391,575.962463 466.519867,564.112549 
M595.205811,357.302032 
	C599.010376,360.308289 603.041443,362.934326 607.538940,364.811096 
	C630.167908,374.254059 651.374512,369.393768 671.487854,357.701233 
	C686.733337,348.838531 696.110779,334.972321 702.426331,318.137848 
	C702.278870,318.137848 702.963501,317.991211 703.559326,318.159332 
	C717.489441,322.090515 730.062500,311.314636 731.230896,296.840057 
	C732.246643,284.257050 723.141663,275.186951 711.459106,279.863068 
	C706.093506,282.010742 702.980591,286.079803 701.221436,291.401001 
	C700.333862,294.085876 699.240662,296.403259 695.597168,295.469482 
	C692.516785,294.680023 689.819580,293.768524 689.706299,289.863556 
	C689.653381,288.042145 690.206604,284.772705 687.243896,285.697479 
	C684.124023,286.671326 678.887573,283.764099 678.045898,289.933228 
	C677.439636,294.376648 676.853088,298.818115 675.620178,303.172485 
	C673.838745,309.464081 669.913269,313.108490 663.472046,314.164886 
	C655.698975,315.439697 647.930664,315.761139 640.104736,314.603333 
	C626.005371,312.517456 619.258301,310.819397 619.669128,292.559875 
	C619.734009,289.675262 618.301208,288.312958 615.786133,287.592773 
	C609.450867,285.778748 607.635376,287.555267 607.974182,295.386780 
	C609.112488,294.364380 608.990479,292.422852 610.690796,291.921570 
	C612.451843,292.901001 611.882202,294.407959 611.638367,295.864380 
	C610.822937,300.735687 608.071472,304.304108 604.365662,307.419189 
	C599.288025,311.687378 599.617188,314.110199 605.320312,317.578796 
	C606.740295,318.442444 609.001343,318.644989 608.608582,321.794098 
	C604.240784,322.119293 599.734558,321.258606 597.896179,317.432617 
	C595.419067,312.276886 591.841125,311.760559 587.113647,312.134796 
	C584.992737,312.302704 582.793884,311.921539 580.672424,311.549866 
	C577.256836,310.951569 576.136108,312.396271 576.376404,315.651703 
	C577.552368,331.577057 581.714294,346.152649 595.205811,357.302032 
M475.442810,666.193359 
	C432.416168,672.931519 389.074738,675.680969 345.576813,675.892700 
	C310.760986,676.062256 275.991821,674.825439 241.294754,671.486633 
	C214.904938,668.947266 188.765549,665.235901 163.157776,658.256287 
	C151.932510,655.196716 140.999207,651.369751 131.205078,644.608093 
	C128.399216,654.043762 129.753601,658.392334 137.073486,663.025574 
	C140.434723,665.153198 144.022644,667.015320 147.698135,668.538452 
	C169.729309,677.668213 193.002640,681.572876 216.439484,684.959045 
	C250.118530,689.825012 283.999786,691.914795 317.964447,692.601318 
	C349.786591,693.244507 381.587585,692.232422 413.343781,689.855591 
	C442.751587,687.654358 471.964935,684.105408 500.748749,677.592041 
	C515.538757,674.245239 530.276733,670.546692 543.208679,662.065552 
	C549.868408,657.697937 551.400635,652.319824 548.226196,643.845886 
	C540.669006,649.321960 532.179443,652.556824 523.479675,655.365295 
	C508.069000,660.340393 492.194702,663.219727 475.442810,666.193359 
M307.336395,870.953674 
	C311.142944,871.320618 314.943817,871.765137 318.756927,872.042114 
	C344.962341,873.945435 370.975342,872.768921 396.598083,866.596924 
	C404.689056,864.647949 412.658173,862.087341 419.556976,857.158264 
	C426.469727,852.219177 426.387726,847.569092 419.339996,842.740784 
	C415.190460,839.897827 410.570496,837.977417 405.817230,836.391602 
	C392.000214,831.782104 377.699890,829.642639 363.263000,828.410645 
	C353.998810,827.620178 353.980438,827.833008 354.067474,837.254272 
	C354.076691,838.253479 354.093628,839.252747 354.102173,840.251953 
	C354.158356,846.811462 352.031799,849.739624 345.543365,850.973389 
	C340.953979,851.846008 336.285339,851.767334 331.724518,850.248840 
	C327.065765,848.697632 324.411926,845.915161 324.854584,840.673157 
	C325.077942,838.028137 324.720734,835.336487 324.902130,832.684875 
	C325.148804,829.079834 323.469574,827.910828 320.120361,828.235962 
	C315.816376,828.653870 311.484985,828.818604 307.193054,829.326355 
	C292.940125,831.012390 278.848267,833.516541 265.804810,839.834473 
	C261.269867,842.031067 255.414001,844.144470 255.586258,850.244141 
	C255.752914,856.144226 261.393982,858.439087 266.006134,860.591125 
	C278.803436,866.562256 292.477814,869.325256 307.336395,870.953674 
M657.968201,526.550049 
	C639.274292,524.832336 620.593445,522.965515 602.142273,519.411682 
	C597.923706,518.599182 595.987549,519.495056 594.849426,523.962158 
	C592.705566,532.376465 588.582397,539.914551 580.663452,544.265869 
	C576.792969,546.392578 575.557495,549.159302 575.923767,553.145752 
	C576.181763,555.954163 576.434448,558.765625 576.807251,561.560059 
	C577.147705,564.111938 578.692017,565.568909 581.137085,566.461182 
	C606.871826,575.852051 633.424683,581.707764 660.571106,585.057800 
	C662.139160,585.251343 663.764038,585.522583 664.406372,583.737244 
	C667.076599,576.315857 671.253113,569.825867 677.096802,564.096558 
	C668.279480,555.682861 666.405457,545.166321 666.095215,534.426941 
	C665.936890,528.948181 664.419739,526.332397 657.968201,526.550049 
M726.662720,348.973267 
	C724.074036,354.696106 718.532227,356.723145 713.442505,358.958160 
	C688.286133,370.004913 664.357544,382.942444 644.446838,402.304230 
	C642.325134,404.367462 640.816467,404.132172 639.474060,401.468811 
	C636.907776,396.376953 635.198425,391.028961 633.977356,385.463898 
	C633.277039,382.271698 635.235596,377.844391 632.251343,376.107513 
	C629.517822,374.516571 625.484314,375.151215 622.020691,374.837646 
	C621.727173,374.811066 621.411377,375.029480 620.820679,375.231720 
	C621.306335,384.281219 628.375916,390.414001 632.164124,398.399292 
	C629.043091,398.499756 628.101501,396.688538 627.032349,395.345856 
	C623.267822,390.618073 619.797729,385.442535 618.734497,379.559479 
	C617.626526,373.428955 613.799011,372.499390 608.102966,371.807343 
	C607.763367,385.985260 616.212891,394.578613 625.306458,402.872772 
	C626.039490,402.463715 626.477905,402.230652 626.905151,401.978577 
	C628.807251,400.856476 630.787781,400.737823 632.519531,402.111694 
	C634.933838,404.027008 632.274536,405.037079 631.643982,406.487305 
	C631.050171,407.852997 631.158691,409.435364 631.809631,410.867554 
	C635.942322,419.960327 642.552429,426.612335 651.812561,431.207031 
	C651.389771,423.361481 652.216431,415.929871 654.081177,408.647400 
	C654.822083,405.753815 656.748108,402.455597 659.867249,405.127594 
	C662.578003,407.449829 664.410095,406.711029 666.911865,405.904083 
	C686.395874,399.619537 705.558411,392.385132 725.184204,386.501312 
	C736.048706,383.244080 745.214478,383.909302 751.630188,394.533569 
	C751.769897,394.765045 752.204590,394.818420 752.506592,394.944214 
	C758.962097,387.594849 753.954529,371.967377 744.889465,364.101440 
	C743.372681,364.049652 743.086853,366.725464 740.898132,365.656433 
	C740.445435,362.359436 742.090881,359.324738 742.802551,356.164673 
	C744.959290,346.588318 742.518677,341.290710 733.627197,337.260834 
	C724.332336,333.048157 714.486023,331.830658 704.377869,332.085297 
	C702.468933,332.133423 701.520813,333.205322 700.355896,334.521088 
	C693.342285,342.442932 697.248901,350.593323 699.177063,359.536102 
	C706.555359,356.448303 713.372742,353.877777 719.577576,350.012878 
	C722.748718,348.037567 722.394958,346.075958 719.009521,344.154022 
	C716.655701,342.817688 713.606934,342.907074 711.280090,340.708801 
	C718.282288,338.747498 725.332214,342.328613 726.662720,348.973267 
M147.710281,614.008423 
	C162.142593,608.710693 177.147644,605.657837 192.193848,602.821960 
	C195.114975,602.271423 196.629242,601.132935 196.888962,598.096802 
	C197.441544,591.636902 198.266739,585.200073 198.803604,578.739136 
	C199.025024,576.074463 200.604584,573.325256 198.804352,570.518921 
	C168.513779,577.431946 138.417419,578.057678 107.699142,570.098572 
	C108.900696,581.383545 110.024643,592.414612 111.258957,603.433228 
	C113.793495,626.058838 116.566612,648.647705 121.435715,670.926453 
	C122.375389,675.226013 124.597832,678.009033 128.758347,679.555786 
	C142.008713,684.482056 155.510315,683.197632 169.107834,681.538147 
	C167.176025,680.456360 165.159164,679.851013 163.152222,679.214417 
	C152.672531,675.889954 142.170334,672.665894 132.973602,666.286011 
	C127.623108,662.574280 124.731064,657.739685 124.850563,651.171753 
	C124.892998,648.839600 125.176315,646.448242 124.783104,644.182190 
	C122.082115,628.616272 130.654221,620.640625 143.743988,615.612305 
	C144.832260,615.194275 145.909103,614.746521 147.710281,614.008423 
M582.986206,456.373047 
	C582.985229,455.249908 583.628479,454.079529 582.478088,452.672028 
	C577.491455,453.718842 572.236694,454.670013 566.929016,454.141205 
	C561.719604,453.622223 556.542847,452.775818 551.290405,452.064789 
	C554.981995,467.081909 553.244263,487.627838 547.789368,491.267944 
	C546.855957,485.479919 548.794800,479.988342 548.709839,474.402466 
	C548.622253,468.644897 548.526367,462.925171 546.983826,456.972992 
	C540.467407,461.986420 533.588745,463.998993 525.980713,462.151367 
	C518.624756,460.364990 512.899719,456.028870 508.477570,448.255219 
	C501.627960,464.880341 496.553741,480.417236 500.286041,496.998199 
	C503.540222,511.455139 516.208008,518.660522 530.771057,515.955994 
	C536.778809,514.840271 542.201172,512.423462 547.346802,509.276276 
	C559.862793,501.621155 569.794739,491.023804 579.891541,480.615234 
	C581.123047,479.345673 581.621277,477.887695 581.715698,476.126709 
	C582.054443,469.810608 582.505493,463.500519 582.986206,456.373047 
M659.122314,754.092651 
	C658.954773,744.268921 658.763062,734.445435 658.637268,724.621155 
	C658.606934,722.255310 658.436890,720.431213 655.269165,720.324768 
	C636.586121,719.697144 618.319336,715.989197 600.020691,712.578369 
	C596.476929,711.917908 594.424805,712.456848 593.890015,716.627258 
	C592.410217,728.165466 590.917297,739.721191 588.768372,751.145569 
	C587.831482,756.126038 589.547058,757.719360 593.901184,758.540649 
	C611.213135,761.806091 628.467896,765.385681 645.813843,768.453247 
	C650.851624,769.344238 655.938904,771.358704 661.738159,770.207214 
	C660.370667,764.846069 659.570312,759.958435 659.122314,754.092651 
M611.748596,280.645111 
	C614.191589,280.645111 616.634583,280.645111 619.335144,280.645111 
	C619.513489,278.806610 619.680115,277.177338 619.828064,275.546356 
	C620.257019,270.816986 622.785461,267.861786 627.402466,266.830780 
	C642.102600,263.548218 656.790710,263.692902 671.411621,267.292908 
	C674.002319,267.930756 677.230896,268.949249 677.667969,271.689789 
	C678.477844,276.768402 681.334229,276.630035 685.052246,275.813385 
	C687.372070,275.303802 690.413696,276.296997 691.489563,273.205688 
	C692.650085,269.870972 690.653259,267.715485 688.361633,265.469452 
	C682.507141,259.731354 678.860779,252.795822 677.468689,244.592148 
	C676.544800,239.148056 676.903809,233.770782 677.722229,227.806580 
	C676.311890,228.346771 675.504700,228.513397 674.854492,228.926895 
	C667.830750,233.393677 660.033569,235.681000 651.908325,236.888000 
	C646.445862,237.699463 640.551208,238.443634 635.735474,235.710037 
	C632.013855,233.597488 629.039368,234.182175 625.442078,234.777740 
	C615.584106,236.409790 605.609436,238.285049 596.751587,231.312500 
	C596.022644,230.738693 595.205933,230.966537 594.374268,231.156174 
	C589.999268,232.153625 585.615295,233.112030 581.233459,234.079483 
	C580.105835,234.328445 578.741333,234.331055 578.274658,235.606293 
	C576.495117,240.469650 574.849060,245.374222 575.509827,251.120560 
	C583.726196,245.767410 590.245117,243.411316 595.644348,244.224915 
	C598.533813,244.660324 603.089172,244.101364 602.822571,248.533005 
	C602.571411,252.707794 598.366821,252.217514 595.251709,252.232529 
	C588.557739,252.264816 582.452454,254.067032 576.971619,257.937469 
	C575.253601,259.150665 573.839355,260.553009 574.447510,262.888306 
	C575.111450,265.438263 577.305481,264.763885 579.002991,264.745728 
	C585.689270,264.674316 592.297363,265.213135 598.825806,266.716064 
	C603.810852,267.863678 607.367798,270.157013 607.633484,275.938568 
	C607.723572,277.899567 607.730286,280.560425 611.748596,280.645111 
M632.374939,668.312744 
	C629.093933,667.805420 625.803711,667.350952 622.533997,666.778809 
	C617.238098,665.852051 607.808594,669.772644 605.224854,674.518738 
	C599.747253,684.580627 597.797791,695.683472 595.796265,706.869690 
	C600.624023,709.256165 605.518127,709.312317 610.199646,710.130493 
	C624.420715,712.615906 638.616516,715.309875 653.095642,715.974731 
	C657.126526,716.159912 658.538330,715.010986 658.404724,710.584290 
	C657.978149,696.453979 658.053162,682.305908 658.111938,668.165344 
	C658.128296,664.226196 659.167969,660.290039 658.097168,655.648010 
	C648.726135,658.052307 639.547913,660.407043 630.369751,662.761841 
	C638.928894,666.219727 648.022278,665.575256 656.162170,669.358582 
	C648.381104,671.438843 640.852234,669.194153 632.374939,668.312744 
M348.896301,839.209534 
	C348.461578,796.173584 348.026855,753.137634 347.588837,709.773621 
	C341.888947,710.524536 336.972809,710.416138 331.838287,709.739197 
	C331.641693,711.249939 331.379059,712.369202 331.366913,713.491211 
	C330.912598,755.450134 330.555542,797.410400 329.946228,839.367004 
	C329.875946,844.207825 332.037445,846.068970 336.178680,846.555176 
	C338.476135,846.824951 340.849792,846.833130 343.151184,846.594055 
	C346.909637,846.203613 349.465393,844.482239 348.896301,839.209534 
M409.279083,607.756897 
	C411.915009,597.495605 413.126801,587.115784 412.538147,576.279419 
	C396.784546,582.284973 377.105804,582.304443 355.152985,576.433899 
	C354.676971,593.166138 355.282318,609.403687 365.539856,623.619690 
	C366.817932,625.390991 368.268829,627.156067 370.468658,627.646851 
	C389.456543,631.883423 402.428009,631.759644 407.955597,611.306763 
	C408.214661,610.348206 408.635681,609.433350 409.279083,607.756897 
M486.176208,762.632324 
	C489.276245,789.380676 492.362000,816.130615 495.493256,842.875305 
	C495.918396,846.506470 498.159027,847.948914 501.756714,847.759888 
	C505.538422,847.561279 505.907837,845.169922 505.684937,842.216492 
	C504.620575,828.116089 503.545288,814.016357 502.524689,799.912781 
	C500.879303,777.176270 499.317657,754.433716 497.633850,731.700073 
	C496.715027,719.294983 495.617676,706.903137 494.559814,694.004944 
	C491.833374,694.977966 489.680817,695.755554 487.521881,696.515015 
	C478.312164,699.755005 478.189270,699.768127 479.361389,709.322632 
	C481.506134,726.805481 483.811096,744.268677 486.176208,762.632324 
M575.123596,448.858582 
	C577.837769,448.593414 580.745483,448.872040 582.841125,446.319733 
	C581.767639,444.402740 579.672424,443.174774 579.655090,441.107910 
	C579.597107,434.194611 574.098633,429.211060 573.510986,422.256348 
	C573.098022,417.369110 576.169556,406.586212 580.796021,404.390472 
	C581.539368,404.037689 582.366516,403.862518 583.153076,403.599762 
	C585.889404,402.685638 588.720703,402.704529 591.557861,402.698425 
	C597.823364,402.684906 598.240051,402.324982 598.521790,395.959290 
	C598.590027,394.416321 599.237976,392.696014 598.448181,391.778870 
	C578.968445,399.064178 559.693787,396.575623 540.504211,393.077454 
	C539.068665,394.559814 539.351562,396.288239 539.304199,397.926086 
	C539.048157,406.777161 539.900146,415.547211 541.499817,424.234924 
	C542.558289,429.983337 544.375061,435.463928 547.306580,440.620667 
	C550.229858,445.762939 554.521606,448.347931 560.228699,448.658508 
	C564.880432,448.911591 569.549683,448.843170 575.123596,448.858582 
M175.328171,778.699463 
	C174.783249,785.662903 174.247849,792.627014 173.691422,799.589539 
	C172.565445,813.678894 171.424484,827.767090 170.298447,841.856445 
	C170.072449,844.684265 170.113297,847.434326 173.965912,847.593994 
	C177.495728,847.740295 179.422119,846.223755 179.879456,842.430359 
	C181.708466,827.259888 183.782761,812.119141 185.706818,796.959900 
	C187.923935,779.491638 190.055725,762.012512 192.267044,744.543518 
	C194.019196,730.701843 195.868958,716.872375 197.579620,703.025696 
	C197.787689,701.341614 198.392456,698.929504 195.818665,698.491638 
	C191.060440,697.682190 186.692795,695.726013 181.862549,693.911621 
	C179.670151,722.132385 177.508911,749.952026 175.328171,778.699463 
M538.576416,802.227539 
	C536.494019,800.293823 536.691772,797.742737 536.690918,795.247864 
	C536.686279,781.773438 536.697388,768.299072 536.667480,754.824646 
	C536.662476,752.553345 537.156860,749.914368 533.999695,749.144531 
	C527.752136,747.621155 521.487244,746.168762 514.920959,744.613953 
	C512.765564,754.503967 512.559021,763.978333 511.249176,773.301758 
	C510.610168,777.850159 511.702850,783.104248 508.705017,786.758301 
	C506.306183,789.682129 506.301941,792.253662 506.718109,795.415161 
	C507.042694,797.880676 507.122467,800.378235 507.320129,802.860840 
	C508.000458,811.406677 508.684753,819.952148 509.409393,829.021667 
	C513.486267,825.822754 516.880859,822.949829 520.488586,820.375732 
	C526.447998,816.123779 532.507446,812.007080 537.875610,807.003235 
	C539.029663,805.927368 541.434448,804.894104 538.576416,802.227539 
M149.674469,381.145721 
	C147.239700,393.273682 147.012360,405.282806 151.473129,417.096497 
	C155.740494,396.703308 161.497620,376.907471 170.698364,358.214386 
	C164.751724,378.779999 157.587708,399.009521 155.443634,421.467255 
	C167.896332,410.275787 175.162186,397.260040 178.696762,382.142731 
	C183.143265,363.125092 183.820786,343.625824 185.620117,324.279694 
	C185.909790,321.165283 187.212036,318.011108 186.301346,314.090942 
	C170.122253,334.534607 156.552505,355.532013 149.674469,381.145721 
M612.793335,402.799500 
	C609.771423,401.676971 607.172424,399.351166 603.675964,399.305603 
	C602.663696,402.656525 603.761475,404.187622 606.960083,404.751740 
	C610.221985,405.327057 613.433716,406.246918 616.616028,407.189209 
	C618.443298,407.730194 620.464233,408.370209 620.054443,411.279541 
	C617.884888,411.686707 616.016174,411.139465 614.084961,410.654541 
	C605.364136,408.464661 596.611389,406.405426 587.502869,407.232391 
	C585.257019,407.436279 582.758362,407.261475 581.713806,410.027252 
	C582.840942,412.718475 585.434631,412.802094 587.562134,413.381012 
	C592.531006,414.733032 597.603027,415.705719 602.573303,417.053375 
	C604.242981,417.506134 606.839355,417.275024 606.700134,420.268158 
	C605.040955,421.817993 603.226440,421.223755 601.476257,420.823883 
	C594.838013,419.307007 588.208313,417.752594 581.578003,416.201111 
	C580.016541,415.835724 578.520203,415.768829 577.709045,417.467743 
	C576.897644,419.167053 577.891235,420.397339 579.153381,421.296692 
	C580.358521,422.155396 581.692627,422.876404 583.053284,423.465698 
	C588.252747,425.717651 593.663452,427.342285 599.114807,428.870575 
	C600.674377,429.307831 602.946594,429.161591 603.279419,432.486694 
	C594.941040,433.426331 587.712708,428.653778 578.863770,427.342560 
	C583.935791,436.806274 594.393677,436.287292 601.577759,442.565247 
	C594.175842,444.198669 589.459595,439.466736 583.703735,438.911835 
	C584.179199,441.593475 586.050781,442.508911 587.708679,443.517181 
	C596.133057,448.640533 605.425537,450.519714 615.120911,451.883423 
	C623.758606,453.098389 628.071899,448.685547 631.934326,442.479034 
	C633.884827,439.344879 635.187927,435.955719 636.013855,432.343506 
	C636.403748,430.638092 636.418030,429.121368 635.714233,427.505524 
	C631.068604,416.839386 624.877808,407.604279 612.793335,402.799500 
M194.777283,412.273346 
	C187.498398,420.728210 179.940552,428.963989 173.885223,438.392883 
	C165.442764,451.538757 161.851486,467.363495 164.680267,478.679871 
	C171.893463,457.532166 186.211975,432.703186 194.250275,428.973511 
	C182.728592,446.319946 172.569794,463.153595 167.288925,483.580475 
	C183.474640,472.067780 195.214340,458.345703 202.599136,440.876404 
	C210.737335,421.624817 218.104324,394.987213 217.013199,387.644165 
	C209.738617,395.694061 202.489868,403.715424 194.777283,412.273346 
M660.514954,308.296967 
	C665.882202,307.628479 668.553772,304.313232 669.856750,299.288849 
	C671.588379,292.611664 671.892334,285.830353 671.995789,279.001434 
	C672.037537,276.243927 670.814087,274.603271 668.113831,274.047424 
	C655.645020,271.480713 643.150757,270.152863 630.491760,272.801605 
	C627.275635,273.474548 626.119995,275.181396 626.187134,278.362183 
	C626.320801,284.686920 626.066711,291.021179 626.254089,297.343140 
	C626.459534,304.274689 628.375671,306.240814 635.296143,307.678558 
	C643.383911,309.358765 651.530396,308.888367 660.514954,308.296967 
M454.778107,690.388794 
	C446.214203,691.375977 437.652985,692.387817 429.084625,693.334473 
	C426.689453,693.599060 424.156799,693.661377 424.322601,697.012146 
	C424.690521,704.448425 426.752563,714.138428 436.001038,718.584717 
	C443.275055,722.081848 451.011688,723.837830 458.734344,725.751770 
	C464.554260,727.194214 465.338959,726.611084 465.597626,720.570312 
	C465.909973,713.276245 465.470123,705.965637 466.409821,698.679443 
	C467.647003,689.086121 467.359711,688.898010 457.657745,690.180786 
	C457.000275,690.267700 456.333130,690.281616 454.778107,690.388794 
M693.125183,817.730957 
	C693.539978,825.868042 693.979431,834.003906 694.360474,842.142578 
	C694.588440,847.012512 697.544617,848.780823 701.930176,848.903076 
	C706.039490,849.017700 709.454773,848.528198 709.948730,843.102234 
	C710.971497,831.866272 712.652832,820.687805 713.561096,809.445068 
	C713.939087,804.765747 715.763428,800.047729 714.030701,794.572327 
	C706.649109,797.376953 699.326599,795.422302 691.406738,794.409363 
	C691.987061,802.307495 692.519226,809.549561 693.125183,817.730957 
M845.014465,765.862305 
	C846.096558,776.433350 847.296814,786.994202 848.208252,797.579956 
	C848.630432,802.483398 851.726685,803.700012 855.710632,803.596375 
	C859.732788,803.491760 862.582458,802.014465 862.781189,797.108459 
	C863.110291,788.985168 864.039001,780.888062 864.551880,772.769653 
	C865.039856,765.047241 865.318848,757.311646 865.719727,748.956055 
	C860.261353,751.491638 855.747253,754.259705 850.587463,755.637329 
	C843.696472,757.477295 843.740540,757.642395 845.014465,765.862305 
M537.651001,717.283325 
	C537.665100,715.290588 537.669128,713.297729 537.695007,711.305115 
	C537.854004,699.045593 537.837646,699.147339 525.461609,696.959473 
	C522.623413,696.457764 521.528442,697.114136 521.102173,699.889282 
	C519.266113,711.843140 517.316345,723.779602 515.396362,735.720459 
	C514.970398,738.369751 516.155457,739.762451 518.702271,740.290527 
	C522.597839,741.098206 526.472656,742.005310 530.362183,742.843018 
	C535.860596,744.027344 536.522217,743.526062 536.757996,738.122803 
	C537.047302,731.492615 537.345337,724.862793 537.651001,717.283325 
M181.894287,500.432373 
	C181.108826,502.789520 179.894745,505.053925 179.843750,508.539124 
	C188.891281,498.948608 198.115143,491.195099 209.990967,487.256989 
	C199.937439,494.369965 190.217010,501.705444 182.511276,512.297913 
	C206.380768,511.229218 223.097504,494.168701 229.478561,469.852081 
	C216.881485,476.350403 203.529175,480.200043 192.168839,488.180603 
	C187.914383,491.169312 184.306290,494.853210 181.894287,500.432373 
M595.616333,290.363098 
	C601.201721,289.196442 603.034973,285.627930 602.123901,280.261871 
	C601.985596,279.447052 601.973755,278.597748 602.008850,277.768829 
	C602.139954,274.663971 600.331665,273.251099 597.592651,272.688019 
	C591.029907,271.338745 584.387878,271.130096 577.715637,271.349457 
	C575.453369,271.423859 574.274231,272.391541 574.621826,274.777863 
	C575.944580,283.858582 576.490051,292.988251 576.312988,302.160553 
	C576.271362,304.315735 577.032898,305.674042 579.390625,305.804535 
	C583.211060,306.015930 587.046021,306.643646 590.843262,306.455811 
	C599.194702,306.042725 601.965759,302.339752 601.099304,293.077759 
	C595.400513,297.821014 589.322327,300.455536 582.385986,296.266602 
	C579.976990,294.811768 577.168152,293.154114 578.488464,288.668030 
	C583.917358,290.933105 589.227234,293.153015 595.616333,290.363098 
M463.672363,762.495239 
	C463.831390,756.999878 463.977142,751.504028 464.158142,746.009399 
	C464.207550,744.509766 464.560638,742.921875 462.748444,742.141724 
	C458.544952,740.332336 454.330505,738.548462 449.886536,736.654541 
	C449.631714,737.767273 449.350891,738.394775 449.366180,739.014954 
	C449.710327,753.001953 450.075439,766.988586 450.482300,780.973877 
	C450.510773,781.952393 450.764923,782.972900 451.134918,783.884216 
	C452.510498,787.272156 455.444153,787.776001 458.576477,787.561218 
	C461.684387,787.348145 462.412689,785.283936 462.807678,782.437439 
	C463.683014,776.129883 463.674042,769.819153 463.672363,762.495239 
M172.603531,559.387329 
	C175.590576,560.824829 178.615829,562.190063 181.544144,563.738647 
	C182.583740,564.288452 183.324585,565.360168 182.730362,566.680908 
	C182.339249,567.550232 181.268524,568.021484 180.704910,567.352539 
	C178.911072,565.223511 175.974304,565.966797 174.019455,564.437073 
	C169.821976,561.152344 166.222961,562.238098 162.388107,565.395386 
	C158.850006,568.308350 154.922272,569.526550 150.814636,565.761963 
	C147.601700,562.817383 143.902039,563.074890 140.142502,564.987793 
	C138.590454,565.777466 137.279449,567.406372 135.274155,566.823303 
	C130.798187,556.739990 125.204086,567.119385 120.147758,566.150818 
	C119.917084,562.717468 122.956001,561.696960 124.854362,558.960999 
	C118.897049,560.316650 113.316826,560.377930 108.541664,564.204407 
	C122.648743,574.332703 187.238556,574.019409 198.937546,564.034119 
	C198.431244,563.601074 198.019974,563.039429 197.470078,562.810059 
	C186.812988,558.364441 175.419174,558.395752 164.195099,557.451355 
	C162.255249,557.288086 161.158966,558.355713 161.666443,560.967468 
	C164.979675,558.749939 168.300217,558.165649 172.603531,559.387329 
M521.627075,437.836395 
	C526.280396,444.189606 529.848022,445.735046 536.417175,443.893982 
	C538.419617,443.332733 541.835815,443.557129 541.109741,440.146851 
	C540.486145,437.218048 537.591858,438.425018 535.579285,438.502136 
	C533.571899,438.579041 531.349121,439.752991 530.096252,437.050232 
	C531.148621,435.210449 532.924194,435.192413 534.484314,434.857605 
	C536.377258,434.451385 538.851257,434.785736 538.475708,431.710663 
	C538.116028,428.764618 536.095398,428.257141 533.427917,428.235077 
	C530.990540,428.214935 528.094971,429.436279 526.126099,426.679413 
	C527.554443,424.139526 529.947632,424.918884 531.977051,424.686707 
	C534.130066,424.440399 536.637207,424.677734 536.173340,421.294617 
	C535.811707,418.656860 535.741150,415.901672 531.674927,416.274780 
	C529.256958,416.496643 526.453796,417.266754 524.001770,414.641846 
	C526.444458,412.383911 529.158386,412.788452 531.689209,412.657440 
	C533.713440,412.552673 534.912537,411.622009 534.669739,409.566315 
	C534.418457,407.439240 535.849304,404.660980 532.835205,403.442047 
	C527.586975,401.319519 518.922424,405.806671 517.507507,411.368164 
	C515.188782,420.482391 516.059692,429.166077 521.627075,437.836395 
M650.048584,381.769623 
	C646.412720,382.847076 642.776794,383.924561 638.880859,385.079102 
	C639.308350,389.260712 639.973877,393.384552 642.726135,397.421326 
	C645.644409,394.753510 648.265320,392.260620 650.988342,389.884796 
	C662.975281,379.426300 676.411682,371.177826 690.540405,363.978577 
	C692.209595,363.128052 694.876465,362.734375 694.402954,360.108124 
	C693.687317,356.139069 692.475769,352.259369 691.535278,348.577606 
	C686.127075,353.758026 680.981445,358.704041 675.816772,363.630127 
	C668.323364,370.777252 660.435486,377.374512 650.048584,381.769623 
M527.063843,675.642456 
	C524.272888,680.665344 523.637512,686.208191 522.571594,692.131226 
	C528.046021,693.043152 532.752930,695.194885 538.400940,694.916931 
	C539.115356,686.474365 539.805481,678.319763 540.565002,669.344360 
	C535.731750,671.520935 531.684143,673.343750 527.063843,675.642456 
M571.653381,294.625122 
	C571.119995,288.333160 570.596436,282.040314 570.049561,275.749542 
	C569.728943,272.060913 567.631775,272.057678 564.768982,273.041077 
	C562.160706,273.937073 561.843506,276.094269 561.587219,278.203705 
	C560.817017,284.544128 561.451843,290.854126 562.815613,297.037720 
	C563.760010,301.319702 566.519958,303.852905 571.658936,303.699432 
	C571.658936,300.816498 571.658936,298.179260 571.653381,294.625122 
M575.422913,506.925018 
	C577.018005,506.638489 579.270874,506.781647 579.362976,504.689728 
	C579.595459,499.408142 581.319458,494.172424 580.318176,488.192780 
	C573.757629,495.568146 566.683105,501.445770 559.253113,508.309723 
	C565.291443,509.076874 569.898499,507.522766 575.422913,506.925018 
M417.720612,616.433594 
	C428.101074,611.184692 434.467834,596.685913 430.689758,586.899414 
	C428.363312,580.873108 421.961182,579.346680 418.099823,583.910828 
	C418.705048,585.109741 419.823944,584.627319 420.752563,584.689331 
	C425.733521,585.021851 427.783112,587.048950 428.224548,592.125305 
	C429.091309,602.092651 422.730194,611.588135 413.201263,614.598083 
	C412.521698,614.812744 412.121429,615.354919 412.390259,616.261719 
	C413.765808,617.664246 415.421814,616.746826 417.720612,616.433594 
M652.746277,595.507324 
	C653.033997,593.585815 654.239075,591.795532 653.629883,589.760681 
	C644.379089,586.062378 642.767029,587.227661 642.073730,598.562988 
	C645.741577,598.180603 650.196045,603.276733 652.746277,595.507324 
M623.394104,593.620300 
	C627.568970,592.881775 627.169067,588.972290 627.139465,586.578064 
	C627.095764,583.041565 623.040100,584.384521 620.832397,583.400818 
	C616.624084,581.525635 615.263000,584.021423 614.087219,587.646545 
	C612.602722,592.223511 616.278870,591.480408 618.359863,592.356079 
	C619.711792,592.924866 621.205688,593.156372 623.394104,593.620300 
M628.589172,594.085327 
	C631.279602,596.717590 635.233948,598.029297 638.001099,596.612549 
	C640.625671,595.268799 640.908569,591.052429 641.035095,587.699097 
	C637.791382,585.804016 634.375183,586.425781 631.178955,585.744141 
	C629.527161,588.169067 629.168640,590.824280 628.589172,594.085327 
M609.921875,589.278687 
	C611.786316,587.253296 612.407898,584.746582 612.838257,582.149963 
	C610.780640,580.295105 608.094910,580.560547 605.867615,579.588074 
	C601.916260,577.862915 601.114868,580.793579 600.023682,583.450012 
	C598.514465,587.123901 601.490234,587.123108 603.547180,587.812256 
	C605.419495,588.439514 607.341553,588.918274 609.921875,589.278687 
M644.750610,450.670837 
	C642.287903,448.572845 639.825195,446.474854 637.397949,444.407043 
	C632.485046,449.461853 634.275818,453.329071 643.549133,458.089172 
	C644.272949,455.761963 648.482300,454.623505 644.750610,450.670837 
M590.556885,575.079590 
	C587.131470,575.839966 587.061401,578.820984 586.048523,581.387878 
	C589.274963,583.343811 592.564087,584.230286 595.805664,585.129150 
	C599.818115,578.054688 599.818481,578.053650 592.622375,575.650818 
	C592.154358,575.494507 591.674744,575.372742 590.556885,575.079590 
M648.778198,442.713043 
	C646.189941,440.416473 643.601685,438.119904 640.974426,435.788727 
	C637.369629,441.494202 638.548889,443.548828 648.853027,449.882629 
	C649.609741,447.607361 651.970703,445.711884 648.778198,442.713043 
M630.192261,458.319000 
	C631.967590,460.230164 633.742981,462.141357 635.718567,464.268158 
	C637.538818,463.063019 639.447754,462.483948 639.857605,461.283966 
	C636.925964,457.785889 634.344849,454.706116 631.809875,451.681396 
	C628.961731,453.524109 627.096802,455.057190 630.192261,458.319000 
M575.048645,577.217712 
	C577.589661,578.308838 579.995300,579.804321 582.932068,579.950256 
	C584.420715,578.114502 585.662537,576.250000 585.818237,573.883728 
	C577.891785,569.510742 575.932495,570.040955 575.048645,577.217712 
M657.183228,601.231201 
	C659.109436,601.730835 660.390991,601.222534 660.778687,599.079834 
	C661.299011,596.203430 661.895508,593.340820 662.448242,590.528625 
	C660.274475,589.189148 657.350708,588.562683 657.013672,590.458801 
	C656.410217,593.854309 652.737305,597.421082 657.183228,601.231201 
M395.853760,569.022400 
	C383.252686,567.647095 370.790924,567.863464 358.675812,572.082336 
	C371.742615,569.110229 384.991272,569.164124 398.329865,569.527222 
	C397.725220,569.401672 397.120575,569.276184 395.853760,569.022400 
M526.525269,449.422272 
	C525.645325,451.546051 524.854187,453.691254 524.824036,455.991760 
	C530.091675,458.726044 532.499268,457.673584 532.592896,452.712524 
	C532.671143,448.570038 529.539612,449.266754 526.525269,449.422272 
M519.553833,453.935425 
	C523.388977,455.699127 522.554749,452.139557 523.177856,450.579529 
	C524.682556,446.812408 521.952881,445.455719 518.475281,443.354767 
	C518.774475,447.328766 514.172852,450.340912 519.553833,453.935425 
M416.059967,609.067200 
	C419.345245,606.899414 421.340729,603.908203 422.165375,599.985840 
	C420.006592,599.068542 417.542114,598.484680 416.547974,600.257568 
	C415.083435,602.869263 413.296478,605.904602 416.059967,609.067200 
M603.755859,385.701508 
	C601.219849,392.190308 603.418091,394.983887 612.865234,396.849304 
	C608.926147,393.695129 607.734497,388.907501 603.755859,385.701508 
M563.540833,385.132996 
	C555.995239,385.333405 548.460266,385.594208 541.446716,388.962067 
	C555.046082,385.071045 568.913940,385.369263 582.846130,386.584137 
	C582.842102,386.088074 582.838135,385.591980 582.834106,385.095917 
	C576.732056,385.095917 570.630066,385.095917 563.540833,385.132996 
M566.782593,570.050232 
	C566.119507,570.928101 564.483398,571.653015 565.318665,572.872742 
	C566.379700,574.422302 568.469910,575.246521 570.152832,574.948425 
	C572.731873,574.491577 573.250122,571.902039 574.102478,569.755249 
	C571.681213,567.662415 569.482178,566.606384 566.782593,570.050232 
M535.187073,454.028046 
	C534.703735,456.261475 535.618896,457.547668 537.776917,456.567627 
	C541.419312,454.913391 541.089661,451.876007 540.012024,448.518005 
	C536.692993,448.728027 535.407837,450.462189 535.187073,454.028046 
M656.137146,419.654297 
	C656.137146,424.218384 656.137146,428.782471 656.137146,433.346558 
	C656.632141,433.328064 657.127075,433.309570 657.622070,433.291077 
	C655.993713,425.302338 658.403503,417.366180 657.506653,409.022705 
	C656.337646,412.406311 656.440369,415.580933 656.137146,419.654297 
M642.993225,431.170654 
	C640.300354,431.532654 641.350098,432.791351 642.471008,433.783661 
	C645.227844,436.224396 648.081543,438.555786 650.896301,440.931122 
	C650.165466,436.182434 646.144470,434.434418 642.993225,431.170654 
M694.545166,290.668427 
	C699.656555,290.968140 697.513611,286.453644 699.434204,284.160278 
	C694.039307,283.744873 693.522278,286.602753 694.545166,290.668427 
M513.425354,445.383392 
	C513.725586,446.051758 513.567261,447.049194 514.891479,447.190521 
	C515.792053,444.044800 519.081543,441.100006 515.379944,437.222992 
	C514.036255,439.869232 513.380920,442.218689 513.425354,445.383392 
M136.552505,560.718933 
	C139.267151,561.406128 141.460938,560.861633 143.253067,558.022827 
	C139.677170,556.979553 136.809998,558.438904 133.766403,558.374268 
	C134.098022,559.898987 135.365662,559.783142 136.552505,560.718933 
M420.365601,591.714661 
	C420.410248,593.292664 420.612457,594.957581 422.772034,594.126953 
	C424.025513,593.644775 423.917114,592.100342 423.405609,591.101013 
	C422.582306,589.492676 421.435760,588.731018 420.365601,591.714661 
M631.688843,465.118408 
	C630.247314,461.700714 627.306580,459.750977 624.496216,457.665070 
	C626.030945,460.780151 628.381714,463.131317 631.688843,465.118408 
z"/>
<path fill="#000000" opacity="1.000000" stroke="none" 
	d="
M275.000000,448.004059 
	C314.620636,448.727539 353.775085,446.397827 392.869019,449.331085 
	C393.234589,449.358521 393.560913,449.909698 393.971741,450.275208 
	C392.414154,452.671997 390.021149,451.971558 388.042847,451.985352 
	C365.552551,452.142151 343.061523,452.235016 320.570618,452.260315 
	C285.916840,452.299286 251.262909,452.302643 216.609406,452.199463 
	C214.478653,452.193115 210.618439,453.685181 210.672348,450.005951 
	C210.715530,447.058594 214.375793,448.000305 216.521866,447.993561 
	C235.847702,447.932709 255.173904,447.985016 275.000000,448.004059 
z"/>
<path fill="#000000" opacity="1.000000" stroke="none" 
	d="
M284.000061,431.710205 
	C310.782104,432.179443 337.082642,430.764465 363.349731,432.510376 
	C363.876068,432.545380 364.361237,433.200684 364.849640,433.554993 
	C364.110840,435.434082 362.574310,435.035889 361.357819,435.134827 
	C359.037842,435.323639 356.702698,435.383118 354.373444,435.392548 
	C310.761230,435.569214 267.148987,435.753601 223.536606,435.837738 
	C220.926697,435.842773 216.223053,436.956757 216.258636,433.934906 
	C216.307343,429.797516 221.022614,431.867401 223.568619,431.841217 
	C243.544083,431.635925 263.522522,431.717377 284.000061,431.710205 
z"/>
<path fill="#000000" opacity="1.000000" stroke="none" 
	d="
M556.719849,318.696411 
	C555.753906,314.003693 553.483276,313.221191 549.888855,315.945251 
	C544.196777,320.259033 542.762817,329.646301 547.105286,335.760071 
	C549.021362,338.457794 551.535339,340.722870 553.643738,343.294403 
	C555.364014,345.392548 557.336609,347.502441 556.117798,351.763428 
	C550.852173,344.125427 542.628418,339.806152 541.165527,330.444855 
	C540.057861,323.356781 542.536560,317.625275 547.947144,313.207428 
	C551.006836,310.709106 554.653198,309.774414 557.989380,312.662384 
	C561.099182,315.354431 561.185303,319.045044 559.034851,322.197296 
	C554.473999,328.882660 556.536133,334.402649 561.258606,339.776459 
	C562.795593,341.525513 564.365540,343.298096 565.577332,345.270691 
	C569.421570,351.528229 570.448792,358.023468 566.175720,364.510071 
	C563.980225,367.842865 561.773193,371.125610 560.929993,375.433838 
	C557.787170,374.310852 557.916077,372.300903 558.480835,370.133636 
	C559.126343,367.656128 560.702820,365.695862 562.111328,363.630219 
	C565.939026,358.016663 565.909424,352.503601 562.068176,346.905548 
	C561.410034,345.946411 560.709351,344.995087 559.901611,344.163300 
	C552.556580,336.599701 550.202515,328.410706 556.719849,318.696411 
z"/>
<path fill="#000000" opacity="1.000000" stroke="none" 
	d="
M382.492188,502.549011 
	C378.206238,509.854828 378.518341,512.887451 383.925751,518.956543 
	C391.971069,527.986328 392.536652,531.608948 386.931885,542.149048 
	C384.974396,545.830322 384.957153,549.033508 387.454498,552.363647 
	C388.501434,553.759644 390.114777,554.988037 389.649170,557.126465 
	C383.654388,556.615112 378.811005,548.130005 382.636414,542.477356 
	C389.034668,533.022827 385.954742,526.533997 379.254913,519.186401 
	C373.328979,512.687561 375.000916,503.379608 381.850189,497.893585 
	C383.022034,496.954956 384.212158,496.066589 385.874084,496.848236 
	C386.298279,499.632996 383.806427,500.534058 382.492188,502.549011 
z"/>
<path fill="#000000" opacity="1.000000" stroke="none" 
	d="
M509.136536,351.864105 
	C510.868195,354.690735 514.406555,354.278961 517.350342,357.489777 
	C509.164551,359.202454 507.645477,365.495148 505.419830,373.243073 
	C502.079468,366.147858 500.681854,359.278381 492.789276,357.227692 
	C499.842682,354.937927 502.650543,349.719330 504.541809,342.459229 
	C506.412689,346.360016 507.662689,348.966248 509.136536,351.864105 
M501.497925,356.811768 
	C501.450012,359.270691 503.218170,360.494995 504.707733,361.980133 
	C509.595978,356.656769 509.595978,356.656769 504.659210,352.880035 
	C503.708160,353.991913 502.750427,355.111572 501.497925,356.811768 
z"/>
<path fill="#000000" opacity="1.000000" stroke="none" 
	d="
M369.504578,530.566406 
	C364.430634,526.869690 360.615143,522.878967 361.697327,516.267456 
	C362.102173,513.794006 362.745972,511.477142 365.303833,510.371094 
	C365.740265,510.776184 366.213379,511.073883 366.171631,511.196808 
	C363.654175,518.615112 366.336487,523.700867 372.575989,528.109619 
	C377.209656,531.383728 378.324707,537.027161 375.580872,541.462708 
	C372.501862,546.440247 371.027344,551.003662 374.862305,556.119141 
	C375.056702,556.378418 374.746918,557.015747 374.669434,557.492371 
	C369.815887,556.242371 367.298798,551.604431 368.817078,546.451843 
	C369.371399,544.570618 370.441589,542.822021 371.406799,541.085327 
	C373.564972,537.202332 373.202087,533.772949 369.504578,530.566406 
z"/>
<path fill="#000000" opacity="1.000000" stroke="none" 
	d="
M789.500793,239.598343 
	C787.218323,237.740097 785.160034,236.176590 781.821655,233.640656 
	C789.884155,232.211594 791.483887,226.231491 793.780029,218.848480 
	C796.686523,225.764633 797.794678,232.370132 805.731689,233.247177 
	C803.244080,236.857910 799.647705,237.138229 797.880859,239.920288 
	C796.148621,242.647751 796.673218,246.166595 794.224243,248.832291 
	C790.709656,246.787552 792.172974,242.295807 789.500793,239.598343 
M790.485168,235.577820 
	C791.762451,236.579376 792.163269,238.444992 793.842346,239.052872 
	C798.703003,233.912598 798.685181,233.333954 793.492065,229.903732 
	C792.408081,231.642242 790.075684,232.545425 790.485168,235.577820 
z"/>
<path fill="#000000" opacity="1.000000" stroke="none" 
	d="
M463.998871,435.342590 
	C456.915009,435.340881 450.331207,435.340881 443.747437,435.340881 
	C449.078949,431.251923 497.912537,430.487671 502.797150,433.365814 
	C501.733093,436.083649 499.320557,435.342163 497.393677,435.351654 
	C486.429047,435.405762 475.463928,435.357666 463.998871,435.342590 
z"/>
<path fill="#000000" opacity="1.000000" stroke="none" 
	d="
M396.968201,542.910034 
	C395.547394,544.428772 395.204041,546.609802 392.656860,546.703857 
	C390.877075,544.152283 392.991394,542.425598 394.121765,540.666077 
	C398.777740,533.418274 398.696655,531.451843 393.132782,524.855286 
	C387.564453,518.253296 386.614716,512.956177 389.974884,506.659424 
	C390.794159,505.124115 391.469666,503.235352 393.771271,503.448792 
	C394.665039,504.429626 394.383820,505.390137 393.866821,506.273895 
	C390.178925,512.577637 392.036591,517.769104 396.480255,523.004761 
	C402.797211,530.447571 402.724304,534.720215 396.968201,542.910034 
z"/>
<path fill="#000000" opacity="1.000000" stroke="none" 
	d="
M795.628540,318.815735 
	C788.903259,320.645996 788.494873,326.822937 785.953613,333.139404 
	C782.868530,326.752869 783.014893,319.651642 775.039795,318.148102 
	C780.752380,315.628357 783.454651,311.468109 784.810730,306.761841 
	C787.010193,306.525391 787.463318,307.793579 787.777405,308.824158 
	C788.880371,312.443329 790.922241,314.965210 794.767639,315.887329 
	C796.090027,316.204407 797.469299,316.915649 795.628540,318.815735 
M788.421265,319.157227 
	C790.388123,315.897797 787.591919,314.996582 785.683960,313.206604 
	C783.924683,315.601837 780.096497,316.755310 783.300537,320.540680 
	C785.560669,323.210846 786.799438,321.745728 788.421265,319.157227 
z"/>
<path fill="#000000" opacity="1.000000" stroke="none" 
	d="
M576.313599,360.155518 
	C577.409241,356.035675 575.590210,353.072052 573.764160,350.063293 
	C572.912598,348.660217 570.885803,347.455963 572.505981,345.344604 
	C582.469971,350.215149 582.755188,360.549652 572.891602,372.652222 
	C570.146790,367.266083 575.142151,364.383118 576.313599,360.155518 
z"/>
<path fill="#000000" opacity="1.000000" stroke="none" 
	d="
M528.074463,227.488907 
	C526.533264,230.328415 523.868713,232.244797 523.160217,236.043060 
	C520.479370,233.381226 519.712097,230.053818 516.341858,228.459686 
	C518.875732,226.327332 520.795532,224.222153 522.324890,221.482422 
	C524.615601,223.309875 525.167358,226.371887 528.074463,227.488907 
z"/>
<path fill="#000000" opacity="1.000000" stroke="none" 
	d="
M761.206970,173.134979 
	C760.644104,174.099167 760.210449,174.753510 759.477600,175.859497 
	C757.819397,173.012192 756.633911,170.395554 754.195374,168.435287 
	C756.327881,166.079453 758.271667,163.919037 759.203247,160.409546 
	C761.658081,163.305038 761.938965,166.531097 764.831848,167.977203 
	C763.414490,169.942902 762.375366,171.384018 761.206970,173.134979 
z"/>
<path fill="#000000" opacity="1.000000" stroke="none" 
	d="
M483.028870,452.110718 
	C479.170166,451.602417 475.365417,453.130280 471.437256,449.373352 
	C479.767029,448.868683 487.002014,447.994507 494.300354,449.642426 
	C491.252167,453.565582 487.116547,451.534668 483.028870,452.110718 
z"/>
<path fill="#000000" opacity="1.000000" stroke="none" 
	d="
M766.450684,288.641235 
	C765.166565,289.650238 765.015564,291.294006 763.218994,291.694824 
	C761.612671,290.096802 759.086243,288.420349 761.120605,285.793396 
	C762.495544,284.018036 765.108276,284.472107 767.098511,285.600739 
	C769.066345,286.716705 768.014709,287.642273 766.450684,288.641235 
z"/>
<path fill="#000000" opacity="1.000000" stroke="none" 
	d="
M724.762024,728.999756 
	C725.211609,689.660217 724.422668,650.802124 725.559875,611.567749 
	C729.028809,612.778687 728.173767,614.952637 728.215942,616.555603 
	C729.091675,649.820740 729.790833,683.098755 728.876709,716.363647 
	C728.448059,731.961121 728.770996,747.640442 726.370667,763.147705 
	C726.135681,764.665833 726.762207,766.539185 723.438660,768.048096 
	C724.900146,754.742065 724.673950,742.120789 724.762024,728.999756 
z"/>
<path fill="#000000" opacity="1.000000" stroke="none" 
	d="
M804.928711,563.135376 
	C785.327026,567.296875 766.140137,571.377563 746.953247,575.458313 
	C746.802490,574.742310 746.651794,574.026306 746.501099,573.310303 
	C792.560547,561.896301 838.877380,551.628540 885.600220,543.119507 
	C859.303406,551.642639 832.190552,556.810974 804.928711,563.135376 
z"/>
<path fill="#000000" opacity="1.000000" stroke="none" 
	d="
M709.674561,572.243774 
	C701.744751,569.429504 693.913147,568.810303 685.364502,569.884766 
	C689.635376,563.871887 705.850586,565.025024 716.883667,571.230591 
	C726.949829,576.892273 731.696472,590.728455 726.720276,602.352966 
	C724.850525,595.687683 725.639893,589.486938 723.676453,583.827393 
	C721.402283,577.272156 715.843750,574.693726 709.674561,572.243774 
z"/>
<path fill="#000000" opacity="1.000000" stroke="none" 
	d="
M158.338104,624.267090 
	C156.510345,624.057068 154.867905,624.796753 152.940247,621.699158 
	C189.565002,621.614624 225.244965,624.339539 260.948883,622.178833 
	C258.638184,624.852600 255.757996,624.121338 253.107803,624.281006 
	C224.834076,625.984253 196.558411,625.360413 168.282333,624.291321 
	C165.123322,624.171875 161.956146,624.268250 158.338104,624.267090 
z"/>
<path fill="#000000" opacity="1.000000" stroke="none" 
	d="
M297.914886,635.051392 
	C273.178864,635.668884 248.995605,634.266724 224.796097,632.781311 
	C258.801300,631.512756 292.796936,634.263000 326.776886,631.259705 
	C326.819733,632.104553 326.862610,632.949463 326.905457,633.794312 
	C317.404724,634.211365 307.903961,634.628418 297.914886,635.051392 
z"/>
<path fill="#000000" opacity="1.000000" stroke="none" 
	d="
M401.213928,643.943054 
	C405.468628,643.567322 409.273956,643.250671 413.083649,642.999634 
	C413.521576,642.970764 413.983643,643.308533 414.456360,644.118958 
	C396.004944,647.656006 377.438049,649.159058 358.622192,647.002747 
	C372.618958,645.315979 386.819305,646.316101 401.213928,643.943054 
z"/>
<path fill="#000000" opacity="1.000000" stroke="none" 
	d="
M780.473938,474.637695 
	C774.051392,474.418671 770.378967,470.949402 771.120789,466.014191 
	C771.722290,462.012695 773.883911,459.172791 778.177246,458.789215 
	C782.157837,458.433624 784.974854,460.302002 786.155273,464.139862 
	C787.549438,468.672607 785.784241,471.947327 780.473938,474.637695 
M780.050476,462.531982 
	C777.194580,462.017303 775.653503,463.420959 775.210876,466.078217 
	C774.898499,467.953796 775.221924,469.784454 777.305664,470.541473 
	C779.003113,471.158112 780.649292,470.735779 781.708618,469.262421 
	C783.246338,467.123505 783.153442,464.991882 781.098999,463.134705 
	C780.978027,463.025391 780.835632,462.939941 780.050476,462.531982 
z"/>
<path fill="#000000" opacity="1.000000" stroke="none" 
	d="
M578.697571,204.616974 
	C577.275208,202.322067 577.191528,202.234344 579.653748,199.885483 
	C589.637817,190.360855 601.672913,185.236115 615.278870,183.731659 
	C619.072266,183.312210 623.052185,181.961868 626.756287,184.289001 
	C626.186340,186.805588 624.409058,186.282822 623.061462,186.335083 
	C606.147156,186.991058 591.222107,192.429459 578.697571,204.616974 
z"/>
<path fill="#000000" opacity="1.000000" stroke="none" 
	d="
M616.820312,198.802917 
	C610.626587,200.630341 605.448914,203.740570 599.688232,207.788254 
	C602.206909,197.591400 632.145081,188.833450 641.581299,195.617920 
	C632.591492,196.393539 624.597961,195.858307 616.820312,198.802917 
z"/>
<path fill="#000000" opacity="1.000000" stroke="none" 
	d="
M712.411804,235.872391 
	C713.764160,242.628708 715.434387,248.989990 711.584229,255.368927 
	C711.365479,244.358643 710.268494,233.615784 704.663940,223.727951 
	C709.812622,226.172394 710.934448,230.906036 712.411804,235.872391 
z"/>
<path fill="#000000" opacity="1.000000" stroke="none" 
	d="
M725.227356,245.042236 
	C724.909912,239.523544 724.590332,234.440277 723.065369,229.451279 
	C721.572998,224.568832 718.190613,220.718933 715.585693,216.229218 
	C718.611877,215.235825 719.682556,217.031860 720.660156,218.384354 
	C725.882385,225.609818 728.135193,233.819275 728.085449,242.656006 
	C728.068298,245.706512 727.842896,245.720459 725.227356,245.042236 
z"/>
<path fill="#000000" opacity="1.000000" stroke="none" 
	d="
M618.047485,342.196228 
	C613.335754,341.665833 608.876953,341.575806 606.013000,336.966461 
	C618.858582,339.499512 630.632812,337.771637 641.220398,328.821899 
	C641.344849,336.604736 632.714600,341.144287 618.047485,342.196228 
z"/>
<path fill="#000000" opacity="1.000000" stroke="none" 
	d="
M715.065674,300.948792 
	C711.434509,298.879028 711.434509,298.879028 706.506775,304.620483 
	C704.060120,301.409393 705.867065,295.488098 710.737793,290.755951 
	C715.313660,286.310272 720.049500,285.441772 723.789551,288.588257 
	C720.378296,290.435760 715.819214,290.338043 713.762207,294.718994 
	C717.089355,297.153381 719.757812,299.899414 717.537720,304.440125 
	C715.295715,304.059143 715.985596,302.227264 715.065674,300.948792 
z"/>
<path fill="#000000" opacity="1.000000" stroke="none" 
	d="
M666.446899,397.028625 
	C665.227844,397.163727 663.599060,397.411133 664.617554,395.878937 
	C665.580505,394.430328 667.239319,393.342896 668.775024,392.392029 
	C686.930176,381.150543 707.050720,374.700928 727.276184,368.519470 
	C728.078064,368.274384 728.910156,368.180756 730.055115,370.208282 
	C708.303528,377.850739 686.142883,384.259949 666.446899,397.028625 
z"/>
<path fill="#000000" opacity="1.000000" stroke="none" 
	d="
M653.389954,253.544617 
	C648.625244,252.189743 644.148804,252.144852 639.656372,252.158752 
	C637.051575,252.166824 634.356323,251.785477 633.993591,248.579987 
	C633.650940,245.551605 636.249329,244.826889 638.499268,244.185211 
	C647.687561,241.564758 662.579956,247.019440 667.875610,254.905975 
	C668.786682,256.262756 669.916931,257.587982 668.791382,260.386322 
	C663.840454,257.999176 659.162720,254.899231 653.389954,253.544617 
z"/>
<path fill="#000000" opacity="1.000000" stroke="none" 
	d="
M361.062073,598.452148 
	C361.993164,594.811218 359.031586,590.871582 362.873566,588.097961 
	C363.925018,592.702515 364.935333,597.256287 362.599609,601.777588 
	C360.688904,601.251160 361.250732,599.884521 361.062073,598.452148 
z"/>
<path fill="#000000" opacity="1.000000" stroke="none" 
	d="
M632.669800,293.216858 
	C631.721924,291.476379 630.524963,290.093933 632.479736,287.724487 
	C641.146790,294.065765 650.882202,294.003540 661.124878,290.629883 
	C659.600891,295.923004 655.759827,297.898834 651.552063,299.101044 
	C644.234985,301.191620 637.758545,299.864502 632.669800,293.216858 
z"/>
</svg>