<svg version="1.1" id="Layer_1" xmlns="http://www.w3.org/2000/svg" xmlns:xlink="http://www.w3.org/1999/xlink" x="0px" y="0px"
	 width="100%" viewBox="0 0 1024 1024" enable-background="new 0 0 1024 1024" xml:space="preserve">
<path fill="#000000" opacity="1.000000" stroke="none" 
	d="
M622.376465,305.595459 
	C635.126343,317.447266 646.633301,329.853180 655.732483,344.418274 
	C667.299622,362.933868 667.841553,380.963379 654.441284,398.790741 
	C652.240173,401.719086 650.290283,404.839630 648.034668,407.723114 
	C632.973694,426.976501 615.335876,443.689484 596.828979,459.545532 
	C593.415039,462.470459 590.168884,465.590485 586.789734,468.557190 
	C585.170288,469.979004 584.528564,471.714874 584.343933,473.815826 
	C581.781860,502.976959 583.014221,532.004578 586.878845,560.994812 
	C588.234802,571.166504 590.833252,581.296936 589.343140,591.711548 
	C589.109070,593.347839 588.945923,595.102783 588.228760,596.543396 
	C584.198181,604.640076 579.834473,612.571655 580.219543,622.089294 
	C580.291687,623.870667 579.201965,625.909241 577.608704,626.745483 
	C573.597229,628.850952 573.513611,632.508423 573.398071,636.147522 
	C572.658569,659.454407 572.139954,682.769226 571.254883,706.070312 
	C569.699036,747.034180 569.952698,788.036987 568.560303,828.986084 
	C568.214905,839.144531 570.096619,847.716553 573.994873,856.527100 
	C576.555969,862.315552 578.643860,868.306702 578.311401,874.832886 
	C577.812988,884.616333 570.141113,889.750732 560.866821,886.447754 
	C553.666931,883.883545 549.127380,878.448669 545.635864,872.002808 
	C542.495117,866.204468 541.030945,859.926941 540.635437,853.350281 
	C540.339478,848.428040 539.907837,843.742920 537.422729,839.018555 
	C534.417725,833.305908 534.803772,826.391479 533.815979,819.998291 
	C528.561096,785.986938 522.566223,752.108032 516.199341,718.290344 
	C513.584778,704.402893 510.880981,690.538391 508.014618,676.699036 
	C506.453247,669.160461 503.819550,663.228516 496.086884,660.510193 
	C493.949646,659.758850 492.048401,658.336182 489.846405,657.495789 
	C491.290222,659.824341 495.223419,659.635498 495.541290,662.761108 
	C495.823669,665.538086 495.550385,668.415405 495.193054,671.206360 
	C492.911041,689.031372 491.164825,706.907471 489.890717,724.830505 
	C488.686981,741.763977 487.248932,758.686218 486.399506,775.637817 
	C485.432709,794.932190 485.796906,814.330627 483.931366,833.523315 
	C483.234131,840.696167 482.854370,847.943970 482.048492,855.127563 
	C481.650177,858.678101 479.559509,860.908020 476.251953,861.917480 
	C461.415039,866.445984 446.450134,870.340820 430.772827,870.284119 
	C429.130402,870.278198 427.436523,870.059937 425.857422,869.616394 
	C420.565643,868.130127 419.104431,864.332825 422.068115,859.712219 
	C424.572784,855.807373 428.607849,853.584534 432.284180,851.034363 
	C437.757690,847.237671 443.368652,843.638794 448.929779,839.968933 
	C450.897491,838.670471 451.654663,837.164001 451.393341,834.554565 
	C449.686127,817.509460 448.270111,800.435425 446.694061,783.376892 
	C444.826599,763.164490 442.825653,742.964172 441.013062,722.746948 
	C439.794586,709.156128 438.676422,695.553589 437.741241,681.940674 
	C436.577576,665.002563 435.654541,648.048035 434.610199,631.101624 
	C434.496429,629.255676 434.250061,627.412781 432.604309,626.185303 
	C428.189911,622.892944 427.399323,618.185852 427.883240,613.210693 
	C428.164246,610.322144 427.516052,608.278137 425.475128,606.098816 
	C417.929291,598.041382 415.082245,588.598206 417.412750,577.570435 
	C423.626068,548.169678 423.917297,518.440002 421.955444,488.607513 
	C421.889832,487.609863 421.664551,486.576721 421.834167,485.616760 
	C423.687531,475.125488 418.411926,469.581360 409.642120,464.540588 
	C386.967560,451.507446 364.777069,437.607910 345.049438,420.198273 
	C323.463776,401.148865 319.756653,386.141418 330.275818,359.347168 
	C336.404907,343.735321 345.060089,329.518463 354.804413,315.946533 
	C357.437225,312.279572 360.443634,308.863373 365.157196,307.741730 
	C366.386505,307.449219 367.164734,306.801819 367.767242,305.672791 
	C370.583557,300.395294 373.492981,295.398254 378.552124,291.566742 
	C381.540527,289.303406 377.952820,285.069519 378.752472,281.316498 
	C376.440582,282.310211 375.895874,285.646912 373.304810,284.694366 
	C370.720123,283.744141 370.800751,280.989349 370.289581,278.765686 
	C369.004883,273.176788 371.203888,267.966736 372.232727,262.571167 
	C370.752228,262.499420 370.303589,263.771118 369.474609,264.442657 
	C368.104919,265.552216 367.031891,267.700623 364.926361,266.628204 
	C362.681580,265.484863 362.657288,263.088013 362.948792,260.888824 
	C363.907288,253.658691 366.486206,247.068237 370.752014,241.113098 
	C371.876068,239.543961 373.587799,238.262665 373.814392,236.142899 
	C372.953033,235.384735 372.202271,236.084305 371.435150,236.149551 
	C367.202545,236.509552 366.100983,235.185776 367.757568,231.271301 
	C370.983276,223.648926 376.608521,218.069687 383.367279,213.500183 
	C384.838562,212.505478 386.710815,211.996582 387.800995,209.981293 
	C385.634216,209.435181 383.580688,208.969635 381.558990,208.392563 
	C379.757233,207.878281 377.936707,207.190460 377.865417,204.920883 
	C377.802032,202.903717 379.468536,202.157608 380.960022,201.405548 
	C389.060913,197.320679 397.832245,196.553070 406.693115,196.248703 
	C407.475311,196.221848 408.259216,196.245132 409.399353,196.245132 
	C407.854919,192.617142 406.355560,189.482834 405.195801,186.227509 
	C404.481201,184.221619 403.855316,181.796951 406.088318,180.312866 
	C408.025604,179.025345 409.511780,180.775284 410.935791,181.825546 
	C420.822754,189.117584 431.477753,191.514511 443.435486,187.608002 
	C454.091675,184.126678 465.138428,183.027695 476.612122,183.740112 
	C475.767975,181.235153 473.812561,180.864197 472.395172,179.869980 
	C470.843475,178.781540 469.324402,177.587830 469.963562,175.420975 
	C470.535370,173.482758 472.435516,173.214218 474.041779,173.093643 
	C482.247498,172.477615 490.320099,173.742813 498.343201,175.222336 
	C511.125122,177.579437 522.752380,182.823257 533.806030,190.157104 
	C534.322388,188.030563 533.079529,186.765244 532.528076,185.353531 
	C531.900146,183.746002 531.242493,182.183426 532.776306,180.763672 
	C534.243835,179.405289 535.888123,179.832153 537.440369,180.577179 
	C545.549316,184.469101 551.791870,190.394012 555.299805,198.658310 
	C556.871765,202.361694 558.494202,203.477554 562.611267,203.058868 
	C569.877258,202.319977 576.802368,204.385239 583.194336,207.969376 
	C584.966187,208.962936 586.862427,210.216644 586.575256,212.499023 
	C586.255615,215.039963 583.896973,215.082458 581.910095,215.292725 
	C579.773071,215.518860 577.652710,215.746368 575.680969,217.648804 
	C580.663086,221.439407 585.775818,224.786041 589.741882,229.574097 
	C595.724976,236.797333 599.719116,244.857666 601.665710,254.001770 
	C602.159302,256.320374 603.087158,258.867371 600.686218,260.382751 
	C598.266418,261.910004 596.924377,259.135193 595.147705,258.156952 
	C594.731873,257.927979 594.334839,257.664948 593.121460,256.925171 
	C595.987122,267.278412 596.212097,277.109833 595.291077,287.044281 
	C594.937500,290.858856 597.843018,294.166107 600.921326,294.234192 
	C610.076538,294.436768 615.710205,300.437317 622.376465,305.595459 
M578.779907,317.514313 
	C580.735413,316.255280 582.758179,315.073669 584.576538,312.662933 
	C588.905945,309.228455 592.304932,305.025085 595.070679,299.584808 
	C594.485046,294.894012 590.097046,293.256866 587.469543,290.215027 
	C586.484009,289.074127 585.066284,289.256622 583.264526,290.434814 
	C582.010925,291.225769 580.597107,291.879730 580.469116,293.893250 
	C583.411682,297.555359 588.532715,299.751556 590.051697,305.770477 
	C584.462524,303.360565 582.374878,297.944916 577.796936,295.693970 
	C575.904663,296.975952 574.484070,298.300446 573.925537,300.711060 
	C575.197144,302.051819 576.697449,303.381714 577.889465,304.946503 
	C579.938660,307.636353 583.737549,309.009613 583.341370,312.906311 
	C578.288879,310.839050 576.010315,305.569153 571.885193,302.525116 
	C566.783142,306.663300 565.825928,307.888428 567.484436,309.997284 
	C570.212952,313.466797 571.340515,319.269104 577.977905,318.038269 
	C577.977905,318.038269 578.220459,317.788086 578.779907,317.514313 
M386.863129,305.662231 
	C384.668762,310.061340 382.474426,314.460419 380.306305,318.806915 
	C382.350006,320.734161 384.261688,321.894104 386.935638,321.980743 
	C389.001221,317.345093 392.012604,313.169556 393.251099,308.130707 
	C391.379639,306.436371 389.124603,305.833740 386.594818,304.477600 
	C384.252594,302.154022 381.798798,299.936005 379.897736,296.546631 
	C376.326050,301.172607 373.491211,305.425201 371.941406,310.442657 
	C374.416504,306.944794 376.149261,302.861389 380.362122,300.845490 
	C379.143707,303.947937 377.614166,306.834869 375.645020,309.381958 
	C372.600647,313.319885 374.113708,315.450928 378.063629,317.236908 
	C379.034943,315.341492 379.742432,313.646667 380.718964,312.124481 
	C382.448822,309.428131 383.004852,305.648438 386.863129,305.662231 
M379.890869,378.374084 
	C383.403229,371.922058 386.265198,365.184937 388.736969,358.273956 
	C389.249390,356.841278 389.547272,355.499908 389.074860,353.923035 
	C386.905701,346.682434 386.467529,339.180908 386.303040,331.699982 
	C386.244843,329.052673 385.320526,327.877197 383.040222,326.899200 
	C378.076385,324.770203 373.311218,321.872589 370.462158,317.337433 
	C366.712982,311.369476 364.119537,312.889893 360.472717,317.892365 
	C351.008728,330.874298 343.142090,344.768677 337.008850,359.609161 
	C326.339874,385.424591 329.992096,399.024811 351.383850,417.174652 
	C368.488739,431.687286 387.365112,443.561859 406.253021,455.468353 
	C410.820404,458.347534 415.342316,461.298798 420.036743,464.314331 
	C421.984100,458.352661 419.104919,452.723328 420.632599,447.061157 
	C423.691284,448.315765 423.661469,450.787323 424.048096,452.711517 
	C428.626648,475.499512 429.551422,498.631531 429.700958,521.761658 
	C429.829163,541.597900 427.463684,561.254272 423.569458,580.743530 
	C421.702026,590.089539 427.992676,601.744080 436.236603,605.714294 
	C436.876617,604.243591 435.740692,603.177307 435.329651,602.006104 
	C431.943115,592.355774 428.989990,582.815491 438.649597,574.732483 
	C439.505096,574.016602 439.965576,572.821716 440.588501,571.836060 
	C444.914154,564.991943 447.286163,557.355591 449.498047,549.665710 
	C450.304443,546.862183 451.346191,544.889038 454.928711,545.210205 
	C479.197723,547.385803 503.528992,546.762756 527.847595,546.614502 
	C535.805298,546.565979 535.884705,546.509827 538.295105,554.047180 
	C542.286133,566.527222 548.228149,577.681458 559.120911,585.586731 
	C561.134888,587.048340 561.149109,589.213928 561.304504,591.412292 
	C561.755676,597.791748 560.393311,603.923645 558.208130,611.052612 
	C565.385498,609.694641 571.761353,609.270020 576.478760,603.958130 
	C583.899841,595.601746 583.593994,585.632446 582.224915,575.578979 
	C579.350525,554.472046 576.629639,533.367188 576.652710,512.005066 
	C576.665161,500.509644 576.671326,489.021606 578.521790,477.155212 
	C576.306152,478.571991 575.871765,481.152832 573.315735,480.921844 
	C571.644226,478.968964 573.204468,477.432465 574.065552,476.003052 
	C577.439575,470.402161 581.738586,465.521759 586.425842,461.001343 
	C599.616882,448.279968 613.607605,436.390472 626.158447,423.004944 
	C636.884949,411.565125 647.285339,399.855621 654.490784,385.730652 
	C659.078979,376.736328 659.379272,367.620026 655.476074,358.282196 
	C651.643188,349.112518 646.066589,341.064453 639.912781,333.361908 
	C630.936035,322.125854 621.079224,311.747040 609.638611,302.986664 
	C604.181946,298.808350 601.860718,299.240662 598.427307,304.658722 
	C594.550720,310.776093 589.911743,316.158783 584.012939,320.407501 
	C577.921326,324.795227 577.773010,325.374969 581.218994,331.998199 
	C581.910278,333.326965 582.601562,334.677002 583.472839,335.887665 
	C592.915344,349.008606 602.473999,362.036926 614.258301,373.229523 
	C615.060425,373.991333 616.252014,374.604675 615.597046,376.326508 
	C611.508362,377.508820 609.082825,373.771576 605.668274,372.408722 
	C606.632874,376.249115 610.239746,377.838562 612.285095,381.244171 
	C605.920471,381.972534 604.251953,376.612885 600.678894,373.812500 
	C590.197205,385.287506 578.152588,394.791565 566.810242,405.068878 
	C559.041626,412.108063 550.539062,418.706818 544.889038,427.546600 
	C537.354553,439.334656 526.962769,447.343109 514.571350,452.612671 
	C506.963654,455.847839 503.825134,459.937622 505.047760,468.258575 
	C506.464630,477.901642 503.745850,487.854156 506.860748,497.496002 
	C507.474365,499.395325 506.410217,501.603516 504.448334,502.583313 
	C501.671753,503.970001 498.651001,504.272705 495.801270,502.759918 
	C493.543671,501.561493 492.972534,499.135468 493.726074,497.099976 
	C495.953522,491.083008 494.345001,484.933868 494.862946,478.879364 
	C495.500916,471.421509 496.028076,463.948700 496.914337,456.519501 
	C497.516632,451.470978 500.343964,449.193817 502.980743,451.420593 
	C505.214722,453.307159 506.422913,452.361328 508.121216,451.325043 
	C524.442688,441.365540 538.757629,429.195038 549.686340,413.369110 
	C535.290588,421.719910 521.301819,430.830353 508.501984,442.842804 
	C507.920685,439.975189 508.819427,439.125671 509.579254,438.298401 
	C515.477173,431.876709 522.543945,426.863129 529.511658,421.713654 
	C543.909241,411.072998 561.579773,405.243713 573.766174,391.295380 
	C576.984619,387.611633 579.450195,379.569794 577.652954,374.934265 
	C576.972290,373.178711 575.982422,371.588715 574.466492,370.540588 
	C571.298157,368.349915 567.503845,368.433746 564.584290,370.198975 
	C561.639771,371.979370 562.805176,374.796387 564.636536,377.495117 
	C566.430603,380.138885 565.841248,383.240906 564.225830,386.031464 
	C562.356079,389.261505 559.842651,391.936829 556.839966,394.077026 
	C546.814819,401.222412 537.168884,409.047211 526.548401,415.174591 
	C511.355225,423.940094 499.415192,435.950897 488.323212,449.126770 
	C487.137390,450.535370 486.332184,452.738037 483.120758,452.146271 
	C484.137177,449.151611 481.819061,447.406036 480.469391,445.192810 
	C478.388733,441.781067 475.535156,438.575104 474.474762,434.863251 
	C472.415527,427.655121 467.531677,426.481140 460.606201,426.978027 
	C464.472778,435.633179 471.667999,441.443298 477.375427,448.514465 
	C474.880981,449.748077 473.922760,448.234100 472.875580,447.349487 
	C467.490997,442.800903 462.110046,437.892212 459.543518,431.361877 
	C456.336731,423.202606 449.005249,423.552582 442.714447,420.615692 
	C442.637573,421.831177 442.492950,422.333435 442.602539,422.772217 
	C442.803101,423.575470 443.036713,424.411987 443.459534,425.111969 
	C449.441864,435.014862 457.838867,442.603851 467.477661,448.653320 
	C470.528046,450.567810 472.978027,452.600586 475.296448,455.447662 
	C473.841492,456.890869 471.468231,457.294342 471.519623,459.764069 
	C471.743744,470.536102 470.084290,481.356567 472.286163,492.073669 
	C472.833862,494.739319 472.713715,497.269897 470.287537,498.751892 
	C467.561401,500.417145 464.485901,500.471375 461.810272,498.497314 
	C459.499054,496.792114 459.282623,494.298737 460.187134,491.730042 
	C460.679260,490.332458 461.606049,489.099243 461.446259,487.486237 
	C460.416260,477.088409 461.797913,466.887482 464.276794,456.830139 
	C465.013550,453.840973 464.187897,452.125092 461.631500,450.716309 
	C457.088104,448.212494 452.990326,445.036316 449.160156,441.568970 
	C442.853088,435.859344 437.554413,429.519897 437.669800,420.309174 
	C437.690979,418.618469 436.778595,417.593170 435.518646,416.617157 
	C420.289429,404.819092 404.957550,393.161804 388.796173,382.426758 
	C386.454712,385.297821 385.838379,390.326447 380.121521,390.821106 
	C381.175903,386.962341 384.365601,384.481628 384.378235,380.522949 
	C378.695862,386.348450 378.695862,386.348450 375.138611,385.542786 
	C375.851074,382.840881 378.327271,381.336243 379.890869,378.374084 
M585.182556,233.326965 
	C580.716614,228.001663 575.226196,224.116913 568.956787,221.112000 
	C564.900391,219.167816 564.905212,216.553925 568.687927,214.176666 
	C570.567383,212.995560 572.696350,212.211594 575.437195,210.901535 
	C569.340027,208.672211 563.877258,208.515564 558.474670,209.371429 
	C554.474182,210.005203 552.758911,208.597900 551.743896,204.861938 
	C550.192139,199.150345 546.714233,194.659103 541.621338,190.500473 
	C541.166260,195.177582 543.965027,199.062714 541.068237,203.748901 
	C524.377136,189.416977 505.463745,180.887497 482.616943,179.339462 
	C484.960815,182.014267 486.660278,183.800735 488.172577,185.733658 
	C489.167603,187.005432 490.469177,188.463409 489.243561,190.199600 
	C488.201599,191.675568 486.563385,191.208344 485.097931,190.866119 
	C472.409973,187.903214 459.960114,189.530334 447.604492,192.823273 
	C441.640045,194.412903 435.693726,195.863113 429.411316,195.377304 
	C423.602356,194.928085 418.581940,192.171921 412.854187,189.769669 
	C415.245331,194.348587 418.641510,196.985840 422.265228,199.392563 
	C423.377380,200.131210 424.816711,200.815567 424.324310,202.415390 
	C423.808319,204.091827 422.271240,203.736176 420.934753,203.534882 
	C419.124908,203.262283 417.318207,202.947281 415.498718,202.763748 
	C406.892883,201.895721 398.311096,201.500748 388.888214,204.402054 
	C391.590485,205.081116 393.381989,205.328293 395.005219,205.988953 
	C397.194458,206.879944 400.768738,206.664215 400.843567,209.711136 
	C400.912994,212.537918 397.441620,212.369461 395.437225,213.214767 
	C387.066986,216.744690 379.273865,222.912521 376.747803,228.271667 
	C379.194366,227.830261 381.631042,227.318207 384.091309,226.975052 
	C385.475677,226.781982 386.829956,227.145294 387.400208,228.611572 
	C387.906738,229.913925 387.008667,230.792847 386.149902,231.621750 
	C384.112671,233.588242 382.051910,235.531754 380.058044,237.541519 
	C374.724182,242.917862 371.159515,249.231827 369.380463,256.942871 
	C376.130371,255.345291 379.830200,252.259216 380.698914,245.285858 
	C382.031250,234.590851 389.396271,228.436996 399.080139,224.885773 
	C406.260101,222.252777 409.131775,223.172562 414.122498,229.089508 
	C414.612549,229.670486 415.435394,229.970703 416.129150,230.417557 
	C419.168396,228.162537 418.175171,222.670120 423.015564,222.159088 
	C423.243713,222.758820 423.519104,223.108047 423.446869,223.355911 
	C423.077972,224.621048 422.644440,225.869308 422.188019,227.106674 
	C418.817993,236.242813 418.598480,245.545990 424.607605,253.326340 
	C434.267853,265.834015 447.703613,271.579987 464.616821,272.249390 
	C454.303925,265.328796 444.724091,259.245728 441.455322,247.797195 
	C442.074188,247.130692 442.693054,246.464172 443.311890,245.797653 
	C450.406281,254.565750 458.481934,262.022858 468.683167,266.654053 
	C478.825439,271.258453 489.239685,274.300415 501.962891,273.018341 
	C493.738190,266.476379 486.237457,261.173828 484.594543,251.152115 
	C494.963379,262.416443 506.649445,270.980957 522.492004,273.746246 
	C521.833618,267.580170 518.880859,262.111328 522.618164,256.604584 
	C525.509888,263.712982 527.316772,271.163177 531.604736,277.464417 
	C535.947937,283.846863 540.737427,289.832794 549.301636,293.054291 
	C547.990601,286.242188 547.308167,280.443268 547.852661,274.647675 
	C548.250854,270.410065 546.616150,268.227234 542.639282,266.978333 
	C538.683899,265.736237 534.768616,264.188232 531.378235,261.682892 
	C528.369141,259.459290 526.403931,256.622253 527.572937,252.689621 
	C528.741150,248.759354 532.231079,248.214371 535.588867,247.987534 
	C537.726501,247.843155 539.906250,248.324326 543.000061,248.611633 
	C540.713074,247.180435 539.234497,246.409164 537.938416,245.402786 
	C536.501770,244.287308 535.047485,243.103485 533.925720,241.691391 
	C531.094116,238.127045 531.043213,233.215088 534.414307,231.523712 
	C539.846375,228.798264 543.631348,224.163025 549.774170,221.738510 
	C559.921509,217.733414 566.745972,220.627106 573.772095,226.673309 
	C580.146606,232.158752 582.511597,239.849609 584.675293,247.871124 
	C588.016113,247.659576 591.007385,249.048859 594.647217,250.144592 
	C592.465698,243.669113 589.285522,238.644180 585.182556,233.326965 
M544.593994,390.105316 
	C548.901917,384.971130 552.360046,379.299957 555.319092,373.299988 
	C556.983459,369.925201 559.127930,366.652618 556.201538,363.093689 
	C556.760681,362.581177 557.012756,362.159851 557.240967,362.172455 
	C558.550659,362.244781 559.863281,362.365326 561.159180,362.569000 
	C570.548279,364.044678 577.750610,360.510864 583.192200,352.964905 
	C584.390320,351.303406 585.429565,349.531464 584.086182,347.461731 
	C581.120422,342.892426 578.116150,338.348175 575.160156,333.843384 
	C572.480103,335.251312 572.480103,335.251312 571.012695,337.406525 
	C576.495789,341.689697 577.019714,343.030212 574.329468,346.724579 
	C569.094116,335.711365 565.842651,346.349213 562.095764,348.302795 
	C560.272278,346.311615 560.804688,344.694824 561.242188,343.095459 
	C562.714172,337.714081 565.772217,333.445221 570.556885,330.598297 
	C573.061401,329.108124 574.768799,327.336060 572.751343,324.684692 
	C570.939087,322.302948 568.576843,320.211426 565.146301,322.705231 
	C561.097046,325.648834 558.580872,329.703217 556.378967,334.047119 
	C555.521179,335.739410 554.383362,337.239136 552.189270,336.990448 
	C549.969604,336.738861 547.960022,336.040131 546.953918,333.742950 
	C546.518738,332.749298 546.957092,331.287811 545.479919,330.849396 
	C534.669556,332.591644 534.681458,332.592072 534.298401,343.224274 
	C534.135254,347.752167 533.077881,352.098083 531.619629,356.376404 
	C529.926086,361.345306 526.651062,364.519531 521.548157,365.843323 
	C509.140167,369.062134 496.533966,369.843140 483.938141,367.776031 
	C471.284851,365.699585 468.473907,362.391479 466.508972,349.698730 
	C466.153381,347.401703 465.829987,345.088684 465.698608,342.771332 
	C465.589874,340.853394 464.753693,339.823425 462.982544,339.075623 
	C454.369202,335.439087 449.239838,338.645172 449.313751,347.739777 
	C449.317352,348.183167 449.443573,348.625580 449.547760,349.293060 
	C451.981476,347.248535 450.826721,343.328461 453.800934,341.728607 
	C456.225037,347.039948 454.202789,354.166534 448.995636,359.299011 
	C445.059601,363.178558 445.511353,365.678070 450.428955,368.379150 
	C452.487701,369.509979 455.421234,369.157043 456.731812,371.794067 
	C451.403473,374.780334 445.585449,373.582153 441.838348,368.399780 
	C440.233215,366.179779 438.867249,365.390625 436.112854,366.088043 
	C431.093781,367.358948 425.906006,367.383698 420.729431,367.416107 
	C417.129791,367.438629 413.456177,366.694122 410.100006,367.805176 
	C409.294281,368.976990 409.540863,369.922302 409.758331,370.923004 
	C412.317688,382.701416 418.188019,392.563690 427.046631,400.656158 
	C460.485352,431.202789 515.209839,426.517822 544.593994,390.105316 
M556.862183,595.598999 
	C557.385620,591.804932 556.510681,588.900879 552.710510,586.958801 
	C549.751038,585.446228 547.606812,582.708008 545.503296,580.116333 
	C539.496338,572.715332 536.048035,564.067871 533.839905,554.941833 
	C532.959229,551.302002 531.279236,549.989990 527.613770,550.316895 
	C522.311218,550.789917 516.979370,551.010193 511.655090,551.151733 
	C494.327301,551.612488 477.022156,551.093994 459.786774,549.235962 
	C455.285004,548.750610 453.261444,550.115479 452.357208,554.666260 
	C450.379639,564.618713 446.340485,573.802185 439.218964,581.164734 
	C436.390411,584.088989 435.592468,587.033569 436.416901,590.601990 
	C437.312805,594.479614 438.503845,598.294189 439.683563,602.099915 
	C441.266357,607.205627 444.683685,610.010742 450.088715,610.771729 
	C456.832214,611.721130 463.486816,613.317322 470.235931,614.209290 
	C494.118042,617.365662 518.043823,617.762390 541.901672,614.113464 
	C555.283447,612.066772 556.183472,610.716797 556.810852,597.002930 
	C556.818420,596.836487 556.825256,596.670105 556.862183,595.598999 
M543.847351,296.893127 
	C539.387573,294.871063 534.870361,292.428741 532.319641,288.373749 
	C528.122864,281.701874 522.295471,278.763794 514.842102,277.969666 
	C512.591370,277.729919 510.520172,275.816071 508.129395,276.823029 
	C497.621613,281.248657 487.256073,279.483154 476.894928,276.295013 
	C475.329681,275.813385 473.819641,275.000610 472.077057,275.796722 
	C463.588379,279.674866 455.181396,278.035156 446.744629,275.481079 
	C444.764069,274.881470 442.782532,273.851135 440.480438,274.994171 
	C436.781982,276.830536 432.746521,276.586975 428.727631,276.465820 
	C421.743286,276.255280 415.612457,273.221649 409.415802,270.591644 
	C407.741608,272.351196 407.519043,274.372681 407.047577,276.269928 
	C404.541748,286.352905 404.043243,296.639954 403.768585,306.974854 
	C403.589966,313.694489 403.987640,314.126801 410.653778,313.218567 
	C420.945160,311.816467 431.218597,311.443604 441.267181,314.881134 
	C444.503967,315.988403 448.311890,317.334473 448.355438,321.063202 
	C448.455505,329.627350 453.213837,330.732666 460.299530,330.653107 
	C464.544586,330.605438 465.801300,329.716278 465.767578,325.533264 
	C465.708130,318.162781 467.965027,315.504395 475.083679,313.357269 
	C477.561554,312.609924 480.077911,311.990143 482.854340,311.236725 
	C480.794434,309.371857 478.978699,307.928528 477.408569,306.254883 
	C475.524780,304.246887 474.410736,301.861298 474.940399,298.969818 
	C475.848297,294.013641 478.588409,292.795471 482.508331,295.865692 
	C486.991730,299.377258 492.105957,300.917969 497.617157,301.866302 
	C503.591766,302.894379 509.573761,302.499054 515.553894,302.734253 
	C517.735107,302.820038 520.901733,301.564575 521.778992,304.318878 
	C522.633606,307.001984 519.385254,307.851166 517.723999,309.333801 
	C517.528381,309.508392 517.510254,309.881805 517.343872,310.347931 
	C521.053528,311.204742 524.771362,311.956696 528.425842,312.943176 
	C531.081299,313.659943 533.471985,315.018311 534.141663,317.955811 
	C534.626221,320.081512 535.024170,322.242737 537.830017,321.148407 
	C540.926331,319.940735 546.070801,321.865936 546.650452,316.656525 
	C547.237000,311.385773 546.876831,306.008789 546.914673,300.678223 
	C546.926575,298.995270 546.119202,297.838623 543.847351,296.893127 
M553.157593,269.137665 
	C553.214172,273.132874 553.031067,277.149292 553.381775,281.118500 
	C553.950867,287.559357 554.237549,294.166870 559.956604,298.781799 
	C563.012024,301.247284 565.459229,301.862854 568.282349,298.216492 
	C570.916138,294.814667 574.219910,291.932281 577.221863,288.814484 
	C578.249695,287.747070 579.549866,286.843964 579.722656,285.202484 
	C581.263367,270.565582 581.800537,255.898102 577.636963,241.619949 
	C574.796082,231.877380 566.213745,225.110916 557.978333,224.844101 
	C568.353577,230.382019 575.110840,239.377487 572.670410,245.798874 
	C568.796814,241.034439 566.359680,235.514053 561.369751,232.406433 
	C556.301086,229.249847 551.104431,226.673218 544.811951,229.750916 
	C549.339478,232.228302 553.970825,234.321823 557.847534,237.684128 
	C561.710022,241.034149 564.837952,244.729507 566.067566,250.023911 
	C562.435120,250.648300 561.876770,248.257797 560.683716,246.847504 
	C555.470886,240.685501 549.290100,236.171326 541.075928,235.019684 
	C539.783997,234.838531 538.271545,234.410294 537.531311,235.959946 
	C536.745361,237.605301 537.673279,238.938385 538.944885,239.829147 
	C541.258728,241.449860 543.668884,242.940033 546.092163,244.395889 
	C550.415649,246.993286 554.531372,249.810165 556.877075,254.485153 
	C557.440979,255.608932 558.400513,256.872131 557.280396,258.166107 
	C556.165955,259.453461 554.823120,258.741821 553.585938,258.317627 
	C549.182129,256.807648 544.842102,255.079788 540.371643,253.808228 
	C537.820679,253.082611 534.953613,252.237671 532.383545,254.678329 
	C534.493835,259.392426 539.105896,259.939301 542.908203,261.673553 
	C546.609131,263.361542 551.129150,263.793762 553.157593,269.137665 
M513.413147,359.943146 
	C518.367004,359.302856 523.149170,358.224030 524.766418,352.609161 
	C527.371765,343.563629 527.524353,334.262299 527.156677,324.944519 
	C527.090454,323.268158 526.678833,321.545532 524.685852,321.022705 
	C519.798401,319.740662 514.888916,318.604950 509.542267,319.249969 
	C510.642242,323.433807 513.756531,326.881348 511.354340,332.383453 
	C508.240387,324.937775 505.060974,318.642426 496.670898,318.468567 
	C488.475677,318.298767 484.046722,323.623962 480.545349,331.143341 
	C478.694672,325.965424 481.059479,322.987366 482.619232,319.710602 
	C479.162628,321.199371 473.511597,318.983856 473.340057,325.064789 
	C473.087128,334.029694 472.682861,343.033447 474.402069,351.939148 
	C475.254181,356.353241 477.711365,358.986603 482.245850,359.793304 
	C492.343964,361.589813 502.443604,361.252960 513.413147,359.943146 
M406.777924,264.034760 
	C410.089905,262.923157 413.422241,261.867462 416.704407,260.673920 
	C418.120728,260.158875 419.655304,259.362335 419.189056,257.484467 
	C418.776764,255.823883 417.303833,255.256348 415.678589,255.232941 
	C412.684753,255.189804 409.716797,255.214142 406.729706,255.755844 
	C401.197357,256.759125 396.643524,259.491150 392.600372,264.486572 
	C391.163605,258.998962 393.866455,256.747559 396.561768,254.584152 
	C400.962830,251.051590 406.494080,250.012192 411.559143,247.938644 
	C413.325623,247.215469 415.756561,246.705414 414.757111,243.867188 
	C413.894867,241.418701 411.690094,242.174042 410.032959,242.486801 
	C403.042633,243.806000 396.638733,246.408981 391.458466,251.530228 
	C390.375061,252.601273 389.593475,254.454819 386.584839,253.458038 
	C391.765259,241.103104 403.631042,239.758957 414.694855,236.417099 
	C411.630341,233.418503 408.747253,234.093460 406.146729,234.699265 
	C399.715912,236.197433 394.058746,239.214722 389.162323,243.765717 
	C385.514709,247.156021 383.568451,251.221329 383.383667,256.073700 
	C382.913971,268.407623 383.445923,280.709656 385.160522,292.939301 
	C385.818542,297.632477 390.223602,301.867218 394.723022,302.519073 
	C396.280975,302.744781 397.382385,302.412292 397.594299,300.671326 
	C398.677582,291.771332 400.159729,282.892395 400.650299,273.959290 
	C400.897888,269.451233 401.773743,266.173828 406.777924,264.034760 
M414.570862,321.583679 
	C411.258484,319.830811 408.233398,321.425598 404.893066,322.043457 
	C406.074036,334.128845 407.211914,345.847137 408.370087,357.563446 
	C408.603668,359.926147 410.411926,360.509583 412.304596,360.572998 
	C419.788910,360.823792 427.295074,361.125336 434.676758,359.469849 
	C436.944427,358.961304 439.617126,358.311127 440.294891,355.815948 
	C443.091156,345.521576 445.601562,335.185577 438.977966,325.227997 
	C435.324005,319.734772 429.830261,319.895050 424.274811,320.100830 
	C419.245789,320.287140 417.180542,323.754150 415.688782,327.897919 
	C415.207855,329.233795 415.338257,330.965790 413.150787,331.849701 
	C411.436615,328.279816 412.911072,325.194366 414.570862,321.583679 
M586.919067,359.469360 
	C585.156433,362.335663 582.024780,363.868103 579.563110,366.692078 
	C583.405762,370.369598 584.092957,375.291534 585.164368,381.598602 
	C589.846863,376.621643 593.609741,372.654053 597.331604,368.648285 
	C598.589294,367.294647 599.042908,365.769318 597.700073,364.178955 
	C595.279236,361.311920 592.832153,358.467010 590.183228,355.363434 
	C588.951355,356.884064 588.130493,357.897278 586.919067,359.469360 
M397.949707,381.536255 
	C400.516907,383.189972 402.705566,385.541870 406.512115,386.390198 
	C405.155670,381.533783 403.204895,377.315033 402.952179,372.996918 
	C402.572632,366.511719 398.902313,363.935059 393.567902,362.305084 
	C387.800690,373.248016 387.800629,373.248077 396.978821,380.808868 
	C397.107147,380.914551 397.243530,381.010529 397.949707,381.536255 
M552.552063,307.253845 
	C551.954468,318.901520 552.221375,319.153015 562.049683,316.090637 
	C562.308533,316.009949 562.468567,315.612305 562.583557,315.472961 
	C561.094299,309.540680 561.520386,302.396545 553.033081,301.299683 
	C552.924866,302.859619 552.800415,304.653351 552.552063,307.253845 
M522.714722,632.356262 
	C526.315247,630.099548 524.860046,626.572021 524.210022,623.840698 
	C523.574341,621.169617 520.507019,622.635132 518.501953,622.377991 
	C514.151611,621.820007 513.279663,624.130249 513.258911,628.035461 
	C513.237793,632.010864 514.946533,633.008728 518.399170,632.627319 
	C519.554016,632.499695 520.727295,632.538574 522.714722,632.356262 
M538.325562,629.661194 
	C538.432861,628.012573 538.575439,626.365295 538.640686,624.715027 
	C538.817810,620.232788 535.508118,621.274170 533.054443,621.401611 
	C530.567993,621.530640 527.278931,620.945068 527.657288,625.271423 
	C527.827698,627.220337 527.920532,629.176147 528.072388,631.493225 
	C531.547607,631.747681 534.786133,632.080261 538.325562,629.661194 
M588.578369,263.019897 
	C587.804443,260.215179 587.030457,257.410461 586.256470,254.605743 
	C586.319641,263.361237 585.293945,271.910767 585.235413,280.477814 
	C585.223267,282.256195 585.424622,284.105255 587.517029,284.302032 
	C590.175049,284.551971 589.607117,282.252411 589.658569,280.743347 
	C589.851196,275.089996 589.985229,269.429718 588.578369,263.019897 
M486.171051,442.696564 
	C490.587494,437.831451 495.003937,432.966309 499.420380,428.101196 
	C493.306702,430.997589 486.716003,432.145386 480.401062,434.936066 
	C482.184845,437.926239 483.427399,440.617035 486.171051,442.696564 
M496.703094,630.604614 
	C496.781311,622.243103 496.120300,621.580200 489.304993,622.289612 
	C486.983063,622.531311 485.910065,623.560852 486.116455,625.763367 
	C486.316162,627.894287 484.997223,631.008301 488.305664,631.566528 
	C490.937500,632.010681 493.821625,633.145081 496.703094,630.604614 
M550.684204,626.888306 
	C550.473755,624.384399 552.105103,621.263367 549.196899,619.634338 
	C547.268188,618.554077 544.646484,619.310181 543.011292,620.565308 
	C539.770569,623.052795 541.894165,626.611389 541.564392,630.126099 
	C544.919861,629.585388 548.239990,630.839783 550.684204,626.888306 
M475.941162,621.319275 
	C474.674652,621.398560 472.816376,621.018005 472.887817,622.876831 
	C472.980103,625.277283 471.969147,627.954468 473.531891,630.055908 
	C474.883179,631.873047 482.138306,631.294128 482.656586,629.588074 
	C484.249969,624.343445 482.289307,621.606018 475.941162,621.319275 
M509.990814,631.777954 
	C511.051880,630.181885 510.143066,628.555725 510.089539,626.935669 
	C509.936035,622.293030 506.597473,622.915894 503.623810,622.988281 
	C499.462067,623.089539 500.288849,626.230530 500.114075,628.795166 
	C499.865479,632.443848 502.158142,632.863586 504.941681,632.676392 
	C506.424713,632.576660 507.903534,632.414246 509.990814,631.777954 
M464.355438,619.447327 
	C462.409485,619.314941 461.041840,620.002075 461.091125,622.150085 
	C461.138733,624.222778 460.280090,626.537964 462.127625,628.251465 
	C464.170990,630.146545 468.764038,629.930664 469.542572,628.011780 
	C471.076874,624.230164 469.325104,620.862427 464.355438,619.447327 
M424.819061,263.067291 
	C421.236145,262.743988 419.270111,265.765228 415.129120,267.100067 
	C421.904510,269.457825 427.337311,271.729248 433.795227,270.223053 
	C430.728546,267.756439 428.045502,265.598389 424.819061,263.067291 
M561.392029,625.580017 
	C561.486755,624.592041 561.775330,623.575684 561.635864,622.621887 
	C561.342896,620.617859 562.929443,617.417480 558.979065,617.439209 
	C555.575500,617.457886 553.122803,618.683960 554.103027,622.845703 
	C554.510315,624.575134 553.385498,626.408508 554.385315,628.212769 
	C556.736267,627.908203 559.055542,627.760681 561.392029,625.580017 
M455.471802,618.108948 
	C453.620392,617.617065 451.427063,616.285950 450.018555,618.204041 
	C448.562164,620.187378 449.420807,622.815002 450.305054,624.829285 
	C451.581360,627.736633 454.464355,627.261230 457.679840,627.210938 
	C457.077606,624.078857 459.108765,620.985474 455.471802,618.108948 
M499.363556,490.047394 
	C502.179016,492.247192 500.815582,488.955658 500.817841,488.706421 
	C500.917999,477.670929 500.904419,466.634399 500.904419,455.598022 
	C498.508331,466.775574 499.394165,478.073456 499.363556,490.047394 
M441.580048,623.585938 
	C443.054932,624.280579 444.485962,625.193848 446.231201,624.546448 
	C447.516449,616.306763 447.120941,615.586853 440.804474,615.059814 
	C440.077271,617.755859 439.924530,620.435913 441.580048,623.585938 
M570.314453,616.054688 
	C568.664551,613.233398 566.143921,615.212158 565.487122,616.145020 
	C563.500671,618.966614 564.011536,622.258850 565.208252,625.368042 
	C568.673401,625.386108 570.642090,624.412537 569.991760,620.677124 
	C569.771179,619.410400 570.142944,618.040649 570.314453,616.054688 
M399.087494,344.352142 
	C398.449768,346.734406 397.807281,349.115387 397.175446,351.499176 
	C396.245117,355.009247 397.678284,356.940979 401.681213,357.970245 
	C401.285217,351.066956 400.918854,344.680023 400.519409,337.716431 
	C399.216217,339.943329 399.443939,341.796844 399.087494,344.352142 
M467.939972,459.249573 
	C468.009338,457.803284 469.032410,456.442017 467.980011,454.004974 
	C466.296600,465.642151 464.792084,476.391083 466.536865,487.346588 
	C466.968628,478.257050 467.400360,469.167511 467.939972,459.249573 
M407.427704,228.888779 
	C398.772675,227.760086 393.327087,232.915482 388.161438,238.629822 
	C393.585175,233.415878 400.799774,231.944550 407.427704,228.888779 
M375.953857,274.215912 
	C381.473724,270.788055 376.119934,265.717194 377.965881,261.728333 
	C376.271027,265.681946 374.434357,269.596985 375.953857,274.215912 
M435.280304,620.553223 
	C437.342560,621.959778 437.553040,620.669495 437.217804,619.098267 
	C436.721100,616.770325 439.323029,612.887329 434.245453,612.567932 
	C433.287415,616.071838 433.287415,616.071838 435.280304,620.553223 
M393.288971,339.779938 
	C393.338104,340.775818 393.387238,341.771729 393.502350,344.104279 
	C395.335419,337.154602 395.118683,333.464935 392.863617,329.882721 
	C393.016357,333.230408 393.148224,336.120850 393.288971,339.779938 
M396.171143,315.128571 
	C398.436493,313.350403 397.684174,311.291809 396.747833,309.198975 
	C395.893005,311.178650 392.413605,312.656738 396.171143,315.128571 
M499.880371,499.530762 
	C501.291840,499.512024 502.764984,499.148560 502.277710,497.440247 
	C501.816528,495.823364 500.084839,496.149933 498.988068,496.688843 
	C497.076904,497.627930 497.885254,498.621857 499.880371,499.530762 
z"/>
<path fill="#000000" opacity="1.000000" stroke="none" 
	d="
M601.682739,205.623535 
	C592.575195,190.982712 592.361938,176.257568 603.003357,163.482712 
	C608.819885,156.500198 612.631531,150.128525 614.533264,141.075211 
	C617.373779,127.553169 634.657898,117.915512 649.589539,119.238518 
	C659.235840,120.093231 665.304321,119.117790 673.947754,116.430870 
	C687.007751,112.371033 698.952148,114.552658 709.272705,123.890396 
	C710.743958,125.221535 711.916260,126.423340 714.387634,126.186272 
	C735.705627,124.141327 751.612305,138.584244 752.067444,160.474579 
	C752.147888,164.342865 753.115662,167.325470 755.426147,170.480362 
	C764.106445,182.332947 763.775818,194.916763 757.439941,207.690384 
	C756.408325,209.770126 755.426636,211.524200 756.220154,214.198196 
	C761.573914,232.240250 747.643860,251.493774 728.580444,252.212875 
	C723.788696,252.393631 720.501282,253.513168 717.080994,257.316650 
	C707.104614,268.410736 689.168030,270.443909 676.241150,262.685486 
	C674.198364,261.459442 672.539734,260.497162 669.851196,261.434021 
	C660.355530,264.742889 651.750610,261.722260 645.842346,253.415115 
	C645.071655,252.331497 644.211426,251.237656 643.761292,250.013077 
	C641.991333,245.197372 638.698242,244.071747 633.672913,244.208099 
	C616.879761,244.663742 603.880859,234.641388 601.034180,219.894287 
	C600.120483,215.161133 601.442566,210.633926 601.682739,205.623535 
M734.298340,245.910645 
	C748.017273,240.335434 755.605896,227.413422 751.401672,215.703323 
	C749.978027,211.738113 750.622498,209.015778 752.478516,205.577148 
	C758.395813,194.614258 759.010498,183.393509 750.990234,173.280823 
	C747.818054,169.281082 746.350647,165.673538 746.803833,160.730453 
	C748.224365,145.238937 732.875305,126.751160 712.667664,131.767838 
	C710.390564,132.333145 709.012573,131.738297 707.491333,130.021591 
	C696.697510,117.840767 680.633850,115.992325 667.598267,125.546799 
	C665.156128,127.336761 663.210754,127.884613 660.364136,126.662193 
	C655.890320,124.741013 651.110352,124.140106 646.204529,124.280403 
	C629.694641,124.752571 617.907166,136.882828 618.260010,153.358932 
	C618.322571,156.278168 617.055115,157.924377 614.812012,159.441879 
	C599.708130,169.659653 596.124878,185.862915 605.525208,201.604446 
	C606.995850,204.067154 607.287598,206.282883 606.660339,209.132233 
	C604.597107,218.504044 607.005676,226.592636 614.527100,232.891205 
	C620.032104,237.501236 626.906250,240.216629 633.487732,239.112839 
	C642.218994,237.648499 645.332458,241.650970 648.686768,248.342117 
	C653.053101,257.052216 662.958008,260.295074 670.191040,255.830963 
	C672.904480,254.156311 674.871277,255.848053 676.986328,257.198730 
	C687.506042,263.916809 698.899475,264.370209 708.253113,256.779602 
	C716.040710,250.459854 723.755981,246.485657 734.298340,245.910645 
z"/>
<path fill="#000000" opacity="1.000000" stroke="none" 
	d="
M641.636963,268.298431 
	C636.461487,274.033752 629.285645,274.967285 624.197021,270.867035 
	C619.669373,267.218781 618.796997,259.776245 622.291992,254.613785 
	C625.390381,250.037079 632.443604,248.402328 637.386292,251.115341 
	C643.195984,254.304276 644.928772,260.826660 641.636963,268.298431 
M628.892395,255.392654 
	C625.427795,257.268707 624.584534,260.288544 625.344666,263.883575 
	C625.926270,266.634247 627.836304,268.169373 630.535950,268.589661 
	C633.432495,269.040710 635.792725,267.957367 637.426270,265.527374 
	C639.187378,262.907715 639.224792,260.133575 637.405151,257.584167 
	C635.484009,254.892609 632.898804,253.688995 628.892395,255.392654 
z"/>
<path fill="#000000" opacity="1.000000" stroke="none" 
	d="
M607.890930,278.335938 
	C609.330139,274.437225 612.034851,273.310547 615.524292,273.761230 
	C618.088257,274.092377 619.729309,275.646088 620.325378,278.138702 
	C620.942017,280.717041 620.540588,283.107147 618.355591,284.879242 
	C616.396729,286.467926 614.045898,286.865326 611.804749,285.942139 
	C608.713135,284.668610 607.367310,282.127991 607.890930,278.335938 
M612.845215,281.751587 
	C615.291382,283.058929 616.184143,281.563568 616.423279,279.544861 
	C616.544495,278.521484 615.533630,277.577484 614.533569,277.662689 
	C612.265198,277.855896 611.369019,279.121918 612.845215,281.751587 
z"/>
<path fill="#000000" opacity="1.000000" stroke="none" 
	d="
M600.872070,141.149887 
	C604.626770,145.143738 603.121460,148.562775 600.837097,152.045685 
	C595.767090,150.954773 599.760681,147.066467 598.208374,145.043243 
	C595.719666,144.509750 596.447876,148.343811 593.215027,147.651230 
	C591.303406,146.697800 591.857483,144.576813 593.140747,142.718887 
	C594.977173,140.060074 597.556702,139.351608 600.872070,141.149887 
z"/>
<path fill="#000000" opacity="1.000000" stroke="none" 
	d="
M594.988525,299.873749 
	C590.157715,298.376160 587.444946,294.255890 584.007690,290.495728 
	C585.066284,289.256622 586.484009,289.074127 587.469543,290.215027 
	C590.097046,293.256866 594.485046,294.894012 594.988525,299.873749 
z"/>
<path fill="#000000" opacity="1.000000" stroke="none" 
	d="
M524.397888,229.577621 
	C524.882568,232.560715 523.413879,232.823792 522.126831,231.180206 
	C514.809937,221.836746 504.880280,217.628525 493.519073,215.995636 
	C493.190002,215.948334 492.940918,215.344681 492.629913,214.970840 
	C501.341858,210.612289 518.246887,218.303879 524.397888,229.577621 
z"/>
<path fill="#000000" opacity="1.000000" stroke="none" 
	d="
M527.686279,209.334167 
	C530.982483,213.421265 534.090515,217.226791 532.626709,222.916367 
	C527.974915,215.274048 522.922424,208.174240 513.542358,204.426849 
	C518.604858,202.502365 520.918213,203.452805 527.686279,209.334167 
z"/>
<path fill="#000000" opacity="1.000000" stroke="none" 
	d="
M474.085266,398.362549 
	C469.990051,398.693024 466.344299,398.932343 462.722931,399.372192 
	C456.244690,400.158997 454.381409,398.629791 454.177032,392.123199 
	C454.156647,391.474152 454.174286,390.823914 454.174286,390.286957 
	C452.509521,388.341553 449.670837,390.397034 448.217560,388.183197 
	C447.914490,386.397278 449.255280,386.007599 450.530518,385.609283 
	C458.441650,383.138367 466.289948,380.430389 474.289276,378.286835 
	C483.646088,375.779480 493.000916,378.892029 497.490997,385.617584 
	C499.548798,388.699951 501.381256,392.007141 499.010986,395.756165 
	C496.773254,399.295502 493.310760,399.929657 489.421509,399.557739 
	C484.470062,399.084259 479.504944,398.753845 474.085266,398.362549 
M473.559998,393.898895 
	C476.045410,393.956116 478.544586,393.869720 481.012878,394.105927 
	C484.309509,394.421387 487.570435,395.146454 490.869232,395.390503 
	C493.130585,395.557800 495.516357,394.918518 495.334045,392.033966 
	C495.169464,389.429413 493.151978,389.087036 490.887360,389.623566 
	C486.633728,390.631287 482.291962,390.191254 477.988647,390.237701 
	C474.827087,390.271820 472.297333,391.282837 469.925629,394.321167 
	C471.309448,394.149414 472.084717,394.053162 473.559998,393.898895 
M487.571136,383.391205 
	C479.070557,379.309082 471.658081,383.645721 464.014618,386.300903 
	C472.550354,386.824829 481.079346,387.649933 490.068237,385.241272 
	C489.093719,384.460938 488.615204,384.077759 487.571136,383.391205 
z"/>
<path fill="#000000" opacity="1.000000" stroke="none" 
	d="
M422.324982,310.228668 
	C416.916595,309.426758 412.056580,308.340698 407.805450,305.493408 
	C406.565582,304.662994 405.177795,303.689117 405.567566,301.937195 
	C405.984711,300.062317 407.773010,300.074921 409.211334,300.022522 
	C413.200378,299.877289 417.195099,299.870850 421.187805,299.848541 
	C427.863373,299.811279 433.957520,297.985565 439.473999,294.171936 
	C441.010254,293.109894 442.642761,291.010559 444.691711,292.890533 
	C446.445740,294.499908 447.270905,296.818207 446.721680,299.269653 
	C446.076416,302.149658 444.377350,304.333649 441.874420,305.959259 
	C436.026886,309.757111 429.590820,310.812073 422.324982,310.228668 
z"/>
<path fill="#000000" opacity="1.000000" stroke="none" 
	d="
M475.092773,290.395172 
	C472.439270,293.942780 473.031219,297.882538 472.777008,301.945160 
	C468.683197,301.012482 468.564270,298.090332 469.025208,295.445129 
	C469.550751,292.429413 470.028687,288.937439 473.866486,288.055969 
	C475.172211,287.756042 475.406952,288.956818 475.092773,290.395172 
z"/>
<path fill="#000000" opacity="1.000000" stroke="none" 
	d="
M447.427124,288.142059 
	C451.132233,286.004211 451.496735,289.259705 452.317902,291.221710 
	C453.872253,294.935425 453.700287,298.409088 449.290558,301.586243 
	C448.150818,296.760437 449.591492,292.293304 447.427124,288.142059 
z"/>
<path fill="#000000" opacity="1.000000" stroke="none" 
	d="
M491.873535,347.257019 
	C484.351746,346.237946 481.820038,343.774628 481.684448,337.756226 
	C481.563446,332.385406 484.522949,328.557281 489.391388,327.787018 
	C494.381897,326.997437 499.013885,329.805023 500.718201,334.652588 
	C502.680878,340.234955 499.245026,345.365662 491.873535,347.257019 
z"/>
<path fill="#000000" opacity="1.000000" stroke="none" 
	d="
M504.260925,349.430847 
	C506.795990,347.338928 509.020447,345.450928 511.490509,343.354462 
	C511.763489,349.662231 504.795074,355.509003 496.804871,356.241791 
	C488.504791,357.002991 480.503510,351.820374 479.300446,343.478210 
	C486.740509,351.521454 494.552734,354.801270 504.260925,349.430847 
z"/>
<path fill="#000000" opacity="1.000000" stroke="none" 
	d="
M425.475464,329.098572 
	C430.028046,326.823517 433.986206,327.245636 437.105072,330.761414 
	C440.081207,334.116333 440.828033,338.054077 438.572479,342.238708 
	C436.434753,346.204742 433.107147,347.877380 428.692566,347.265533 
	C424.820862,346.728943 422.538788,344.236206 421.382172,340.684204 
	C419.863678,336.020782 421.325165,332.255920 425.475464,329.098572 
z"/>
<path fill="#000000" opacity="1.000000" stroke="none" 
	d="
M417.004639,351.996582 
	C415.461334,349.914368 413.415222,348.403564 414.530762,344.683990 
	C423.109894,355.311554 431.900360,355.282104 440.599792,345.120087 
	C441.293091,349.491028 439.840027,351.947296 435.589233,354.343506 
	C429.383514,357.841614 423.131470,357.131378 417.004639,351.996582 
z"/>
<path fill="#000000" opacity="1.000000" stroke="none" 
	d="
M577.858398,318.164978 
	C572.685852,316.473328 570.218201,312.348572 568.486633,307.514191 
	C572.615295,309.762268 575.414917,313.346680 578.109985,317.470093 
	C578.220459,317.788086 577.977905,318.038269 577.858398,318.164978 
z"/>
<path fill="#000000" opacity="1.000000" stroke="none" 
	d="
M640.381104,159.313965 
	C643.968933,157.274582 646.208374,154.634888 648.003845,151.239059 
	C651.620422,144.398849 657.738403,140.981934 665.039734,140.434906 
	C666.402710,138.984573 664.973755,138.401794 664.817017,137.553925 
	C664.353577,135.046844 665.913513,133.669846 668.048462,133.415573 
	C670.521179,133.121063 672.749207,134.506348 672.075806,137.116150 
	C671.197266,140.520889 673.024902,141.461166 675.349670,142.724106 
	C680.820557,145.696182 684.658752,150.161377 686.393982,156.095566 
	C689.332031,156.499939 691.060913,154.584839 693.184631,153.832138 
	C697.181091,152.415710 701.273987,152.295837 705.461792,152.288803 
	C709.415161,152.282166 713.435120,152.210602 713.968689,146.440643 
	C714.290344,142.962509 716.366760,140.721207 720.156128,143.571671 
	C721.185669,144.346176 722.205750,144.344330 723.424927,144.264984 
	C727.843811,143.977432 729.744019,146.339935 727.676331,150.230347 
	C726.104370,153.188095 726.249084,155.578186 727.031982,158.644974 
	C727.725769,161.362732 728.375610,164.220627 727.236694,167.398560 
	C726.078308,170.630798 729.509949,172.494064 731.673584,175.104309 
	C732.584412,170.973236 733.866638,167.826660 738.400513,171.498032 
	C739.015564,171.996017 740.298584,171.671646 741.272461,171.723404 
	C745.142578,171.929092 745.983154,174.088806 744.163757,177.057465 
	C742.788635,179.301300 741.697449,181.127899 743.128357,183.809250 
	C743.860840,185.181763 743.249817,186.947830 741.631836,187.584274 
	C739.363159,188.476700 736.488464,190.307083 734.593323,188.503326 
	C731.429260,185.491867 725.862183,183.506622 728.435486,176.955505 
	C729.394714,174.513596 722.567444,166.737930 719.007446,165.263763 
	C717.599731,165.761261 718.535400,168.450516 716.313538,168.217148 
	C714.250427,162.230728 710.616089,156.726822 704.555420,155.479004 
	C696.632263,153.847717 690.054260,157.495819 687.421265,162.922806 
	C691.083740,164.479691 694.914124,165.228882 698.777344,165.962128 
	C712.922974,168.647034 722.780151,175.855515 727.574646,190.276886 
	C731.319153,201.539993 723.593262,222.323074 713.832520,229.795593 
	C708.175964,234.126053 702.098022,237.311356 695.383606,239.469345 
	C692.129272,240.515259 688.355713,240.613953 686.412842,244.181747 
	C686.341858,244.312195 686.152588,244.385147 686.008606,244.467850 
	C682.516907,246.473572 668.042358,244.434875 665.134766,241.485977 
	C664.717590,241.062866 664.528381,240.414978 663.917358,239.287430 
	C667.700317,239.705704 669.953369,243.059677 673.392944,242.382721 
	C671.544678,235.925125 671.544678,235.925125 657.462891,233.597321 
	C656.669556,235.234497 657.899902,237.089752 656.833496,238.803940 
	C655.369202,241.157562 654.396790,244.542984 651.638062,239.893509 
	C650.922852,238.688049 649.741882,238.800476 648.738342,238.324463 
	C645.769348,236.916168 642.586304,235.635132 642.628540,231.388687 
	C642.654907,228.732315 640.526855,228.346344 638.368713,228.109711 
	C637.044006,228.972656 638.785522,232.541046 635.674744,231.626465 
	C632.770020,230.772461 634.608093,228.354202 634.647766,226.644531 
	C627.201477,222.156815 625.378174,223.291992 625.180359,232.411011 
	C625.148193,233.895828 624.592529,235.185364 622.984192,235.214584 
	C621.146118,235.247971 620.939453,233.883652 621.256104,232.396515 
	C622.002808,228.889099 620.071899,225.035187 623.412659,221.703705 
	C620.908447,221.622742 620.127930,224.846252 617.990906,223.104721 
	C617.134399,222.406708 617.060120,221.404160 617.403015,220.365372 
	C618.080811,218.311478 619.347839,216.958969 621.562683,216.526245 
	C623.692871,216.110062 625.483948,216.536606 627.041626,218.106354 
	C631.413025,222.511520 637.148926,224.092346 642.928406,225.712936 
	C637.128540,222.374115 633.264099,217.308441 630.273682,211.753128 
	C628.000244,211.955048 627.206604,213.704224 625.771057,214.493088 
	C623.454468,215.766068 621.281128,215.386398 619.141724,214.145630 
	C617.150635,212.990967 616.357483,211.112366 617.010498,209.036163 
	C617.789978,206.557693 616.470703,205.054565 615.355408,203.162643 
	C613.632812,200.240494 612.283997,197.040756 617.771667,196.479996 
	C619.643921,196.288696 620.187561,194.321457 621.484009,193.364746 
	C623.076904,192.189331 624.089783,194.346298 625.746765,194.332230 
	C626.900818,190.409088 628.064575,186.453140 629.361877,182.043121 
	C624.916077,182.655701 621.160767,183.387161 621.290833,188.882645 
	C621.320679,190.142899 620.974060,191.301987 619.532288,191.478836 
	C618.087341,191.656097 617.523071,190.577347 617.175110,189.383087 
	C616.623352,187.489258 616.216736,185.707520 616.488831,183.578659 
	C616.968445,179.826965 618.513855,175.902939 615.243164,172.284378 
	C613.856201,170.749863 614.494141,167.559372 616.390991,167.098572 
	C620.253967,166.160156 623.634094,162.149033 628.413574,164.967514 
	C629.650940,166.266739 627.297302,168.913788 630.135803,170.226837 
	C633.810608,167.134048 635.933594,162.337006 640.381104,159.313965 
M702.706543,198.844086 
	C705.817749,198.157150 706.959656,196.061310 706.906982,193.058136 
	C706.880798,191.565933 707.129761,189.824081 705.071167,189.629257 
	C703.098755,189.442642 702.662170,191.210770 702.442810,192.617279 
	C702.115234,194.717545 702.140198,196.872787 701.481262,199.395325 
	C699.323242,201.270599 697.165222,203.145874 694.385498,205.184875 
	C690.513000,204.946747 688.301086,206.984467 686.948914,210.412323 
	C686.082458,212.608810 685.466858,214.938293 688.154053,215.890930 
	C690.620117,216.765167 692.106628,215.108749 692.721802,212.609024 
	C693.355286,210.035461 694.209595,207.516266 695.822876,204.896866 
	C698.223450,204.388901 701.021484,205.956131 703.251831,203.376740 
	C702.995544,201.929062 701.541260,200.676086 702.706543,198.844086 
M694.965515,227.384247 
	C691.676880,226.249893 691.947510,222.411407 690.090820,220.333847 
	C680.869873,226.744308 672.584534,221.168076 664.149963,218.485031 
	C664.038696,221.315216 667.578430,221.389954 666.814209,223.943115 
	C660.439087,223.310333 657.847900,212.972885 649.182312,217.516510 
	C652.277893,222.352951 657.215454,224.384964 661.167725,227.538956 
	C661.356812,228.624207 659.288818,229.267929 660.559448,230.562851 
	C670.093445,233.086624 670.647705,232.854401 673.458740,224.404526 
	C678.416992,228.239380 685.941040,223.807709 690.084229,230.528381 
	C691.827209,230.019333 693.526733,229.386673 694.965515,227.384247 
M658.679871,144.965271 
	C654.814148,147.025803 651.587830,149.685455 649.607239,154.666718 
	C653.239746,154.666718 656.330688,154.665833 659.421570,154.667099 
	C661.106445,154.667770 662.193909,154.041565 662.671997,152.248322 
	C663.900635,147.640289 667.941162,147.840515 671.171082,148.346222 
	C674.831665,148.919388 678.180542,150.880020 677.648804,155.676437 
	C677.413757,157.796799 677.130859,159.911865 676.871399,162.015381 
	C678.790955,163.128510 680.512451,164.445206 682.465881,162.697983 
	C684.159302,161.183304 684.087158,159.169998 683.664917,157.128922 
	C681.533936,146.828110 671.087830,141.450485 658.679871,144.965271 
M703.609924,227.929504 
	C701.530396,227.374237 699.410095,226.477768 697.613586,228.560013 
	C695.712402,230.763580 693.068481,231.850296 690.636047,233.265610 
	C689.207214,234.096924 686.851746,233.958786 686.934998,236.528290 
	C695.836975,239.670624 717.215942,226.274475 718.745300,216.582214 
	C713.564697,215.347244 709.779114,216.135941 708.108887,222.165863 
	C707.559265,224.150101 707.936401,227.559494 703.609924,227.929504 
M708.554382,205.797104 
	C709.650391,207.523804 709.830688,209.836258 712.028198,211.437393 
	C715.144714,207.433182 718.870789,204.474182 723.046753,202.039917 
	C724.872314,200.975723 725.720764,199.212006 725.795837,197.028625 
	C725.998352,191.139709 721.124023,181.068527 716.214172,177.405624 
	C717.972595,183.325607 717.972595,183.325592 721.384094,186.902130 
	C723.250671,188.858932 722.296631,200.564774 720.085938,202.201477 
	C717.967957,203.769562 715.656250,202.994812 713.373535,202.631775 
	C711.789307,202.379852 710.721069,200.535461 708.870850,201.149673 
	C708.113159,202.434296 708.334167,203.772018 708.554382,205.797104 
M643.652771,216.127258 
	C645.310364,216.382645 646.977051,215.501648 645.340271,214.216827 
	C639.497803,209.630554 641.507568,198.400421 631.240051,197.702408 
	C630.646179,197.662048 630.902100,196.022202 629.153809,196.623688 
	C630.372681,199.193176 632.331360,201.612839 632.591125,204.202881 
	C633.265015,210.921829 635.513855,215.655243 643.652771,216.127258 
M633.030151,176.740036 
	C635.678345,173.672760 639.999939,172.114548 641.378967,167.956955 
	C642.390869,164.906448 644.139771,163.713547 647.320679,164.140778 
	C649.213989,164.395065 651.169373,164.187363 653.281677,164.187363 
	C653.449341,161.554123 654.780090,159.921677 655.996460,158.168106 
	C649.305054,156.959198 644.048645,159.584152 639.824280,163.640640 
	C636.284119,167.040146 631.976562,170.509979 633.030151,176.740036 
M714.597900,182.235794 
	C714.126282,178.945648 713.944641,175.155212 710.819580,173.438934 
	C706.025940,170.806274 700.808167,168.851807 695.260010,168.441254 
	C693.252380,168.292694 692.315186,170.174408 692.512695,171.908722 
	C692.801514,174.444733 694.844238,173.954285 696.358948,173.296249 
	C699.598267,171.888931 702.822571,171.676453 706.055298,173.006500 
	C708.507507,174.015427 709.779419,175.760635 708.614929,178.548950 
	C707.930969,180.186630 706.381897,182.125778 708.343384,183.500992 
	C710.167603,184.779938 712.448486,184.297791 714.597900,182.235794 
M668.391724,177.123184 
	C670.500793,175.670700 671.869080,173.759109 672.331970,171.245590 
	C664.933411,167.952423 662.377136,176.289429 656.596985,176.913132 
	C659.918823,179.129776 662.440063,181.969055 665.594421,182.787857 
	C668.345459,181.245895 664.230286,178.128067 668.391724,177.123184 
M638.237366,182.516235 
	C636.166443,180.489166 634.454407,181.640762 633.362549,183.455261 
	C631.777222,186.089905 630.097900,188.802109 630.305847,192.882294 
	C632.337708,190.221817 634.783325,192.203262 637.405151,191.188904 
	C637.753296,188.638168 638.125793,185.909348 638.237366,182.516235 
M669.758179,187.815948 
	C670.787476,188.530670 671.683472,189.807129 673.472290,188.440964 
	C670.200378,182.417480 673.445679,178.382950 678.021484,174.847198 
	C678.997864,174.092804 679.823547,173.308502 679.488708,171.976913 
	C679.274048,171.123245 678.660522,170.528458 677.711792,170.536011 
	C676.321167,170.547058 675.644043,171.579056 675.241211,172.658600 
	C673.733521,176.699005 671.983887,180.589844 669.413391,184.098450 
	C668.741394,185.015671 668.557739,186.264755 669.758179,187.815948 
M659.335938,200.995544 
	C660.988831,198.431778 660.221191,196.571732 657.276978,196.756073 
	C654.511536,196.929214 651.811218,198.142349 649.082214,198.897888 
	C651.795898,199.882202 654.149109,200.913940 656.347656,202.437820 
	C657.204224,203.031570 658.253357,202.359070 659.335938,200.995544 
M672.022644,193.444702 
	C670.798096,192.427399 670.344788,190.552399 668.174255,190.145676 
	C667.277161,192.380417 664.910461,194.150116 666.336365,197.496017 
	C669.275696,196.400955 672.121887,196.619049 675.008423,198.080704 
	C674.818909,195.801758 673.305603,195.090012 672.022644,193.444702 
M720.415771,207.992569 
	C718.858582,209.301483 716.810913,210.193695 716.261230,212.479996 
	C721.825500,214.593719 723.784485,212.787628 724.612915,204.878815 
	C723.298950,205.860489 722.126831,206.736191 720.415771,207.992569 
M665.321594,188.701126 
	C664.922180,186.847397 663.645142,185.817352 662.288757,187.321884 
	C660.286865,189.542313 659.258057,192.279053 661.835999,195.338043 
	C664.000488,193.695618 664.575745,191.502716 665.321594,188.701126 
M646.293091,196.702789 
	C646.643799,194.028824 645.160950,191.954437 644.386169,189.193451 
	C642.246216,191.966278 641.913757,194.490646 642.720520,197.085129 
	C643.539551,199.719208 644.811279,198.993073 646.293091,196.702789 
M648.162537,211.657745 
	C649.861755,212.940475 651.584778,214.112152 654.582397,212.852432 
	C651.597839,211.075470 650.262451,207.705627 646.508484,208.406982 
	C646.187256,209.868469 647.129150,210.453140 648.162537,211.657745 
M694.313171,184.681671 
	C696.748352,182.274918 696.336426,181.288055 691.481873,178.556976 
	C690.235840,181.407684 691.463379,183.148941 694.313171,184.681671 
M655.274658,169.539291 
	C654.541138,170.656540 654.274048,171.913605 655.783142,172.380035 
	C658.162354,173.115387 659.628601,171.620651 661.579834,169.463745 
	C659.080750,169.417007 657.612000,167.551590 655.274658,169.539291 
M681.468384,178.542099 
	C679.121521,176.587219 677.820007,177.531342 676.789490,180.015900 
	C678.522522,181.119156 680.834412,180.087799 681.488037,182.652588 
	C682.492493,181.106522 683.633789,180.059418 681.468384,178.542099 
M685.237488,198.722061 
	C683.504395,198.397247 682.081665,199.023590 680.617004,199.951218 
	C681.362976,201.822830 681.817383,203.552139 683.674316,204.096298 
	C685.867249,202.685593 682.810486,200.274933 685.237488,198.722061 
M679.124634,213.984955 
	C680.419189,212.975601 681.501343,211.797363 679.580200,210.533020 
	C678.487305,209.813766 677.129150,210.484650 676.551758,211.471786 
	C675.294495,213.621017 677.031128,213.884705 679.124634,213.984955 
z"/>
<path fill="#000000" opacity="1.000000" stroke="none" 
	d="
M640.265259,142.027313 
	C640.403320,143.893219 640.494324,145.227097 641.618835,146.521561 
	C645.206177,150.650986 644.919189,152.473953 640.366394,155.409180 
	C639.003052,156.288101 637.352905,156.711411 635.869507,157.417786 
	C634.541077,158.050385 633.261353,158.785309 632.070374,159.416672 
	C630.112976,158.990143 629.548523,157.527359 629.328857,156.077179 
	C628.690186,151.860458 630.745605,147.430634 628.339661,143.312881 
	C628.171692,143.025391 628.521545,142.353821 628.753113,141.927460 
	C630.318298,139.045609 638.162292,138.856110 640.265259,142.027313 
z"/>
<path fill="#000000" opacity="1.000000" stroke="none" 
	d="
M684.195251,132.992935 
	C685.492920,128.836624 688.467285,127.700798 692.037048,127.809845 
	C695.113281,127.903824 697.343323,129.445160 698.459961,132.433655 
	C699.816467,136.064056 697.857361,138.345505 695.410217,140.608444 
	C693.386292,142.480026 691.003784,144.351242 692.688782,147.773590 
	C693.283264,148.981033 692.668518,150.030884 691.532837,150.692764 
	C690.736084,151.157120 689.919495,151.033127 689.215332,150.497116 
	C688.222046,149.740997 687.587463,148.730942 688.126038,147.483032 
	C689.735535,143.753738 688.108093,138.734436 692.774963,136.174347 
	C693.840149,135.590042 693.995911,134.112122 692.896362,133.167984 
	C691.383301,131.868805 690.195496,132.607239 689.195923,134.024429 
	C687.096130,137.001633 685.245056,137.852112 684.195251,132.992935 
z"/>
<path fill="#000000" opacity="1.000000" stroke="none" 
	d="
M726.855225,231.206558 
	C728.270813,229.747498 729.544189,228.672058 730.689087,227.473907 
	C732.011597,226.089920 732.481323,224.423050 730.622864,223.248520 
	C728.914429,222.168747 727.831543,223.284698 727.331726,224.977371 
	C726.867615,226.549271 726.104126,228.037125 724.239685,227.272049 
	C722.085754,226.388168 722.271790,224.305695 722.856262,222.523529 
	C723.789978,219.676361 726.147644,218.246048 728.929688,218.040695 
	C732.337769,217.789108 735.139893,219.313354 736.709290,222.437439 
	C737.997375,225.001495 738.021179,227.675034 735.817688,229.824432 
	C733.690491,231.899338 731.045837,233.417435 729.458191,236.085022 
	C728.932922,236.967712 727.774048,237.380280 726.863770,236.548660 
	C725.180542,235.010971 725.775330,233.249619 726.855225,231.206558 
z"/>
<path fill="#000000" opacity="1.000000" stroke="none" 
	d="
M733.298401,207.083496 
	C732.522522,202.866928 736.949158,201.638550 737.779663,198.553787 
	C737.268921,198.266327 736.971680,197.949295 736.721619,197.982971 
	C735.268677,198.178574 734.147766,200.709076 732.423645,198.743698 
	C731.239624,197.393997 732.096558,195.952789 732.719971,194.572662 
	C733.652588,192.508484 735.130310,192.168167 737.205566,192.727600 
	C742.397156,194.127167 744.258362,199.906967 740.437805,203.562454 
	C738.025146,205.870911 735.487549,207.793625 735.820190,211.711517 
	C735.933838,213.050156 734.549438,214.169647 732.994507,213.727005 
	C731.380188,213.267456 731.244141,211.832047 731.748840,210.462448 
	C732.141296,209.397156 732.794983,208.428116 733.298401,207.083496 
z"/>
<path fill="#000000" opacity="1.000000" stroke="none" 
	d="
M713.673279,245.642014 
	C711.340576,246.690979 710.877686,251.468170 707.920898,249.121445 
	C705.139954,246.914215 708.094849,244.862946 709.775879,243.123627 
	C710.663574,242.205200 711.065491,241.199188 709.869080,240.165680 
	C707.546204,239.655762 707.497925,242.808136 705.135376,242.867508 
	C703.036987,241.441864 703.222168,239.416443 704.814331,237.687286 
	C707.129456,235.172989 710.118652,234.940262 712.898560,236.846115 
	C716.310242,239.185135 716.242126,242.220718 713.673279,245.642014 
z"/>
<path fill="#000000" opacity="1.000000" stroke="none" 
	d="
M702.109924,165.296341 
	C699.328918,164.589706 697.450378,163.164627 697.290527,160.641266 
	C697.174622,158.811218 698.821350,157.875336 700.542908,157.506653 
	C703.449341,156.884216 706.258850,157.770599 707.073486,160.466751 
	C708.063354,163.742798 705.402222,164.963272 702.109924,165.296341 
z"/>
<path fill="#000000" opacity="1.000000" stroke="none" 
	d="
M689.880127,246.470169 
	C690.385498,243.465424 692.188904,242.962128 694.315308,243.938705 
	C696.300049,244.850250 696.914307,246.825577 695.516052,248.493591 
	C693.850586,250.480270 695.127014,253.397369 692.772949,255.723892 
	C691.744080,252.411148 691.785767,249.255936 689.880127,246.470169 
z"/>
<path fill="#000000" opacity="1.000000" stroke="none" 
	d="
M613.166870,197.920654 
	C612.186401,199.284668 611.441101,200.419388 609.435120,199.780930 
	C609.805847,197.849670 606.725037,196.143204 609.073425,193.881149 
	C610.070496,192.920807 611.399231,192.733551 612.694458,193.464783 
	C614.627014,194.555817 614.318420,196.025040 613.166870,197.920654 
z"/>
<path fill="#000000" opacity="1.000000" stroke="none" 
	d="
M726.353027,238.450348 
	C729.167969,238.498428 729.944275,239.844711 728.954956,242.027710 
	C728.407837,243.235153 727.031372,243.646393 725.977417,242.900269 
	C724.096680,241.568893 723.940674,239.970383 726.353027,238.450348 
z"/>
</svg>