<svg version="1.1" id="Layer_1" xmlns="http://www.w3.org/2000/svg" xmlns:xlink="http://www.w3.org/1999/xlink" x="0px" y="0px"
	 width="100%" viewBox="0 0 1024 1024" enable-background="new 0 0 1024 1024" xml:space="preserve">
<path fill="#000000" opacity="1.000000" stroke="none" 
	d="
M600.353394,386.324097 
	C594.455444,390.080139 592.501160,395.140686 591.635864,401.758209 
	C589.699951,416.563660 583.579590,429.852722 573.764343,441.251251 
	C571.756287,443.583221 571.740295,445.421570 572.935608,448.342255 
	C575.000488,453.387726 576.700378,458.376129 580.412781,462.680359 
	C583.409668,466.155121 584.202087,470.816925 582.724854,475.445282 
	C582.088867,477.437958 582.559326,479.002319 583.812561,480.522705 
	C597.826050,497.523315 603.507751,518.031494 608.311707,538.893555 
	C610.968140,550.429565 612.424500,562.161316 612.971252,573.958374 
	C613.583496,587.166382 612.530823,600.237732 607.655151,612.744629 
	C603.927673,622.306274 597.551331,629.153442 587.532410,632.066284 
	C584.437012,632.966248 583.390808,634.065613 583.907166,637.640686 
	C584.864990,644.270996 586.722290,650.637207 588.467834,657.034912 
	C590.396240,664.102783 589.596191,670.666321 585.329041,676.520935 
	C582.663574,680.177979 582.065369,683.986328 582.468262,688.271973 
	C583.250549,696.593933 582.444946,704.132019 572.557922,706.812073 
	C570.325806,707.417114 570.232849,709.387390 570.078369,711.237854 
	C569.151184,722.343750 568.245789,733.451599 567.299500,744.555908 
	C565.420898,766.600708 563.515991,788.643311 561.630493,810.687500 
	C560.184570,827.592896 558.750122,844.499329 557.316406,861.405701 
	C557.203796,862.733459 557.200928,864.072998 557.037659,865.393494 
	C555.941223,874.258850 555.949524,874.225891 563.899597,878.720276 
	C571.582214,883.063416 579.426392,887.144592 586.546753,892.419189 
	C587.216248,892.915039 587.924194,893.368530 588.543274,893.921265 
	C591.811584,896.839111 595.600891,899.899231 593.992859,904.807617 
	C592.352966,909.812927 587.225037,909.923950 583.035034,910.109863 
	C570.313965,910.674072 557.861694,908.300415 545.455811,905.807434 
	C540.234192,904.758179 535.040161,903.615173 530.114807,901.466309 
	C526.493164,899.886169 524.689026,897.209167 524.676819,893.304688 
	C524.667480,890.305664 524.595703,887.298889 524.776611,884.309204 
	C525.028748,880.142029 525.605286,876.590088 522.675598,872.308838 
	C520.216675,868.715515 521.071472,862.689697 520.895325,857.725342 
	C519.619934,821.785767 516.564941,785.952087 514.578796,750.055298 
	C514.220642,743.582397 513.454773,737.133057 512.968079,730.665955 
	C512.761475,727.921814 511.282715,726.949585 508.716400,726.924805 
	C503.390137,726.873413 498.060486,726.823425 492.740845,726.582703 
	C490.020752,726.459656 489.364502,727.757446 489.203918,730.156799 
	C488.303864,743.606018 487.153656,757.039551 486.352051,770.494080 
	C484.629730,799.401489 483.051483,828.317444 481.460144,857.232483 
	C481.249695,861.056335 481.290924,864.894836 481.246429,868.726868 
	C481.220673,870.944824 481.061951,873.174561 479.148895,874.621399 
	C476.987061,876.256165 477.371307,878.227173 477.786072,880.453186 
	C481.111694,898.302368 479.175079,901.251343 461.505890,905.250488 
	C448.669403,908.155884 435.774414,910.643005 422.511871,910.357544 
	C419.832092,910.299805 417.201477,910.085449 414.611267,909.365356 
	C408.507141,907.668457 406.871307,903.061584 410.764282,898.014771 
	C414.293640,893.439270 419.190918,890.461304 424.050140,887.571594 
	C431.770172,882.980713 439.642365,878.645630 447.400360,874.230652 
	C444.119568,851.241760 442.826630,828.041992 440.616272,804.932434 
	C438.414917,781.917664 436.097412,758.914124 433.862579,735.902527 
	C433.075287,727.796143 432.360260,719.682434 431.660492,711.567993 
	C431.484100,709.522766 431.239075,707.866638 428.998749,706.715027 
	C420.049347,702.114685 417.593567,697.794006 419.126495,688.020081 
	C419.806854,683.682373 419.075897,680.343872 416.477203,676.916626 
	C411.619965,670.510681 410.559692,663.395630 413.064972,655.648743 
	C415.164612,649.156311 416.448639,642.449707 417.354767,635.680298 
	C417.552216,634.205322 417.918182,632.728943 416.965393,630.952698 
	C413.077484,630.841980 409.011475,631.657166 404.922638,630.715088 
	C388.403870,626.909424 377.248077,612.484192 376.666534,594.033508 
	C375.973297,572.040833 381.404877,551.146301 388.134949,530.525269 
	C393.947021,512.717041 401.048157,495.497681 413.459229,481.037964 
	C414.657898,479.641388 414.951111,478.122314 414.541229,476.389435 
	C412.905945,469.475494 415.542084,464.012512 420.407776,459.351471 
	C425.593597,454.383759 425.870178,448.781769 421.131592,443.728851 
	C414.833771,437.013367 409.352173,429.693268 404.933716,421.605957 
	C403.934265,419.776672 402.983459,418.273529 400.483154,418.319397 
	C387.858063,418.550964 375.464783,406.657471 372.704834,391.223480 
	C371.261688,383.153320 372.609467,375.636536 377.697235,369.048492 
	C378.952820,367.422668 379.380829,366.100555 378.418915,364.109192 
	C374.398560,355.786591 372.475464,346.870270 371.464630,337.717743 
	C371.070770,337.837402 370.627289,337.836792 370.523102,338.024536 
	C369.363861,340.112488 369.026123,343.496277 365.786957,342.921051 
	C362.412964,342.321899 362.799774,339.000488 362.638733,336.382965 
	C362.153778,328.501190 363.571716,320.898956 365.892426,313.237061 
	C363.459198,315.440216 361.093719,317.725433 358.565491,319.813568 
	C357.205292,320.937012 355.658417,322.438385 353.674286,321.156494 
	C351.931610,320.030579 351.781097,318.087067 351.948151,316.225067 
	C352.534576,309.687897 354.458313,303.511322 357.155945,297.556183 
	C360.268280,290.685608 364.986938,284.886108 370.246216,278.604553 
	C364.749146,279.407135 360.281036,281.098724 355.723419,282.460815 
	C353.267792,283.194733 350.395844,285.172180 348.316620,282.592072 
	C346.155151,279.909973 348.317230,277.153107 349.800659,274.823029 
	C358.358551,261.381073 370.194031,251.664337 384.467560,244.812408 
	C387.761230,243.231308 391.156891,241.862656 395.358948,240.022568 
	C388.816895,238.071960 382.841156,237.734833 376.876770,237.261063 
	C374.011108,237.033432 370.083923,237.941238 369.207642,234.267181 
	C368.441345,231.054153 371.954987,229.608841 374.253876,228.151352 
	C394.670441,215.207062 416.949615,210.048294 440.994171,212.458832 
	C442.795105,212.639389 444.601776,213.133621 446.452423,212.487305 
	C446.678986,210.679184 445.123016,210.274658 444.108917,209.645126 
	C439.440125,206.746796 434.682831,203.991562 429.993439,201.125809 
	C428.317688,200.101730 426.205902,199.188858 426.634094,196.685181 
	C427.062775,194.178513 429.301178,193.987595 431.266052,193.691711 
	C445.295593,191.579086 459.132629,192.436295 472.788208,196.350494 
	C483.234009,199.344635 492.818878,204.219772 502.814423,210.239136 
	C500.632385,203.533020 496.523285,198.906128 493.482788,193.686401 
	C492.307953,191.669479 489.567627,189.687958 491.793457,187.104904 
	C493.832581,184.738556 496.575317,186.381088 498.784149,187.197235 
	C512.879211,192.405060 524.183411,201.591080 534.278137,212.463837 
	C535.363525,213.632874 536.047119,215.299301 538.207275,215.841858 
	C538.959351,210.649994 538.923950,205.597839 538.117065,200.514999 
	C537.811218,198.587952 537.098022,196.312637 539.367798,195.133362 
	C541.487976,194.031860 543.235474,195.489426 544.730835,196.804184 
	C552.255554,203.420044 556.254944,212.144394 559.317627,221.422745 
	C559.926331,223.266937 559.884521,225.361633 561.543701,227.280334 
	C566.848877,223.863846 572.222534,220.558792 578.580688,219.519836 
	C581.054932,219.115555 583.768311,218.211609 585.340149,220.930115 
	C586.720032,223.316605 584.456482,224.900116 583.259888,226.597778 
	C579.618164,231.764496 576.170715,237.019180 574.557129,242.926361 
	C575.537964,244.763336 576.997314,244.507324 578.267334,244.780579 
	C588.027527,246.880753 596.348022,251.471481 602.677551,259.293915 
	C604.086914,261.035736 606.065918,263.041992 604.733337,265.535645 
	C603.209595,268.386810 600.624634,266.698181 598.454102,266.343658 
	C595.431946,265.849915 592.426941,265.251251 588.316467,264.495636 
	C594.085632,270.421021 598.949280,275.594086 601.934143,282.245911 
	C604.146545,287.176178 605.373108,292.311371 606.134888,297.586090 
	C606.424194,299.589478 606.209045,301.795532 604.100769,302.813019 
	C602.019531,303.817474 600.647034,302.092499 599.434937,300.801361 
	C597.851685,299.114899 596.503784,297.207367 594.296387,295.804504 
	C595.612488,309.774170 595.077637,323.175568 591.646545,336.807526 
	C601.871826,339.947632 606.498352,347.407013 608.430908,357.232452 
	C610.592712,368.224121 607.413086,377.591217 600.353394,386.324097 
M435.604370,286.126190 
	C432.890839,284.301178 428.898315,283.954742 427.681458,278.524384 
	C446.057251,283.006012 463.644440,288.244324 482.922150,286.397339 
	C465.241272,278.251831 461.652924,275.745117 461.142578,270.598724 
	C479.840820,277.071289 497.490784,286.918152 519.009338,284.701263 
	C509.670197,280.396942 500.788055,277.240204 494.270782,269.787506 
	C497.150818,267.679047 498.892700,269.259186 500.586304,269.971405 
	C512.728882,275.077759 524.952209,279.891815 538.017273,282.181091 
	C540.869568,282.680878 543.634583,282.865570 547.048645,282.266907 
	C541.221375,277.891205 534.626404,276.027527 529.904968,270.990936 
	C532.395325,269.006866 534.298889,269.846039 536.167847,270.365234 
	C550.408447,274.321381 562.787415,281.894684 573.896362,291.273651 
	C577.177307,294.043640 586.161194,296.160919 579.515442,304.024719 
	C581.610779,309.971161 583.706116,315.917603 585.951965,322.291138 
	C588.139160,320.033813 587.642212,318.102203 587.670898,316.336975 
	C587.803406,308.176819 587.805603,300.034302 586.746521,291.897217 
	C586.094788,286.889343 587.786072,285.941376 592.481323,287.959351 
	C594.023071,288.621948 595.259644,290.192780 597.613098,289.974426 
	C593.897705,280.519287 588.134949,273.146729 580.672363,267.008698 
	C579.260803,265.847748 577.552551,264.650299 578.166992,262.523529 
	C578.745300,260.521698 580.649780,260.044403 582.507019,259.668610 
	C585.825623,258.997131 589.182495,258.826141 592.623352,259.020447 
	C587.157043,254.403442 580.874756,251.953171 574.287048,250.049011 
	C568.153320,248.276031 567.527222,246.916626 569.172424,240.672211 
	C570.482300,235.700439 572.975647,231.269638 576.076355,226.495560 
	C571.984009,227.702103 568.845093,229.383316 566.362488,231.744461 
	C559.190674,238.565262 556.780762,237.860413 554.320801,227.761368 
	C552.557007,220.520325 549.315186,213.692596 544.603333,206.639786 
	C544.270752,210.589081 544.251831,213.441437 543.739868,216.202362 
	C543.148193,219.393036 543.220398,223.460358 539.417542,224.582169 
	C535.704895,225.677368 534.023499,221.969101 531.911499,219.793671 
	C523.343994,210.969254 514.232056,202.877502 502.477570,196.717178 
	C505.329773,202.059143 507.864166,206.543503 508.865753,211.668320 
	C509.296234,213.870880 509.604065,216.066940 507.502106,217.586319 
	C505.550201,218.997284 503.653717,217.945236 501.879730,217.028076 
	C494.773834,213.354279 487.627136,209.770432 480.143280,206.913971 
	C467.969482,202.267441 455.441467,199.545166 441.526611,199.641663 
	C447.105347,203.864487 452.430817,207.069107 456.285980,211.943619 
	C457.806732,213.866531 459.920776,216.059250 458.831238,218.620468 
	C457.566711,221.592987 454.402893,220.440979 452.111969,220.190857 
	C440.972260,218.974594 429.872498,218.854050 418.739777,220.280563 
	C406.161041,221.892349 394.142090,225.229904 381.838562,231.315506 
	C389.992096,232.145569 397.045959,233.093384 403.609955,236.046829 
	C405.669434,236.973495 408.359406,237.738495 408.091156,240.703613 
	C407.847107,243.401169 405.182800,243.617355 403.221588,244.314453 
	C392.150848,248.249512 381.777374,253.481949 372.569244,260.836334 
	C367.349091,265.005585 362.789948,269.850769 357.773560,275.333130 
	C362.833862,274.311310 366.871246,273.329224 370.964417,272.725128 
	C373.945557,272.285156 377.717133,270.538696 379.563660,274.207733 
	C381.386139,277.829010 377.684052,279.827637 375.727966,282.092773 
	C368.615784,290.328705 363.010590,299.367645 359.432037,310.878937 
	C362.816345,308.564209 365.195770,306.780701 367.730591,305.255310 
	C369.567078,304.150177 371.655640,302.962311 373.763336,304.594849 
	C376.166626,306.456329 375.111877,308.781525 374.226074,310.960602 
	C372.102203,316.185242 369.924713,321.388794 369.304443,327.559265 
	C371.468994,326.304413 372.526337,323.104065 375.218750,324.501465 
	C377.691528,325.784790 377.045776,328.532928 377.304749,330.794159 
	C378.387207,340.245148 380.399323,349.475739 383.545959,358.474426 
	C384.668884,361.685730 386.142212,363.175171 389.766571,361.991333 
	C391.949677,361.278229 394.366638,361.616455 396.691772,362.114441 
	C402.613678,363.382721 403.481537,362.382996 401.926270,356.312134 
	C401.719696,355.505768 401.605316,354.675049 401.383850,353.873352 
	C398.470001,343.326233 397.067047,333.228882 406.358368,324.527802 
	C409.837891,321.269348 411.556885,316.393860 413.321991,311.904968 
	C414.681915,308.446533 416.441772,304.986633 416.272705,301.188751 
	C412.631195,299.200012 407.660248,300.677856 404.621643,295.098633 
	C420.220673,294.592316 435.212646,296.542511 449.921204,291.108063 
	C445.004547,289.410034 440.659393,287.909363 435.604370,286.126190 
M520.006653,551.762939 
	C520.857727,550.562317 522.427124,549.798523 522.524231,548.146851 
	C523.192688,536.781311 521.676758,525.729675 518.084900,514.763916 
	C512.073059,516.040283 506.784027,517.164673 503.218048,522.483276 
	C500.913879,525.919861 497.159821,528.136963 493.411926,530.054443 
	C492.252838,530.647461 490.571716,531.061523 490.748535,532.662292 
	C491.343292,538.047302 488.284515,542.195984 486.291473,546.709229 
	C485.748474,547.938965 485.322235,549.043274 485.738464,550.506714 
	C488.135315,558.933289 487.424683,560.085083 478.639008,562.433105 
	C479.231628,564.603149 480.474670,565.101685 482.702820,564.849976 
	C486.673431,564.401428 490.633270,564.837952 494.625366,565.417908 
	C514.201660,568.261963 533.817017,570.835571 553.402222,573.620178 
	C557.972290,574.269897 559.390320,572.572144 559.852478,568.020325 
	C561.035461,556.369690 560.424744,544.724731 560.655151,533.079834 
	C560.693054,531.163574 559.741028,528.731934 562.144836,527.369080 
	C563.912964,528.246582 564.047180,529.772034 564.286987,531.249573 
	C565.913513,541.271362 567.182129,551.333191 567.301636,561.500061 
	C567.408508,570.594482 566.484009,569.666748 575.186829,569.701355 
	C578.081787,569.712830 581.101013,569.647156 583.291992,573.240845 
	C578.331909,575.103821 573.211060,573.112793 568.314209,575.010742 
	C573.553223,577.006226 579.671997,576.052002 582.965027,581.225647 
	C581.699890,583.333801 580.104370,583.115051 578.644653,583.001709 
	C569.356934,582.280396 560.068298,581.561768 550.789978,580.730042 
	C538.205566,579.601807 525.620972,578.456543 513.147644,576.356445 
	C510.061340,575.836853 507.666565,576.474487 506.390625,579.838196 
	C502.211121,590.856140 499.757935,602.067078 501.047119,613.976990 
	C501.442871,617.633118 502.943481,619.112183 506.403442,619.870667 
	C518.446350,622.510498 530.614807,624.342896 542.859558,625.537659 
	C553.950317,626.619873 565.066406,627.359741 576.230774,625.742615 
	C586.600037,624.240723 595.100830,620.351379 599.263794,609.979736 
	C601.825378,603.597717 603.209229,596.901062 603.620483,590.085449 
	C605.080200,565.895996 601.721497,542.276062 594.550720,519.187317 
	C591.084473,508.026184 586.712646,497.235077 580.171692,487.444336 
	C578.531250,484.988831 577.142273,483.453186 573.873291,485.884094 
	C561.010254,495.449402 546.394897,501.371033 531.033813,505.589325 
	C529.344788,506.053131 527.557861,507.009399 525.886475,504.830475 
	C526.497498,502.423248 528.782532,501.945923 530.610718,501.018982 
	C541.892517,495.298859 553.604553,490.395721 564.213013,483.399200 
	C567.551147,481.197601 570.896179,478.922180 573.328125,475.688538 
	C575.691895,472.545380 575.187500,469.202545 573.654114,465.772583 
	C572.218506,462.561493 569.914612,465.607574 568.158508,464.918030 
	C566.589966,460.263367 569.514587,454.756500 565.032837,450.382507 
	C557.384216,456.557678 549.090576,461.403564 540.285156,465.378632 
	C539.848755,465.575653 539.410461,465.920837 539.140869,466.312500 
	C534.375427,473.236481 527.934753,478.606476 522.172119,484.601776 
	C520.231567,486.620728 519.934875,488.280701 521.939331,490.599670 
	C526.188354,495.515533 526.439087,501.140137 523.858948,506.927002 
	C523.098206,508.633362 522.396301,510.075745 523.216125,512.077393 
	C527.691956,523.005615 529.526489,534.434082 529.308594,546.216309 
	C529.277710,547.887329 529.315491,549.506775 530.569214,550.893555 
	C533.277954,553.889832 533.773254,557.225525 530.949463,560.294556 
	C528.540527,562.912659 525.209839,563.214417 522.234070,561.491089 
	C518.744690,559.470337 517.818420,556.254456 520.006653,551.762939 
M383.630737,397.740234 
	C387.072998,403.234222 391.390625,407.493744 397.743927,409.799133 
	C404.262909,412.164642 409.762238,408.402405 415.538788,406.806458 
	C416.256042,409.606812 415.503174,411.294678 414.295441,412.301086 
	C411.060577,414.996704 411.926300,417.479767 413.852570,420.464355 
	C421.920319,432.964539 431.829590,443.570709 444.626862,451.353973 
	C446.600830,452.554535 447.960144,452.852905 449.766235,450.894318 
	C452.472595,447.959564 456.026428,447.541412 459.891846,448.401001 
	C465.637848,449.678772 469.055450,453.433167 471.487396,458.483734 
	C473.695923,463.070251 475.098175,463.322693 478.768097,459.733337 
	C482.714691,455.873413 486.967224,452.385162 491.501251,449.277466 
	C498.853821,444.237885 506.788818,440.496002 515.726807,439.172974 
	C518.254211,438.798828 520.696777,438.951050 523.146240,439.600739 
	C530.170654,441.464111 532.143188,447.897034 527.469421,453.458344 
	C524.423828,457.082275 519.685425,458.600739 516.019409,462.437927 
	C565.412598,453.614716 588.236084,414.492188 583.907349,375.032166 
	C556.134583,382.846100 553.335144,383.128387 527.186768,380.751221 
	C521.513489,392.957947 511.456390,397.809875 505.779510,390.308655 
	C509.904358,389.549805 513.766357,388.577240 516.788635,385.829681 
	C520.933533,382.061646 520.512939,379.477844 515.393860,377.344330 
	C508.830780,374.609039 505.538971,365.326294 509.417206,359.318756 
	C512.373596,364.091583 512.379578,371.087036 520.058167,372.696838 
	C518.898804,369.056427 517.865234,365.953979 516.923035,362.824036 
	C514.743896,355.584595 514.656006,355.507690 506.893768,356.049652 
	C496.300934,356.789246 495.383362,357.741150 495.341461,368.034729 
	C495.284180,382.110229 491.219452,387.412476 477.636902,391.294525 
	C467.824554,394.099030 457.765717,395.522217 447.636719,396.144989 
	C428.564453,397.317566 421.417999,392.202545 415.660126,374.008148 
	C415.248901,372.708740 415.320740,371.112549 413.768738,370.211700 
	C412.776154,372.494202 414.335358,374.249420 414.480621,376.191406 
	C414.613068,377.961365 414.626373,379.525299 412.863922,380.526611 
	C411.013641,381.577789 409.698578,380.579102 408.444031,379.383667 
	C406.394989,377.431183 404.507812,375.275970 402.293365,373.535889 
	C394.390167,367.325562 384.739563,370.247620 381.391357,379.676086 
	C379.210541,385.817291 380.825409,391.471649 383.630737,397.740234 
M481.436218,624.297241 
	C476.775726,624.244446 472.114838,624.214172 467.454834,624.133789 
	C459.873352,624.002869 459.947662,624.007263 458.125854,631.417786 
	C455.396484,642.520203 451.891205,653.482605 442.958008,661.165649 
	C438.844513,664.703430 438.347839,667.896240 439.898376,672.333679 
	C440.336823,673.588379 440.861420,674.844604 441.065125,676.144226 
	C441.919495,681.595459 445.278290,683.696350 450.535370,684.580078 
	C483.494690,690.120605 516.407776,690.132996 549.309937,684.300781 
	C559.854919,682.431580 559.855713,682.337341 562.112915,671.871765 
	C562.460938,670.257690 562.574280,668.591064 562.760620,666.944641 
	C562.964111,665.145813 562.312317,663.700195 560.902405,662.563293 
	C553.109558,656.279541 548.445618,647.937134 545.338562,638.623413 
	C544.395203,635.795654 542.950439,634.482361 539.716858,634.122803 
	C529.819092,633.022339 519.992249,631.363159 510.170227,629.634644 
	C500.884033,628.000427 492.173340,623.355774 481.436218,624.297241 
M469.092224,559.723938 
	C469.802246,558.126770 471.478729,556.881531 470.859283,554.463318 
	C458.021851,549.693420 447.183960,541.688599 438.185028,530.550598 
	C424.018066,548.305115 411.330933,565.934875 394.809509,580.237549 
	C395.009827,572.935425 399.906586,568.148438 403.380890,562.142883 
	C395.812286,555.746094 400.684662,547.776306 402.632721,541.456848 
	C404.125946,536.612976 408.667480,531.704956 412.317261,527.265564 
	C415.245270,523.704041 420.247528,523.484253 424.866089,523.559448 
	C426.568054,523.587158 428.934021,524.371033 429.553467,521.921082 
	C430.548157,517.987061 432.617828,517.685059 435.369720,519.853394 
	C441.149994,514.333191 443.027374,505.431000 452.469238,502.922577 
	C441.445160,497.228760 429.903442,492.443237 420.340576,484.236938 
	C416.356140,487.964081 413.854980,492.092621 411.579803,496.303802 
	C397.157898,522.997620 388.861847,551.623779 385.488586,581.665283 
	C384.484985,590.603027 384.794006,599.642029 389.161133,608.015442 
	C396.703918,622.477722 410.927551,626.684265 424.909058,618.466187 
	C430.739624,615.039062 435.447083,610.324707 439.691803,605.157349 
	C451.059753,591.318298 459.641571,575.661926 469.092224,559.723938 
M557.915405,287.842102 
	C556.252441,286.833984 554.902954,285.565918 552.507935,286.759430 
	C547.926941,289.042236 542.964111,289.181732 537.875488,288.611481 
	C534.935608,288.282013 531.856079,286.429779 529.066589,287.767944 
	C518.199219,292.981079 507.049042,291.872345 495.801910,289.831482 
	C494.620422,289.617065 493.538788,289.473114 492.406830,290.004913 
	C483.263245,294.300598 473.572968,293.515533 463.930176,292.948700 
	C462.253754,292.850189 460.779419,292.619873 459.160980,293.552643 
	C449.389618,299.184296 438.726318,301.589783 427.552307,301.229889 
	C423.053070,301.084991 421.837769,303.030609 421.375366,306.926208 
	C420.132965,317.393463 415.423615,326.221710 408.077209,333.704437 
	C406.928772,334.874237 405.244232,335.876312 405.411560,337.735779 
	C406.046173,344.788849 407.135498,351.756073 409.749268,358.295227 
	C412.457397,357.973694 412.280151,356.613098 412.151917,354.951050 
	C411.534393,346.947021 412.854584,344.591492 420.024841,341.312317 
	C423.191742,339.863983 426.489227,338.619263 429.836884,337.666870 
	C435.115601,336.165131 440.486694,334.987946 445.801971,333.677490 
	C441.117218,331.756287 435.586029,332.840088 430.495972,328.193542 
	C436.253082,327.612610 440.798157,327.202820 445.331177,326.687042 
	C457.124939,325.345032 468.911499,323.995026 478.132050,315.221100 
	C480.738220,312.741211 482.527740,314.153381 483.072662,316.973022 
	C483.979034,321.662872 482.308868,325.501740 478.178741,328.087585 
	C476.629364,329.057648 474.996674,329.894653 473.401978,330.792297 
	C486.313232,330.481934 493.455292,336.066681 493.975159,349.195404 
	C499.661255,347.405792 504.508545,346.227539 509.544037,346.659119 
	C512.937317,346.950012 514.042603,345.369598 513.713440,342.221588 
	C513.575500,340.902252 513.803040,339.542389 513.641846,338.228241 
	C512.960510,332.673523 515.507568,329.398132 520.675415,327.749146 
	C524.428223,326.551697 528.122986,325.172180 532.682129,323.581238 
	C530.224670,323.447540 528.625671,323.451385 527.050659,323.258698 
	C521.130432,322.534485 516.983643,319.130829 516.224548,314.459167 
	C515.622559,310.754608 517.152771,309.430908 520.618225,310.670197 
	C522.495911,311.341644 524.322998,312.205139 526.246582,312.689056 
	C536.262695,315.208923 546.045044,313.390076 555.827332,311.080841 
	C557.852295,310.602814 560.036743,308.959442 563.099976,311.299103 
	C557.894592,316.121674 551.668152,318.367920 544.625793,321.732910 
	C556.033936,320.312927 566.091370,319.938141 577.392517,320.569214 
	C572.512756,308.101410 572.668701,294.165375 557.915405,287.842102 
M467.832458,468.542816 
	C464.762238,457.983398 461.365997,454.430725 454.949982,455.069061 
	C454.089203,456.219025 454.667969,457.354126 455.153625,458.358337 
	C458.859100,466.020325 458.811981,474.167236 458.170013,482.338806 
	C457.471527,491.230133 458.796204,499.924072 460.148468,508.645111 
	C460.438721,510.516937 461.482422,511.644897 462.859467,512.607605 
	C468.590027,516.613892 474.325073,520.603882 480.402130,524.096985 
	C482.847778,525.502869 484.882874,525.412659 487.404999,524.312622 
	C495.578430,520.747742 501.226868,514.686646 505.489380,507.059357 
	C507.026886,504.308228 508.785004,501.603241 512.508545,502.611450 
	C514.215881,505.150757 511.281982,506.862762 511.966797,509.023743 
	C516.541565,507.494873 519.487122,503.093323 518.780212,498.459259 
	C518.065552,493.773834 514.620178,492.537231 510.438660,492.227539 
	C508.464783,492.081390 506.052368,493.240936 504.530212,490.696716 
	C505.233948,488.501556 507.274475,488.528076 508.930359,487.972015 
	C510.590454,487.414581 512.657166,488.327332 514.015869,486.631989 
	C511.906281,482.169403 508.586243,480.831024 501.417786,481.583862 
	C499.969818,481.735931 498.143738,482.620941 497.587463,480.610565 
	C496.970825,478.381927 499.131866,478.178131 500.560150,477.404755 
	C502.704437,476.243774 505.570374,477.552399 507.662598,475.267426 
	C505.013489,470.568146 500.673981,470.673248 496.368439,470.794861 
	C494.788666,470.839447 492.706299,471.943176 492.107147,469.698761 
	C491.563782,467.663422 493.745453,467.120880 495.114380,466.278534 
	C503.334778,461.220215 511.565155,456.178101 519.775269,451.103149 
	C521.286377,450.169098 523.145630,449.486664 523.248413,447.134369 
	C521.470398,444.632202 518.840088,445.111511 516.494995,445.661835 
	C513.272583,446.418030 510.059937,447.414490 507.022186,448.723572 
	C494.721619,454.024597 484.647125,462.364929 475.514587,472.010864 
	C473.612366,474.020081 471.996704,476.871674 468.417786,476.727905 
	C467.382477,474.134125 469.603485,471.613220 467.832458,468.542816 
M541.907715,691.523499 
	C503.666321,697.715820 465.868713,695.659973 428.671051,684.918457 
	C425.802582,693.969910 427.668091,698.003479 435.922058,700.468140 
	C451.938385,705.250671 468.396057,707.256226 485.048523,708.164856 
	C512.292664,709.651428 539.212341,708.064270 565.538330,700.345276 
	C574.060303,697.846619 576.442566,693.057190 573.736816,684.165833 
	C563.555786,687.152893 553.348877,690.084778 541.907715,691.523499 
M485.726837,374.969727 
	C487.919861,364.455139 486.040253,354.157959 484.130829,343.848511 
	C483.577087,340.858582 481.651520,340.370209 479.064636,340.312317 
	C471.734802,340.148407 464.422882,340.342316 457.163361,341.361298 
	C446.439697,342.866547 435.924316,345.265076 425.837982,349.301941 
	C423.320068,350.309631 420.910919,351.390381 421.277557,354.909332 
	C422.194000,363.705139 423.495453,372.404999 427.756500,380.317139 
	C429.861023,384.224884 433.182068,386.513428 437.760162,386.760620 
	C451.857330,387.521729 465.616211,385.660126 479.056488,381.411346 
	C481.994568,380.482574 484.533051,378.942627 485.726837,374.969727 
M573.863586,369.438232 
	C582.475220,366.136932 584.585571,363.030304 584.676086,353.728027 
	C584.737793,347.382904 583.560608,341.165680 582.964844,334.889435 
	C582.590027,330.940186 580.524109,329.733063 577.200256,329.539612 
	C559.441711,328.506104 542.017761,330.591339 524.872620,335.234894 
	C522.885132,335.773193 521.726196,336.666260 521.918518,339.057983 
	C522.666443,348.358185 523.793701,357.551697 527.117859,366.374268 
	C528.984558,371.328644 532.239807,373.792206 537.605225,373.952423 
	C549.673279,374.312836 561.509460,373.037384 573.863586,369.438232 
M435.420685,660.079712 
	C439.858490,656.215942 443.475708,651.709167 446.389893,646.583374 
	C450.380615,639.564148 452.747772,631.950806 454.828339,624.231384 
	C455.677490,621.080872 457.294617,619.495544 460.783844,619.517029 
	C464.560699,619.540344 468.341248,618.966248 472.295197,618.638184 
	C471.207214,616.884033 469.843597,615.477356 469.412750,613.827087 
	C468.494781,610.311157 466.490143,609.148682 462.957855,609.074707 
	C459.988556,609.012634 457.054047,607.822144 454.570435,606.115051 
	C452.136719,604.442261 450.520966,604.810303 448.676483,607.036926 
	C445.706360,610.622559 443.032959,614.940125 439.206818,617.237305 
	C428.657501,623.571289 423.985718,632.483154 424.465790,644.540833 
	C424.543396,646.490540 423.903778,648.476196 423.538116,650.434509 
	C422.776031,654.515808 421.557220,658.561340 421.276642,662.672791 
	C420.670380,671.558105 427.702362,679.827332 436.339203,680.596619 
	C435.535370,677.501404 434.306946,674.529114 434.091339,671.485168 
	C433.835754,667.876648 431.460358,663.957397 435.420685,660.079712 
M480.594055,579.161987 
	C476.864960,587.886475 475.662903,597.004028 476.252655,606.424866 
	C476.383301,608.511292 476.582733,610.483215 478.766754,611.409912 
	C483.907166,613.591125 489.027313,615.880676 495.190338,616.250183 
	C494.380005,609.182495 494.667480,602.435425 495.825195,595.741516 
	C497.012482,588.876587 499.281464,582.340637 502.519073,575.746643 
	C498.583679,574.203125 494.721436,574.118591 491.150452,573.074646 
	C485.613159,571.456116 482.647369,573.492188 480.594055,579.161987 
M478.430237,532.042358 
	C468.610077,526.482544 459.517639,519.882446 451.029236,512.246887 
	C447.347412,515.706604 445.903839,520.114929 443.151367,523.588501 
	C441.406189,525.790894 442.039185,527.385742 443.762238,529.197632 
	C449.409607,535.136230 455.524231,540.484375 462.850861,544.247192 
	C477.381714,551.709778 473.082367,551.565186 480.835175,539.040894 
	C482.778809,535.901062 482.358887,533.872864 478.430237,532.042358 
M580.659424,664.285400 
	C579.462708,655.221191 575.984680,646.591370 575.546814,637.377747 
	C575.482361,636.021973 574.533997,635.298706 573.187561,635.295227 
	C565.786377,635.276062 558.385254,635.286011 550.145752,635.286011 
	C553.781128,644.497375 557.944031,651.982361 564.696472,657.700439 
	C567.525452,660.096130 568.435547,662.741394 568.459717,666.375854 
	C568.490356,670.974792 566.390808,675.278320 566.514221,679.938232 
	C574.514709,679.129883 577.409668,675.978149 580.659424,664.285400 
M437.495117,457.080292 
	C435.492584,455.733215 433.651062,454.039703 431.113983,453.712616 
	C428.982178,457.495270 430.917725,461.633545 428.955231,465.445892 
	C425.944489,464.079681 424.524902,465.849274 423.389557,468.343079 
	C421.943207,471.519836 421.869446,474.664917 424.369843,477.152679 
	C431.729584,484.475281 440.860474,489.129913 449.932404,494.286652 
	C451.924622,484.319122 451.574036,483.117828 445.225922,477.133026 
	C442.800049,474.845978 440.424835,472.487762 438.866455,469.512268 
	C437.563293,467.024139 436.725830,464.419220 439.560089,461.729279 
	C443.215332,466.525635 445.610229,472.139648 451.247131,475.180267 
	C452.346710,466.573792 451.602753,465.102325 444.969788,461.514282 
	C442.634460,460.251038 440.386017,458.827118 437.495117,457.080292 
M594.042480,381.413361 
	C604.474915,370.135864 603.915222,351.423157 593.234192,346.358643 
	C592.625000,357.883606 591.513306,369.536438 594.042480,381.413361 
M470.288757,585.030762 
	C470.730652,579.648743 474.939728,575.294617 475.410431,569.920471 
	C474.951477,569.741455 474.492523,569.562439 474.033569,569.383423 
	C468.069885,578.786804 462.106201,588.190186 456.254456,597.417053 
	C457.615509,599.567017 459.365723,600.177124 461.046234,600.829529 
	C465.958893,602.736755 466.994659,602.116150 467.886597,597.038635 
	C468.545197,593.289368 469.309479,589.558716 470.288757,585.030762 
M419.534668,541.689636 
	C419.836487,541.135986 420.441589,540.285095 419.737885,539.994934 
	C416.231598,538.549316 409.070557,541.489624 406.593903,546.126282 
	C411.035156,543.484619 415.961548,546.562561 419.534668,541.689636 
M517.559448,472.195068 
	C516.083130,472.399811 514.468506,472.402893 514.413086,474.536285 
	C514.376099,475.959595 514.784180,477.167755 516.071289,477.902802 
	C517.882996,478.937500 518.745483,477.388885 519.820923,476.452972 
	C521.650696,474.860596 523.477844,473.265228 525.306030,471.671112 
	C525.046692,471.369965 524.787354,471.068787 524.528015,470.767639 
	C522.454651,471.198975 520.381287,471.630310 517.559448,472.195068 
M425.200409,533.878845 
	C426.020966,532.919006 427.259308,532.121765 426.408417,530.295410 
	C422.781860,530.188904 418.898407,529.081970 415.193298,533.277222 
	C418.898712,533.649292 421.750885,533.935608 425.200409,533.878845 
M406.778198,552.183350 
	C404.953552,553.872864 404.850281,555.431824 406.974884,556.936523 
	C410.069244,554.399841 410.069244,554.399841 411.662598,550.562866 
	C410.066437,551.018677 408.689392,551.411865 406.778198,552.183350 
z"/>
<path fill="#000000" opacity="1.000000" stroke="none" 
	d="
M675.571045,248.865662 
	C670.341431,247.253448 665.835083,245.100677 662.190796,241.540924 
	C660.296509,239.690582 658.518066,239.321686 655.927185,240.027756 
	C641.970764,243.831177 625.698120,234.496658 624.672791,220.775452 
	C624.488708,218.312546 622.594666,218.038040 620.903076,217.446381 
	C602.946289,211.165573 597.427917,190.896912 609.946289,176.807114 
	C611.510498,175.046616 611.818176,173.589142 611.089844,171.448730 
	C604.915283,153.303009 619.712769,138.379135 634.154785,139.619217 
	C636.763184,139.843185 637.910645,138.494858 639.092529,136.386353 
	C650.449341,116.124359 677.753967,112.606186 693.960449,129.385742 
	C696.010254,131.508072 697.475525,131.457520 699.955627,130.492508 
	C726.420959,120.194870 754.348633,142.513046 750.293335,170.725296 
	C749.859558,173.742859 750.244812,175.967957 752.264526,178.428070 
	C760.972107,189.034500 761.612671,203.378601 754.261536,215.791763 
	C747.335266,227.487518 735.053223,233.273407 721.554749,230.985718 
	C719.378418,230.616867 717.780518,230.244675 716.686951,232.736710 
	C710.721008,246.331573 692.215088,252.977676 678.425720,249.400467 
	C677.623779,249.192429 676.785400,249.124939 675.571045,248.865662 
M681.216248,242.230286 
	C694.004639,243.890137 705.654114,238.343643 711.906982,227.185455 
	C713.938416,223.560333 716.028625,222.486069 720.281921,223.339432 
	C731.818665,225.654144 742.460876,220.624374 748.006287,210.962234 
	C753.971436,200.568726 752.971497,189.021378 744.940918,179.953827 
	C742.770569,177.503250 742.223999,175.018967 742.912537,172.176147 
	C748.260620,150.095917 724.360535,126.857117 698.886414,136.584305 
	C695.264099,137.967499 693.254333,137.217651 690.665222,134.700531 
	C675.838379,120.285782 652.906982,123.319252 642.376404,141.033112 
	C641.026062,143.304474 639.613770,144.272308 636.918335,144.375549 
	C621.195557,144.977737 612.653687,157.140732 617.318787,172.352158 
	C618.310974,175.587326 618.451538,178.025757 615.511841,180.249069 
	C613.494019,181.775162 612.328918,184.067169 611.444397,186.444855 
	C607.594177,196.793808 613.019531,207.654831 624.293518,212.084259 
	C626.923218,213.117432 629.983398,213.700089 630.258118,217.271896 
	C631.179077,229.245407 644.579834,236.491928 656.688171,232.848511 
	C659.968567,231.861450 662.315674,232.544815 664.768799,234.868851 
	C669.110535,238.982117 674.391296,241.370300 681.216248,242.230286 
z"/>
<path fill="#000000" opacity="1.000000" stroke="none" 
	d="
M283.113159,412.129974 
	C284.416290,396.848022 291.690063,386.379517 305.879700,381.273560 
	C318.875946,376.596985 333.782684,380.728607 342.669464,391.143524 
	C351.488647,401.479218 352.530334,415.822845 345.711700,428.491089 
	C343.000366,433.528473 338.720917,437.563660 337.832245,443.856628 
	C337.146881,448.710083 338.211670,453.100342 338.929230,457.581360 
	C339.700043,462.394928 338.924530,466.093506 334.761322,468.886688 
	C333.835266,469.507965 332.936157,470.417816 332.453339,471.404572 
	C331.019287,474.335327 328.476776,475.293579 325.556213,475.618347 
	C320.395508,476.192169 310.792114,469.556183 309.518158,464.451416 
	C308.796051,461.557892 308.003479,458.598816 307.911163,455.648315 
	C307.707703,449.147675 304.204559,444.732391 299.219238,441.415222 
	C288.843109,434.511078 283.678680,424.851868 283.113159,412.129974 
M340.684509,410.793152 
	C339.152740,408.539642 338.032990,406.055756 338.204651,403.335266 
	C338.526215,398.239044 335.905609,394.763885 332.220581,391.923615 
	C324.873932,386.261078 316.515686,385.850098 308.023438,388.235779 
	C301.616302,390.035736 298.928802,395.516754 295.094177,400.658264 
	C290.293335,407.095276 290.605774,412.654572 291.775543,419.101685 
	C294.087585,431.844452 305.692932,436.963531 313.582489,445.126617 
	C313.632965,445.178802 313.880341,445.040680 314.035767,444.991455 
	C315.717163,437.661835 313.402771,431.018097 307.727814,426.826019 
	C305.708954,425.334656 304.531494,423.381622 305.016174,420.813751 
	C305.339905,419.098541 306.286346,417.692169 308.153595,417.312622 
	C310.674530,416.800140 312.201080,418.341888 313.555725,420.124908 
	C314.058502,420.786652 314.425232,421.563995 314.983490,422.169159 
	C317.219940,424.593323 319.239197,424.534271 320.773468,421.448090 
	C321.287933,420.413177 321.480164,419.221313 321.963104,418.166870 
	C323.312134,415.221405 325.600311,413.334473 328.681213,415.100861 
	C331.531433,416.734924 330.893921,419.622742 329.481720,422.148102 
	C329.001495,423.006836 328.321198,423.773621 327.642151,424.497864 
	C324.036896,428.343079 324.691437,439.024170 328.798889,442.975250 
	C332.209869,440.030640 342.570099,419.377411 342.670288,415.432281 
	C342.710480,413.850403 342.386536,412.463989 340.684509,410.793152 
M317.398956,431.603760 
	C318.965210,436.059845 317.307678,441.613159 321.903229,445.116760 
	C321.914001,440.100555 321.287598,435.235382 320.655029,430.371002 
	C320.511444,429.267120 320.002594,428.398041 318.768738,428.556488 
	C317.508026,428.718414 317.379089,429.787598 317.398956,431.603760 
z"/>
<path fill="#000000" opacity="1.000000" stroke="none" 
	d="
M626.098816,242.844757 
	C631.981079,239.602203 637.415100,240.026779 642.287476,243.837997 
	C645.888977,246.655121 647.454163,250.720871 646.715759,255.343735 
	C645.738159,261.464508 641.526794,265.346405 635.323364,266.127441 
	C630.164001,266.777039 624.882812,263.718689 622.386353,258.635498 
	C619.548523,252.857162 620.634766,247.835999 626.098816,242.844757 
M634.299927,245.507065 
	C632.719360,245.360336 631.290771,245.912918 630.082703,246.792938 
	C627.471497,248.695068 625.922363,251.217468 627.030823,254.526733 
	C628.216858,258.067841 630.788147,259.987305 634.619629,259.742035 
	C638.209045,259.512329 640.721802,257.546967 641.207886,254.016220 
	C641.834229,249.467773 639.074829,246.960403 634.299927,245.507065 
z"/>
<path fill="#000000" opacity="1.000000" stroke="none" 
	d="
M615.175842,282.179016 
	C609.883911,278.293457 608.609131,274.681213 610.642944,270.168304 
	C612.482361,266.086609 615.911438,264.745850 620.014038,265.299805 
	C625.342712,266.019348 628.622498,271.044403 627.502136,276.261414 
	C626.351929,281.617859 621.730713,283.962860 615.175842,282.179016 
M622.123718,275.593933 
	C623.322876,272.843842 622.086487,271.112305 619.673950,269.979187 
	C618.036438,269.210083 616.717468,269.881348 615.846619,271.315521 
	C614.903076,272.869354 614.847961,274.575348 616.061646,275.971710 
	C617.793396,277.964111 619.761047,277.963989 622.123718,275.593933 
z"/>
<path fill="#000000" opacity="1.000000" stroke="none" 
	d="
M271.822113,405.665161 
	C273.917603,406.467285 275.955200,407.151855 275.416260,409.456757 
	C274.987488,411.290436 272.965576,411.557343 271.357178,411.790527 
	C268.008606,412.275970 264.779205,411.447388 261.621796,410.440399 
	C260.288300,410.015106 259.294769,409.023529 259.401489,407.499512 
	C259.511536,405.927704 260.737762,405.236389 262.103821,405.033051 
	C265.236816,404.566650 268.365814,404.649261 271.822113,405.665161 
z"/>
<path fill="#000000" opacity="1.000000" stroke="none" 
	d="
M280.480530,435.610840 
	C281.294708,435.524780 281.946350,435.358826 282.248108,435.611206 
	C285.865021,438.635895 282.317108,440.426453 280.693207,441.830292 
	C278.425507,443.790527 276.109131,447.600861 272.381531,444.779449 
	C270.643250,443.463715 272.050293,441.288147 273.545959,440.130310 
	C275.634308,438.513641 277.941742,437.179993 280.480530,435.610840 
z"/>
<path fill="#000000" opacity="1.000000" stroke="none" 
	d="
M319.652924,270.818848 
	C323.031891,268.726807 323.417450,268.877136 325.381500,272.929810 
	C322.785736,274.427063 321.171906,273.041290 319.652924,270.818848 
z"/>
<path fill="#000000" opacity="1.000000" stroke="none" 
	d="
M342.208405,373.446838 
	C345.413513,372.392792 345.016327,374.268494 344.530334,375.946808 
	C344.172516,377.182343 343.008209,378.096863 341.841675,377.551270 
	C339.258209,376.343018 341.002533,374.938446 342.208405,373.446838 
z"/>
<path fill="#000000" opacity="1.000000" stroke="none" 
	d="
M279.595032,374.957520 
	C280.322388,376.443970 280.520569,377.845703 278.622803,376.768127 
	C276.712311,375.683350 275.005951,374.028168 274.845184,371.039429 
	C277.553284,371.029266 278.258240,373.199158 279.595032,374.957520 
z"/>
<path fill="#000000" opacity="1.000000" stroke="none" 
	d="
M366.747345,397.329285 
	C368.666931,397.233124 369.344086,397.917877 368.139587,399.237793 
	C366.456055,401.082611 364.490692,401.028107 362.440857,399.487610 
	C363.166840,397.504913 365.153046,398.083771 366.747345,397.329285 
z"/>
<path fill="#000000" opacity="1.000000" stroke="none" 
	d="
M501.278931,247.706985 
	C489.980652,241.525772 477.976166,238.747025 464.652252,237.362305 
	C475.096619,228.345520 514.324890,244.142731 518.059265,258.255310 
	C511.557129,255.564240 507.298309,250.480484 501.278931,247.706985 
z"/>
<path fill="#000000" opacity="1.000000" stroke="none" 
	d="
M427.233582,249.866791 
	C442.641418,249.644867 452.435486,252.050980 455.142090,256.217651 
	C440.101959,256.217651 424.776184,256.217651 409.388550,256.217651 
	C410.897980,252.092728 411.841309,251.757095 427.233582,249.866791 
z"/>
<path fill="#000000" opacity="1.000000" stroke="none" 
	d="
M543.185059,243.799591 
	C550.519714,251.089752 552.638733,255.398361 550.927063,260.627563 
	C545.767456,254.152435 541.259399,247.653625 534.731995,243.019119 
	C528.416382,238.534958 521.305359,235.476303 514.027161,231.739395 
	C519.541260,228.665741 531.247925,233.784943 543.185059,243.799591 
z"/>
<path fill="#000000" opacity="1.000000" stroke="none" 
	d="
M395.442719,277.243256 
	C403.467682,274.215668 411.133911,271.250580 419.758667,274.561371 
	C409.031708,277.960999 398.304749,281.360626 387.578156,284.761414 
	C387.598206,281.125916 387.767426,280.960541 395.442719,277.243256 
z"/>
<path fill="#000000" opacity="1.000000" stroke="none" 
	d="
M390.211395,326.873413 
	C389.591309,329.280121 389.842621,331.572418 387.695404,333.607910 
	C384.274872,330.913605 385.490936,327.177185 386.005371,324.261322 
	C387.336761,316.714569 388.367981,308.789673 396.033051,304.246124 
	C394.595490,311.832153 390.764923,318.714508 390.211395,326.873413 
z"/>
<path fill="#000000" opacity="1.000000" stroke="none" 
	d="
M563.573425,269.514832 
	C565.123596,268.117249 566.587524,268.612549 567.871582,269.386749 
	C574.294922,273.259491 578.454895,278.868622 580.339722,286.128906 
	C580.589661,287.091553 580.594971,288.142151 578.448120,289.204437 
	C574.892090,281.747162 569.022339,275.909363 563.573425,269.514832 
z"/>
<path fill="#000000" opacity="1.000000" stroke="none" 
	d="
M527.106689,489.383362 
	C532.910706,484.709503 538.708862,480.551849 544.172241,475.992950 
	C549.220947,471.780029 554.616272,467.711517 556.279907,460.470184 
	C559.605042,461.974823 559.514038,464.331573 558.778015,466.772522 
	C557.594604,470.697601 555.193420,473.859070 552.095032,476.477783 
	C545.605713,481.962372 538.431091,486.456329 531.047852,490.597870 
	C529.889404,491.247742 527.402954,494.088348 527.106689,489.383362 
z"/>
<path fill="#000000" opacity="1.000000" stroke="none" 
	d="
M490.709473,419.454010 
	C488.600769,419.280945 486.867828,419.410309 485.298645,418.963959 
	C481.970306,418.017273 479.184692,418.047760 476.913422,421.228424 
	C476.011993,422.490845 474.455963,423.543304 472.242310,422.512390 
	C471.596527,419.244324 474.993042,417.166473 475.063843,413.936401 
	C475.129730,410.931702 473.322998,408.268768 473.739746,405.145233 
	C477.042145,404.655090 478.290039,406.912201 478.847748,409.029114 
	C479.664398,412.129028 481.489807,412.673279 484.299500,412.832672 
	C492.938141,413.322662 501.576569,413.937195 510.183075,414.816742 
	C513.940002,415.200653 518.062073,415.223969 522.072144,419.676575 
	C510.886414,422.189972 501.005615,420.020538 490.709473,419.454010 
z"/>
<path fill="#000000" opacity="1.000000" stroke="none" 
	d="
M406.312927,392.921661 
	C399.839752,388.209564 395.024139,381.605133 386.421692,380.997742 
	C387.305573,377.251770 389.655762,377.638672 391.702820,377.734589 
	C397.583740,378.010284 406.148315,384.782593 407.827637,390.358154 
	C408.197906,391.587494 408.340088,392.674652 406.312927,392.921661 
z"/>
<path fill="#000000" opacity="1.000000" stroke="none" 
	d="
M497.267792,427.657227 
	C500.779022,427.103516 504.019440,425.857605 507.080933,428.684723 
	C504.313354,432.423615 500.609375,431.562164 497.222412,430.896851 
	C495.498291,430.558136 494.904694,429.039429 497.267792,427.657227 
z"/>
<path fill="#000000" opacity="1.000000" stroke="none" 
	d="
M489.402710,315.687622 
	C489.525330,317.068817 489.774506,318.087250 489.635712,319.049713 
	C489.406982,320.636169 489.419128,322.889587 487.232849,322.812134 
	C484.687622,322.721954 485.598755,320.480988 485.602905,318.924866 
	C485.610321,316.159637 485.604980,313.394379 485.604980,310.356171 
	C488.744171,310.722382 488.998810,313.051239 489.402710,315.687622 
z"/>
<path fill="#000000" opacity="1.000000" stroke="none" 
	d="
M514.082275,315.320984 
	C514.143250,316.793304 514.571106,318.021515 513.245300,318.706146 
	C508.836151,315.685852 508.605682,311.000397 512.832214,307.118195 
	C515.416443,309.424927 512.534241,312.562378 514.082275,315.320984 
z"/>
<path fill="#000000" opacity="1.000000" stroke="none" 
	d="
M460.018921,350.733276 
	C465.754395,350.302429 471.014557,349.234406 476.355957,350.480530 
	C479.091461,351.118713 480.518982,352.068207 479.528381,355.256104 
	C479.007355,356.932800 479.394562,358.887390 479.345215,360.715820 
	C479.162720,367.477203 475.108551,372.622162 469.477448,373.255096 
	C463.420776,373.935852 458.417938,369.829498 456.939911,362.882324 
	C456.632874,361.439087 456.573975,359.943085 456.368500,358.197601 
	C451.719086,357.631683 447.499298,359.164062 443.187744,360.068329 
	C441.520508,360.417999 439.200836,361.689148 438.342316,359.344818 
	C437.409576,356.797974 440.033661,355.986023 441.725830,355.232422 
	C447.396118,352.707214 453.497437,351.755157 460.018921,350.733276 
z"/>
<path fill="#000000" opacity="1.000000" stroke="none" 
	d="
M555.162476,362.374908 
	C548.443237,361.516479 545.678711,357.199524 544.640808,351.574860 
	C543.970520,347.942566 542.454529,346.686157 538.839600,347.898895 
	C536.806702,348.580963 534.628723,348.949066 532.487000,349.152740 
	C530.606750,349.331573 527.960815,350.206421 527.231567,347.757477 
	C526.447693,345.125092 529.266785,344.652374 530.987488,344.014801 
	C538.219299,341.335510 545.775330,340.194489 553.443237,339.717102 
	C554.272644,339.665466 555.107910,339.707520 555.940491,339.707581 
	C564.906799,339.708282 567.109497,340.757019 567.296570,345.113586 
	C567.786194,356.517761 564.323120,361.624664 555.162476,362.374908 
z"/>
<path fill="#000000" opacity="1.000000" stroke="none" 
	d="
M659.891724,173.078064 
	C653.969971,171.225357 652.443115,167.866882 654.380066,161.839096 
	C657.049561,153.531616 665.863586,147.302643 675.506653,146.908768 
	C684.762207,146.530716 693.813965,151.577637 696.928101,158.852631 
	C700.677917,167.612549 698.748901,176.988449 691.329163,183.867203 
	C687.054749,187.829910 682.593445,191.280197 681.384216,197.640656 
	C680.831848,200.545944 677.910583,202.766388 674.452454,202.024353 
	C670.892395,201.260452 668.769348,198.947021 668.616272,194.979630 
	C668.409729,189.629059 670.441040,185.256485 673.960388,181.452255 
	C676.105103,179.133972 678.525085,177.053085 680.524780,174.621582 
	C684.293945,170.038635 684.238037,165.256577 680.644531,162.797913 
	C676.427612,159.912704 671.384827,161.236145 668.347351,166.236298 
	C666.391602,169.455704 664.299805,172.348740 659.891724,173.078064 
z"/>
</svg>