<svg version="1.1" id="Layer_1" xmlns="http://www.w3.org/2000/svg" xmlns:xlink="http://www.w3.org/1999/xlink" x="0px" y="0px"
	 width="100%" viewBox="0 0 1024 1024" enable-background="new 0 0 1024 1024" xml:space="preserve">
<path fill="#000000" opacity="1.000000" stroke="none" 
	d="
M211.860840,599.938965 
	C204.597092,573.871033 201.348129,547.655151 202.010910,521.065674 
	C203.336655,467.878510 214.197372,417.039124 240.736023,370.291840 
	C243.007935,366.289917 245.169830,362.296234 248.884216,359.102905 
	C251.349457,356.983459 250.464203,352.875214 250.479492,349.566681 
	C250.511749,342.584534 250.508911,342.530396 257.375946,341.752716 
	C259.360596,341.527924 260.803253,340.866486 261.808197,339.055603 
	C264.898193,333.487579 268.971497,328.617859 273.110016,323.831757 
	C275.602081,320.949707 276.417694,318.084961 275.470520,314.245575 
	C270.970673,296.005005 266.678497,277.712646 262.400177,259.418182 
	C260.963135,253.273285 263.057098,250.822052 269.489838,250.697830 
	C285.135101,250.395721 285.398743,250.616760 288.253052,265.856873 
	C288.555420,267.471252 289.018646,269.055542 289.610107,271.488159 
	C292.410553,266.968048 292.476624,262.465912 293.528839,258.313568 
	C295.081543,252.186340 296.494537,250.930130 303.274750,250.791962 
	C311.729584,250.619690 313.535217,251.803574 315.346619,258.101593 
	C316.437714,261.895294 316.420471,265.995483 318.527588,269.984741 
	C321.476471,267.099792 321.190308,263.480316 321.658630,260.266083 
	C322.902954,251.725632 324.620361,250.254288 333.326172,250.549637 
	C338.254211,250.716812 343.219177,249.762131 346.962921,254.664841 
	C348.306366,256.424103 350.594330,254.030182 352.161133,253.002014 
	C367.407532,242.996994 383.614655,234.809052 400.508270,228.068970 
	C431.047943,215.884445 462.909943,209.102127 495.617920,206.642212 
	C552.648804,202.353027 607.525452,210.479156 659.046143,236.531647 
	C666.177673,240.137863 673.129150,244.106689 680.095398,248.029556 
	C682.428894,249.343613 684.650146,250.666122 687.403687,251.035797 
	C689.562317,251.325562 691.625061,252.264877 692.821716,254.271606 
	C695.127686,258.138489 699.121582,259.372528 702.726379,261.138062 
	C703.159973,260.742584 703.561890,260.557861 703.606934,260.308594 
	C705.147522,251.792587 705.910095,251.098969 714.595764,251.008713 
	C716.750061,250.986343 718.905396,251.375381 721.064758,251.457779 
	C726.045410,251.647797 727.627502,254.790604 727.655396,259.119537 
	C727.692932,264.946625 727.752197,270.785370 727.427673,276.598206 
	C727.256958,279.655396 728.506409,281.467712 730.661133,283.357910 
	C746.836975,297.547699 762.662659,312.081940 774.852722,330.056366 
	C777.265137,333.613495 779.472107,337.266785 781.614502,340.978088 
	C783.666382,344.532593 787.551208,347.169159 789.940247,350.972961 
	C813.539307,388.548004 829.502808,429.129089 835.942200,472.998718 
	C846.167358,542.659851 835.411377,609.046570 801.920959,671.313049 
	C791.058899,691.508301 776.960388,709.464722 762.022888,726.796143 
	C740.731018,751.500549 716.217590,772.356995 688.041809,788.774536 
	C652.807861,809.304749 615.701172,825.038818 575.037781,831.042847 
	C545.953430,835.337097 516.838745,836.451233 487.412476,833.698059 
	C453.189484,830.496033 420.374146,822.183411 389.466339,807.745972 
	C344.624969,786.799988 305.038574,758.612671 273.300751,719.812378 
	C244.210205,684.248413 223.799744,644.580505 211.860840,599.938965 
M618.505737,732.135681 
	C613.304749,729.832214 612.507690,726.438293 614.151611,720.898926 
	C620.306641,700.158997 625.807739,679.225708 631.709534,658.409058 
	C632.551392,655.439575 631.806580,653.888611 629.306641,652.283508 
	C623.420654,648.504517 617.768433,644.363281 611.936646,640.496826 
	C610.086792,639.270325 608.498413,637.235840 605.260437,637.795410 
	C602.636292,645.452332 600.019104,653.326538 597.225464,661.137695 
	C595.882141,664.893738 592.080566,666.618591 588.442139,665.443787 
	C583.496094,663.846680 581.248901,660.547180 582.527405,656.283081 
	C584.964600,648.154968 587.268921,639.965027 590.227173,632.023743 
	C591.875366,627.599365 590.471436,625.444885 586.914246,623.124512 
	C576.590454,616.390137 566.466125,609.350281 556.239868,602.465454 
	C555.039978,601.657654 553.969177,600.445557 551.706238,600.727539 
	C549.252686,606.022766 547.460144,611.751038 546.500305,617.886169 
	C549.816650,619.262817 552.626526,617.442810 555.536194,617.309265 
	C558.679199,617.164917 561.729980,617.398926 563.603333,620.175354 
	C566.699341,624.763916 565.491150,632.763062 561.151611,636.619385 
	C555.873718,641.309692 549.421570,642.792664 542.577576,642.378784 
	C539.294434,642.180298 537.740540,643.321777 536.848694,646.415405 
	C535.420227,651.370728 533.386230,656.156250 532.050842,661.132324 
	C530.677612,666.249573 526.775696,667.338074 522.519348,667.504944 
	C516.897888,667.725281 512.359314,661.522156 513.734924,656.201111 
	C514.338562,653.866272 515.876526,651.670654 514.912048,648.090637 
	C489.912445,653.702637 464.862976,658.906677 438.215485,660.337891 
	C441.337677,663.876892 442.436096,667.027222 443.679230,670.100098 
	C445.215820,673.898499 447.747437,676.163818 452.078003,675.693237 
	C454.699707,675.408325 456.582306,676.582886 458.043762,678.582336 
	C458.780487,679.590271 458.965179,680.758606 458.198120,681.847351 
	C457.585510,682.716919 456.620819,683.267700 455.596008,682.974426 
	C447.848480,680.757324 440.242767,678.605713 437.669617,669.261047 
	C436.052551,663.388489 431.517944,660.839172 425.390533,661.176208 
	C429.279358,664.362854 430.939972,668.483459 431.369080,673.371399 
	C432.011993,680.694092 433.765778,687.374390 442.766388,688.558105 
	C443.527069,688.658142 444.300598,689.223877 444.916565,689.750549 
	C446.468048,691.077026 447.201385,692.712952 445.835815,694.558167 
	C444.410889,696.483459 442.863953,696.271545 441.244720,694.629639 
	C440.567627,693.943054 439.674927,693.355103 438.769836,693.025208 
	C430.682251,690.077209 427.519379,683.746155 426.528595,675.740234 
	C426.180786,672.929504 426.409576,669.824036 423.563019,666.771118 
	C422.271210,683.511780 424.165100,698.796143 432.473785,712.656738 
	C435.717621,718.068115 437.937164,722.897949 435.655731,729.434204 
	C434.103149,733.882446 434.766632,738.211121 440.070587,741.194214 
	C446.719635,744.933777 452.575104,750.054382 459.050262,754.139648 
	C470.947845,761.645935 476.943909,772.377808 478.336395,786.232178 
	C479.238739,795.209778 479.743805,804.184570 479.306519,813.158386 
	C479.091675,817.566895 480.615784,819.235229 484.760223,819.364502 
	C489.587708,819.515137 494.414154,819.782227 499.232819,820.117249 
	C523.096680,821.776489 546.848450,820.166199 570.518738,817.345154 
	C602.012878,813.591614 631.697388,802.930969 659.536743,788.734985 
	C726.168823,754.757935 773.664917,702.302307 802.595215,633.242432 
	C815.043823,603.526184 822.444397,572.499512 824.532471,540.386169 
	C827.137268,500.326447 820.608154,461.384888 808.301453,423.328033 
	C801.197693,401.360779 790.149841,381.186951 779.613098,360.784912 
	C778.959045,359.518524 777.914001,359.303497 776.717285,359.296082 
	C770.888550,359.259857 765.059570,359.223938 759.230713,359.229584 
	C756.693237,359.232056 755.077454,360.306335 755.128235,363.101532 
	C755.179260,365.910919 756.947083,366.827759 759.396545,366.895599 
	C762.060669,366.969421 764.727295,366.995911 767.392456,366.980713 
	C778.001953,366.920227 778.703186,367.660553 778.050964,378.373627 
	C778.040894,378.539948 778.035889,378.706696 778.033386,378.873291 
	C777.981567,382.337128 776.274963,384.125977 772.759949,384.031921 
	C768.934692,383.929596 765.110962,383.759888 761.285278,383.685272 
	C758.351746,383.628052 755.399109,383.633026 755.251526,387.762604 
	C755.113098,391.636749 757.458618,392.494415 760.735291,392.489502 
	C766.564087,392.480743 772.393127,392.646759 778.221985,392.641113 
	C780.930664,392.638519 783.181702,393.578491 783.002014,396.447266 
	C782.728088,400.821350 785.420898,405.848114 780.664490,409.390228 
	C780.190491,409.743225 779.387756,409.759277 778.738281,409.756531 
	C766.422119,409.704529 754.106018,409.568726 741.790039,409.583282 
	C737.236206,409.588684 735.328491,407.434631 735.879089,403.065155 
	C736.693115,396.605286 736.115845,390.143005 736.105774,383.680847 
	C736.086853,371.543793 736.999023,359.409912 736.063416,347.266571 
	C735.780884,343.600098 737.811157,341.724304 741.532898,341.732025 
	C746.699402,341.742737 751.866272,341.755066 757.032104,341.690826 
	C758.803955,341.668793 760.759277,342.085510 762.666809,339.548340 
	C752.736816,326.244446 742.399353,313.081207 728.661865,302.119751 
	C726.535034,306.808075 727.886536,310.956635 727.779541,314.988342 
	C727.673523,318.981201 727.329468,322.905579 722.552551,324.036987 
	C711.206421,326.724396 705.738281,324.282013 699.980164,314.077972 
	C698.507996,311.469208 697.351990,308.682098 695.881409,306.072327 
	C694.721252,304.013367 694.097229,301.555603 691.777832,299.567017 
	C690.725708,302.945526 691.909668,305.676331 692.048523,308.399292 
	C692.819885,323.523254 691.557129,324.853912 676.464539,324.203094 
	C675.965576,324.181580 675.458679,324.198853 674.969421,324.115967 
	C670.935730,323.432648 668.837830,321.354645 669.135010,316.944122 
	C670.323669,299.302826 669.544189,281.637238 669.647583,263.981567 
	C669.673401,259.577271 667.683533,257.012543 663.949524,254.932159 
	C627.682190,234.725815 588.491272,224.253845 547.442139,220.534058 
	C522.837097,218.304398 498.261078,219.359024 473.753082,223.255051 
	C446.261139,227.625443 419.779816,235.008224 394.590942,246.887482 
	C392.574371,247.838501 390.115753,248.311615 389.050201,250.599350 
	C389.366608,252.068542 390.476685,252.567947 391.510559,253.065659 
	C399.549042,256.935303 402.811310,264.043152 404.214020,272.222382 
	C405.571472,280.137512 405.443634,288.168976 405.109375,296.158691 
	C404.427856,312.449982 397.229431,321.982117 383.207550,324.862183 
	C377.658142,326.002014 371.852997,326.039490 366.307892,324.907135 
	C355.751038,322.751373 348.635406,316.569824 346.494446,305.657196 
	C344.951202,297.790894 344.739410,289.800781 344.881561,281.794189 
	C344.913422,279.998383 345.658386,277.909729 343.875366,276.239075 
	C341.004700,278.226562 341.018738,281.250580 340.399841,283.909607 
	C337.686005,295.568604 335.030396,307.241760 332.452484,318.931519 
	C331.622040,322.697327 329.074951,324.501709 325.657257,324.184357 
	C320.011505,323.660095 313.393219,326.889496 309.096252,320.482544 
	C308.578705,319.710876 308.729584,318.522888 308.381012,317.599457 
	C307.579132,315.475067 307.522888,312.999542 305.337433,311.068298 
	C303.176361,313.723846 301.176453,316.354919 300.305725,319.593292 
	C299.595642,322.234344 297.852722,323.665131 295.417511,323.942657 
	C292.442291,324.281708 290.637909,326.051056 288.910400,328.125366 
	C286.138702,331.453522 283.891724,335.502594 280.496155,337.973236 
	C270.868988,344.978180 271.749969,353.077881 276.720306,362.120270 
	C278.265259,364.930939 278.469452,368.518494 281.566986,370.658661 
	C283.525116,369.350342 284.010681,367.361420 284.695801,365.534546 
	C287.033905,359.300262 289.418060,353.080536 291.594269,346.789398 
	C292.553925,344.015228 293.929230,341.919495 297.063660,341.820068 
	C300.891174,341.698669 304.731415,341.659943 308.554749,341.834808 
	C311.170776,341.954498 312.985626,343.220856 312.786011,346.253906 
	C311.646667,363.567108 313.175293,380.864899 313.128418,398.174713 
	C313.092499,411.433075 312.237000,408.877838 300.871948,409.636993 
	C296.609100,409.921753 294.435852,408.199493 294.722504,403.457245 
	C295.067505,397.750092 294.804108,392.006104 294.804108,386.278076 
	C291.373016,388.629120 290.879852,391.996277 289.669495,394.967499 
	C288.260529,398.426208 286.708344,401.204407 282.249237,401.004028 
	C278.051147,400.815430 274.927277,399.767700 273.535614,395.200165 
	C272.761627,392.659729 271.965637,389.831696 269.647308,387.771393 
	C269.105286,388.414612 268.561157,388.759399 268.540649,389.132904 
	C268.394806,391.791229 268.265015,394.456543 268.298096,397.117554 
	C268.485779,412.213806 268.201233,408.607239 256.341553,409.631500 
	C252.030090,410.003876 249.900635,408.241211 249.854797,403.615814 
	C249.808136,398.907532 250.668228,394.105530 249.318115,389.083984 
	C229.418869,416.493530 206.032669,510.928497 221.659897,577.562988 
	C240.429520,657.596619 280.212219,722.770264 349.852081,768.965088 
	C352.166962,765.000122 352.882782,761.257629 353.640076,757.546936 
	C354.203949,754.783813 353.618866,752.739380 350.414825,751.881409 
	C347.342529,751.058777 344.930084,749.087891 344.676361,745.688049 
	C344.421478,742.272583 343.377991,739.283325 341.629425,736.364319 
	C340.260406,734.078918 339.513397,731.428223 339.528687,728.723755 
	C339.595428,716.905518 339.793243,705.097107 341.259064,693.337585 
	C342.304504,684.950928 344.319092,676.766663 346.432892,667.983765 
	C342.737000,669.133423 339.460266,669.508179 336.156433,669.269287 
	C326.246979,668.552673 320.144714,660.090698 322.914612,650.648987 
	C323.699432,647.973755 325.115540,645.434937 326.541290,643.009460 
	C328.177643,640.225708 328.801300,637.960327 326.658569,634.854187 
	C323.095367,629.688843 324.238190,624.455139 329.231720,619.667542 
	C333.276093,615.789917 338.322205,613.555237 343.303528,611.211975 
	C344.594940,610.604492 346.324799,610.577881 347.126373,608.188965 
	C342.019348,604.043701 338.781281,597.870972 333.983154,592.466675 
	C333.334717,593.789490 333.057892,594.389832 332.750458,594.974060 
	C332.033600,596.336426 331.916962,598.712891 329.530701,597.743835 
	C327.849670,597.061157 327.902527,595.070984 328.584686,593.789246 
	C331.746094,587.849304 328.380859,583.849487 324.337372,579.318115 
	C324.337372,581.439026 324.364777,583.026611 324.328461,584.612732 
	C324.300934,585.815125 324.142273,587.087158 322.676392,587.312134 
	C321.349823,587.515747 320.428711,586.663757 320.004395,585.494446 
	C319.496582,584.094971 318.954803,582.641541 318.835938,581.178345 
	C318.265015,574.152466 318.652832,567.194397 320.778290,560.409363 
	C321.228821,558.971191 321.566772,557.214661 323.510773,557.424133 
	C325.629120,557.652283 325.217438,559.528320 325.223145,560.974670 
	C325.251190,568.075439 328.726288,573.850708 332.396973,581.028015 
	C333.909546,576.043091 335.971954,572.848145 332.539520,568.826538 
	C329.837067,565.660156 329.313873,561.199097 328.944183,557.029358 
	C328.782623,555.207092 327.953491,552.525879 330.810516,552.134094 
	C333.374573,551.782532 333.128876,554.443726 333.684326,556.058472 
	C335.065887,560.074768 334.651154,564.696716 338.027039,568.711853 
	C342.559631,565.417664 348.024109,568.071899 352.821472,566.427612 
	C361.797089,563.351074 370.630249,559.865295 379.793243,557.332458 
	C381.515656,556.856323 383.503082,556.407227 383.672943,554.040039 
	C383.969635,549.906006 386.969818,548.688171 390.280426,547.582153 
	C393.148987,546.623901 396.411896,546.570496 398.884094,544.473999 
	C397.905640,542.433228 395.976379,542.470398 394.619080,541.604065 
	C393.363708,540.802856 391.676331,540.201294 392.523651,538.264709 
	C393.304077,536.481079 394.958069,536.793945 396.434509,537.207642 
	C400.122711,538.241089 403.755432,540.065552 407.476715,540.252319 
	C413.403687,540.549927 416.690399,544.214600 419.679932,548.295715 
	C421.351013,550.576904 423.014221,550.571838 425.920868,549.816284 
	C424.317352,542.822754 427.903168,537.949036 433.092499,533.830139 
	C433.997070,533.112183 434.729004,532.171021 435.511841,531.306885 
	C436.211060,530.534973 436.551636,529.752441 436.154327,528.603760 
	C434.931305,525.067810 428.526581,520.428040 424.636261,520.526550 
	C417.811523,520.699341 411.381256,519.322021 405.521790,515.747803 
	C403.858276,514.733093 401.533661,513.503601 402.785309,511.171082 
	C404.024384,508.861938 406.043732,510.631134 407.573303,511.349060 
	C417.509491,516.012939 427.973663,515.221130 438.439911,514.426758 
	C438.566162,514.417175 438.653259,513.891296 438.792511,513.514893 
	C434.235077,509.797363 427.700775,512.564636 422.846283,508.984528 
	C424.345184,505.993958 426.957642,505.695007 429.328217,505.856354 
	C439.816284,506.570068 449.575653,509.638611 458.258698,515.703613 
	C460.321686,517.144592 461.624786,519.003723 459.633423,521.989624 
	C453.166748,520.685852 446.461395,518.765869 438.272583,522.012939 
	C445.526398,526.795410 445.622742,536.053345 453.705902,538.850464 
	C454.739746,539.208252 455.663055,540.738037 456.066956,541.919861 
	C458.083496,547.820435 459.296600,553.883240 457.378021,560.025940 
	C456.515472,562.787598 456.089294,565.477905 456.228882,568.345886 
	C456.811462,580.318115 452.923370,590.924133 446.230957,600.662415 
	C445.547546,601.656799 444.195129,602.515198 445.074463,604.068420 
	C446.597595,604.287659 447.699036,603.446899 448.836365,602.816589 
	C464.278320,594.258911 479.708893,585.680786 495.140228,577.104004 
	C497.182129,575.969055 499.250214,574.478455 501.614197,574.726318 
	C506.371063,575.224976 508.323486,572.884827 509.868835,568.694702 
	C513.423584,559.056213 526.925842,551.606628 536.159241,553.627319 
	C538.421509,554.122437 540.387207,554.981873 540.985413,557.372864 
	C541.641602,559.996033 540.257751,561.975464 538.153625,563.245911 
	C535.883728,564.616455 533.470337,565.819580 530.991211,566.756226 
	C527.652405,568.017700 525.825500,570.006897 525.871826,573.779114 
	C525.905701,576.545837 524.697449,578.950623 522.263367,580.558777 
	C521.386719,581.138000 520.512024,581.575867 519.572693,580.703552 
	C518.870605,580.051514 518.707947,579.115356 519.154358,578.420044 
	C521.789551,574.315491 519.799927,569.235291 522.901306,564.516235 
	C516.438049,566.125488 515.150330,571.177612 512.208740,574.974426 
	C508.608429,579.621460 509.934052,582.585632 513.566467,586.473633 
	C517.393066,583.298096 522.557434,584.030701 526.991211,582.076721 
	C526.857361,581.065918 526.715149,580.425293 526.696350,579.781189 
	C526.552551,574.866394 530.621704,568.317810 534.163330,567.954224 
	C544.928284,566.849121 555.697388,565.778687 566.473877,564.794312 
	C570.262085,564.448303 574.772034,565.228638 573.130127,559.084412 
	C575.138123,558.180054 576.147095,559.159790 576.685425,560.407837 
	C578.115417,563.723511 580.584900,563.700256 583.691345,563.387634 
	C591.305481,562.621460 598.959778,562.252197 606.598938,561.737854 
	C608.636108,561.600708 610.728088,561.799133 612.385437,562.947571 
	C618.055176,566.876404 624.757019,568.649109 630.551880,572.603577 
	C643.608765,581.513550 657.406738,589.334045 670.843079,597.694519 
	C673.303650,599.225586 675.174683,599.337219 677.511902,597.343079 
	C679.772278,595.414490 682.519714,594.016968 685.568726,593.577698 
	C687.240723,593.336792 689.245789,593.187439 689.791748,595.200439 
	C690.448303,597.621277 688.124207,597.706909 686.649170,598.109680 
	C683.944702,598.848450 681.258606,599.488403 679.514282,602.509888 
	C681.984192,604.110352 684.169250,605.598145 686.422546,606.974060 
	C696.659546,613.224976 706.974487,619.350830 717.138672,625.717468 
	C721.731323,628.594299 721.743958,638.951416 716.835205,641.114258 
	C712.905334,642.845703 712.025024,645.651367 711.005615,649.001404 
	C707.807739,659.510681 704.572388,670.009155 701.250000,680.479675 
	C698.127258,690.321228 694.951904,700.147766 691.643250,709.927979 
	C690.295959,713.910461 684.615417,716.225281 680.473083,714.793579 
	C674.702209,712.799072 673.194031,710.203735 674.960388,704.809692 
	C680.398987,688.201599 685.945374,671.628723 691.350037,655.009705 
	C692.021301,652.945557 693.495056,650.868896 692.386597,648.200439 
	C682.183167,650.023743 672.723938,654.042542 662.795898,655.902710 
	C655.519958,657.265930 652.977112,661.382935 651.066956,667.900330 
	C645.261108,687.709900 638.841187,707.341003 632.543274,727.003967 
	C630.629150,732.980103 624.840149,735.227478 618.505737,732.135681 
M332.003387,659.441040 
	C337.784393,663.679565 345.767456,661.500427 350.131775,654.445618 
	C351.968842,651.475952 353.550201,648.338135 355.515900,645.459839 
	C362.957855,634.562805 372.980286,628.303955 386.541595,628.673950 
	C388.615021,628.730530 390.955139,628.465210 391.455017,631.245605 
	C390.703583,632.692810 389.531189,632.949341 388.384705,633.098694 
	C370.284119,635.455994 360.942322,647.285950 355.799591,663.457764 
	C349.428558,683.491821 347.889801,704.228699 347.254974,725.075500 
	C347.162567,728.108276 347.506683,731.075989 348.781799,733.859192 
	C349.781494,736.041321 351.138275,738.079590 353.678314,738.465942 
	C361.269928,739.620728 368.912903,740.148315 376.585144,739.436523 
	C379.447937,739.170898 381.446320,738.073303 380.215210,734.578003 
	C379.643097,732.953674 379.313873,730.990234 381.080414,730.064209 
	C388.517242,726.165833 389.694275,719.042236 390.488434,711.864441 
	C390.866760,708.445190 392.492401,706.890198 395.566895,706.052856 
	C401.830170,704.347229 408.004486,702.293396 414.308807,700.769043 
	C417.479004,700.002441 418.837677,699.155029 417.978302,695.448792 
	C415.703552,685.638123 415.410126,675.691711 417.483124,665.765747 
	C418.150085,662.572144 417.050873,661.041626 413.689911,661.074524 
	C408.525818,661.125122 403.359985,661.064514 398.195740,660.989685 
	C396.596252,660.966492 394.419067,661.338013 394.177307,659.110474 
	C393.932617,656.855774 396.156311,656.759094 397.715790,656.442200 
	C406.054504,654.747620 414.505402,653.933838 422.996246,653.757446 
	C448.875549,653.219666 474.403564,649.829041 499.713287,644.578186 
	C501.349762,644.238708 503.252136,643.961304 503.526733,641.935486 
	C504.133575,637.458252 504.724182,632.723511 502.008423,628.844482 
	C499.611237,625.420410 496.160828,628.988953 493.192841,628.555664 
	C492.731140,628.488220 492.224304,628.766907 491.733246,628.858154 
	C477.193512,631.557739 462.814026,635.225342 447.989929,636.216614 
	C430.692230,637.373230 413.362671,636.944275 396.046417,637.157715 
	C394.321869,637.179016 392.333069,637.786194 390.708344,635.255249 
	C396.546631,630.360352 404.253021,632.623840 410.949646,630.113159 
	C408.588959,627.638428 405.875305,625.894897 403.027985,625.780701 
	C389.988739,625.257996 376.936066,622.230713 363.875336,625.985596 
	C359.417572,627.267151 354.757294,627.879517 350.161713,628.626282 
	C348.674591,628.867920 347.051880,628.549622 346.617737,626.662170 
	C346.249603,625.061768 347.502258,624.504395 348.529205,623.581665 
	C351.971222,620.489075 356.773254,620.468933 361.117188,617.870972 
	C358.037933,616.791138 356.310181,613.556274 353.142822,614.698486 
	C346.409302,617.126831 339.712463,619.737366 334.491608,624.976624 
	C332.494843,626.980469 331.653870,629.273010 333.416168,631.683533 
	C337.258698,636.939453 336.413269,641.667175 332.789154,646.719604 
	C330.220001,650.301331 328.778015,654.478516 332.003387,659.441040 
M540.350464,573.969421 
	C544.184082,576.619568 547.984497,579.319336 551.856567,581.912109 
	C582.440613,602.391663 613.053345,622.828430 643.607178,643.353027 
	C646.470215,645.276306 649.140381,645.653809 652.496033,644.761230 
	C670.666687,639.927795 688.897095,635.319458 707.095764,630.590637 
	C708.415710,630.247681 710.064270,630.320251 710.868469,628.487793 
	C700.437988,622.133972 690.030884,615.877197 679.718567,609.467712 
	C676.113464,607.227051 672.803406,604.917358 670.053894,610.440063 
	C669.679749,611.191711 668.714478,611.358459 667.678406,610.951416 
	C665.365479,608.078613 669.477356,606.405762 669.177490,603.627808 
	C668.416199,603.029236 667.576416,602.225769 666.608887,601.629761 
	C653.707397,593.683289 640.795654,585.753357 627.859619,577.863342 
	C626.746277,577.184326 625.371277,576.269897 624.240845,576.416016 
	C621.578125,576.760254 620.751404,575.153137 619.187134,573.520508 
	C616.108337,570.306946 612.210876,567.085144 607.727356,567.035217 
	C600.105408,566.950439 592.468445,568.058533 584.840881,568.700989 
	C581.773254,568.959351 579.685974,569.880188 581.035400,573.719604 
	C581.541626,575.159729 581.737366,577.106018 579.529846,577.787048 
	C577.738525,577.491760 577.480957,575.992554 577.342468,574.760803 
	C576.872009,570.576172 574.956482,569.339783 570.649353,569.952942 
	C564.241272,570.865051 557.680847,570.671692 551.249084,571.466125 
	C547.498596,571.929321 543.451965,571.230957 540.350464,573.969421 
M345.178101,588.484558 
	C347.670258,589.695679 350.229614,590.015564 352.931549,589.225952 
	C354.387207,588.800537 356.054016,588.396973 356.726562,590.336365 
	C357.328857,592.073242 356.042664,593.095276 354.788574,593.981506 
	C352.301514,595.739075 349.243896,595.814453 345.857727,596.601929 
	C348.112640,599.901855 350.721100,602.141235 353.403442,604.317810 
	C366.711975,615.117004 382.180023,619.022034 399.009888,618.746643 
	C422.229980,618.366577 443.986267,600.562988 448.817230,577.855286 
	C449.457947,574.843628 450.549103,571.795837 449.043182,568.955139 
	C447.740753,568.262695 446.804932,568.747620 445.833496,568.914124 
	C436.885315,570.447754 432.110321,567.954407 428.287231,559.641418 
	C427.413055,557.740601 426.712067,555.743591 424.077393,556.498596 
	C421.547394,557.223694 422.323029,559.447693 422.457642,561.126587 
	C422.839417,565.888855 421.677856,570.082764 418.167450,573.389038 
	C408.290863,582.691406 391.402649,579.138977 386.161377,566.733276 
	C385.658905,565.544006 385.704163,564.052673 383.900543,562.943787 
	C377.175995,565.002502 370.097412,567.284119 362.946808,569.311768 
	C359.208191,570.371948 355.315948,570.956970 356.087158,576.190979 
	C353.396118,577.070068 352.065674,575.080505 350.344299,574.315552 
	C347.796936,573.183411 345.259552,572.412964 342.762756,574.109619 
	C340.052765,575.951111 339.990173,578.788391 340.252869,581.728088 
	C340.516327,584.676819 342.205139,586.578979 345.178101,588.484558 
M400.115021,796.311157 
	C416.592987,803.469727 433.270966,810.019043 450.857544,814.052612 
	C454.814911,814.960266 456.106903,813.839355 455.914185,810.025208 
	C455.712891,806.041199 455.883392,802.030396 455.528900,798.063721 
	C454.613983,787.824646 451.939087,778.803040 442.091278,772.900452 
	C432.983124,767.441101 424.150391,761.497498 414.886871,756.265076 
	C413.198181,755.311218 411.493927,755.121521 409.609192,755.536194 
	C402.477325,757.105469 395.369263,758.836548 388.174622,760.044556 
	C384.462891,760.667786 382.785400,762.541443 381.752747,765.918213 
	C380.297455,770.676880 378.694092,775.426697 376.666992,779.962585 
	C375.045258,783.591370 376.082947,785.471008 379.438660,786.941040 
	C386.136353,789.875000 392.768524,792.958374 400.115021,796.311157 
M475.646545,612.088806 
	C480.474884,609.468872 485.275635,606.796387 490.138214,604.241577 
	C497.095154,600.586426 497.614807,598.519043 493.474731,591.637756 
	C491.538361,588.419312 489.713623,587.285400 485.964355,589.596863 
	C467.804260,600.792664 449.048218,610.846558 428.831940,617.928772 
	C427.597656,618.361206 426.331421,618.881165 425.517761,620.304993 
	C426.080750,622.392090 427.101440,624.592407 427.174469,626.823669 
	C427.279877,630.044922 428.786346,630.831299 431.590973,630.598206 
	C435.580902,630.266541 439.514862,629.858521 443.238556,628.144958 
	C453.973389,623.205017 464.607452,618.067261 475.646545,612.088806 
M529.609802,604.207458 
	C531.081604,599.616760 532.679688,595.061523 533.980591,590.422913 
	C534.836365,587.371216 532.281616,584.892395 529.553040,586.284790 
	C526.345825,587.921448 522.946716,588.404785 519.590698,589.303162 
	C517.438782,589.879272 514.416687,590.435059 514.535706,593.302856 
	C514.762329,598.760071 511.130646,600.956238 507.244751,602.950317 
	C492.299194,610.619629 477.289093,618.162964 462.326202,625.798645 
	C461.504730,626.217834 460.051697,625.967529 460.051178,627.537598 
	C472.831299,626.418701 485.100586,622.256531 497.844421,621.143982 
	C505.097778,620.510803 512.019531,615.764343 519.667908,619.361328 
	C520.960205,619.969116 522.025574,618.461792 523.085693,617.684875 
	C527.393250,614.528137 527.390869,609.258057 529.609802,604.207458 
M414.221100,732.630798 
	C417.870300,731.477234 421.562103,730.441467 425.158447,729.141663 
	C430.178467,727.327332 430.782227,725.735168 428.347321,720.876770 
	C426.189270,716.570618 422.999054,712.782288 421.638275,708.084106 
	C420.789490,705.153625 419.009308,704.580933 416.359283,705.295837 
	C411.063721,706.724365 405.785736,708.231934 400.449615,709.491272 
	C396.938446,710.319885 395.203979,711.925842 394.976135,715.875061 
	C394.635956,721.770935 392.799469,727.314087 388.099396,731.449463 
	C386.654205,732.720886 384.443634,733.802673 385.663361,736.276611 
	C386.809937,738.602234 389.133545,737.949463 391.022583,737.682495 
	C398.606415,736.610596 406.035492,734.780701 414.221100,732.630798 
M628.254700,639.291626 
	C596.829834,618.110901 565.404968,596.930176 533.890747,575.689209 
	C532.077698,578.058105 532.033875,579.757263 534.087646,581.263367 
	C535.161316,582.050720 536.223755,582.859924 537.344666,583.575500 
	C570.623535,604.818481 603.175049,627.144165 635.684692,649.534119 
	C637.926758,651.078369 639.965271,653.197937 642.857239,653.530884 
	C644.934753,651.080322 644.079712,649.468445 641.885132,648.075806 
	C637.525269,645.309265 633.191040,642.502136 628.254700,639.291626 
M551.303223,636.034363 
	C557.501343,634.030029 558.594788,633.173523 559.826538,629.357727 
	C554.064270,630.752808 548.282288,633.173706 542.546753,629.434143 
	C547.484680,626.422913 554.154602,628.256104 558.542114,623.153870 
	C556.203735,621.863770 554.638733,622.636169 553.047852,623.027954 
	C548.152039,624.233765 543.191956,624.670227 538.178406,624.051636 
	C536.717957,623.871460 535.033142,623.683655 534.549866,621.921814 
	C534.047607,620.090942 535.642090,619.373840 536.715637,618.362122 
	C538.013794,617.138733 540.474731,616.864258 540.414062,613.939209 
	C532.953003,614.745483 528.177490,619.400879 523.733459,624.299744 
	C521.629272,626.619263 524.352356,633.882141 527.290161,634.650635 
	C534.919617,636.646179 542.631470,637.642822 551.303223,636.034363 
M369.458069,300.828522 
	C371.165222,304.148560 374.087677,304.300323 377.176910,303.614258 
	C379.987091,302.990204 381.375061,300.796448 381.546326,298.173248 
	C382.000977,291.211273 382.340668,284.214417 381.529663,277.266876 
	C381.110504,273.675781 379.336334,271.206055 375.031281,271.191071 
	C370.695099,271.175995 368.804352,273.823669 368.493011,277.272858 
	C367.808014,284.860504 367.415894,292.513458 369.458069,300.828522 
M394.345459,569.154358 
	C399.365997,573.305481 406.235809,573.636963 412.394623,570.025391 
	C416.778473,567.454651 417.731354,564.195984 416.249451,556.824707 
	C416.085571,556.009521 415.800507,555.205200 415.744843,554.384155 
	C415.531250,551.235168 413.856293,550.081543 410.779358,550.264343 
	C405.283264,550.590820 399.902954,551.596497 394.504364,552.580750 
	C390.067047,553.389893 388.719025,555.545349 390.185852,559.942566 
	C391.189575,562.951538 391.937408,566.003479 394.345459,569.154358 
M623.812988,719.414490 
	C629.444580,700.779358 635.033936,682.131226 640.750427,663.522217 
	C641.678101,660.502380 640.733276,659.222229 637.430908,658.694153 
	C636.510376,661.863342 635.610779,664.869141 634.764282,667.889771 
	C629.778931,685.678833 624.767822,703.460876 619.885315,721.278198 
	C619.376526,723.134888 617.384521,725.601929 621.190369,727.384094 
	C622.064758,724.809814 622.851501,722.493713 623.812988,719.414490 
M444.702850,563.223206 
	C452.386200,560.794434 455.837891,551.651672 451.669617,544.938721 
	C450.268463,542.682129 448.038269,543.045471 446.327820,543.598022 
	C441.430023,545.180237 434.517151,543.167175 431.886200,548.475769 
	C428.771027,554.761353 436.654877,563.808960 444.702850,563.223206 
M421.895905,735.396423 
	C399.159454,741.715942 376.171967,746.044861 351.396606,742.805115 
	C357.762970,751.398438 411.431519,744.103394 424.659912,735.431824 
	C424.044922,734.512390 423.259125,734.905457 421.895905,735.396423 
M661.675537,647.334778 
	C649.866211,650.290527 649.866211,650.290527 649.247131,653.290283 
	C654.070374,653.739624 712.626160,637.192871 714.053162,634.968018 
	C713.766296,634.821899 713.435059,634.496765 713.198792,634.555298 
	C696.290405,638.736938 679.389465,642.949219 661.675537,647.334778 
M517.284790,639.490356 
	C517.886414,636.686218 517.894104,633.871521 517.242554,631.087402 
	C515.506470,623.668884 513.480225,622.967224 506.625488,627.507751 
	C508.014282,632.179443 509.229523,636.961731 508.703918,642.258240 
	C511.855347,642.211792 514.582703,642.125122 517.284790,639.490356 
M690.833191,676.214111 
	C687.260376,686.642456 683.687622,697.070862 680.114807,707.499207 
	C684.743103,701.580505 701.715942,650.686096 701.219604,645.750427 
	C695.706848,654.878723 694.971375,665.743408 690.833191,676.214111 
M506.556427,588.930664 
	C502.648529,579.857971 500.981903,579.413513 494.707214,586.149902 
	C498.050537,589.368958 498.930908,594.059875 501.148987,598.083252 
	C505.361389,596.527832 509.371826,595.232727 506.556427,588.930664 
M540.093628,599.731262 
	C540.293335,597.133850 543.725037,594.205872 538.898132,591.470398 
	C536.931824,597.752014 535.102234,603.596924 533.033264,610.206604 
	C539.331055,608.911011 538.098206,603.696289 540.093628,599.731262 
M522.302917,645.929321 
	C517.959656,657.014343 517.816345,658.025818 520.705383,661.285278 
	C522.837952,654.052246 525.735840,647.458862 525.858582,639.937683 
	C524.801453,641.726868 523.744324,643.516052 522.302917,645.929321 
M816.261597,627.521729 
	C815.626709,629.353333 814.991821,631.184998 814.356873,633.016602 
	C821.144165,618.111877 825.961792,602.659485 828.920288,586.645630 
	C825.221985,600.169128 821.510132,613.687439 816.261597,627.521729 
M824.436096,475.109009 
	C824.904846,477.484528 825.373535,479.860046 826.082947,483.455048 
	C826.399170,475.472260 822.716736,457.203461 819.728210,451.022125 
	C821.335510,459.094330 822.847107,466.686066 824.436096,475.109009 
M641.819153,675.210266 
	C640.892395,678.484558 639.965637,681.758789 639.038879,685.033081 
	C639.386536,685.126770 639.734192,685.220459 640.081909,685.314209 
	C642.601440,677.554382 645.121033,669.794556 647.640564,662.034790 
	C647.139709,661.880737 646.638855,661.726685 646.138000,661.572632 
	C643.295715,665.339294 643.713013,670.250732 641.819153,675.210266 
M593.684448,643.241943 
	C594.667603,639.007324 596.633545,634.998657 597.087708,629.573425 
	C594.558044,634.614868 588.085266,655.534546 588.193054,658.316406 
	C590.902039,653.563171 591.530396,648.537659 593.684448,643.241943 
M532.985718,560.824768 
	C533.734253,560.312378 534.974304,560.217102 534.674011,558.577881 
	C531.039307,557.900391 527.833618,558.611450 524.855469,561.180664 
	C527.679382,564.005981 529.992310,561.623718 532.985718,560.824768 
M420.841858,624.895996 
	C419.880859,620.547791 417.518982,622.060425 414.764984,623.428772 
	C416.353821,625.835876 418.002075,627.624756 420.940063,628.976135 
	C420.940063,627.463318 420.940063,626.509460 420.841858,624.895996 
M527.466309,654.839417 
	C527.521484,655.305786 527.576721,655.772217 527.631958,656.238586 
	C527.778748,656.202637 528.023621,656.207764 528.058228,656.124939 
	C529.913940,651.689087 531.429443,647.155945 531.542908,642.202698 
	C530.235901,646.218994 528.928833,650.235229 527.466309,654.839417 
z"/>
<path fill="#000000" opacity="1.000000" stroke="none" 
	d="
M574.933105,259.293121 
	C574.224976,264.579712 571.412720,268.569885 568.931335,272.667053 
	C567.447693,275.116852 565.087769,275.442200 562.346619,274.470062 
	C559.059631,273.304321 555.692383,272.309113 552.291992,271.540497 
	C550.436707,271.121094 548.296204,270.625122 546.722778,272.656342 
	C546.866699,275.570282 549.382385,275.771118 551.298523,276.383698 
	C554.779419,277.496521 558.396240,278.184875 561.874512,279.304688 
	C570.592957,282.111603 576.189880,287.877808 577.047546,297.183563 
	C577.982605,307.329651 575.194946,316.198181 565.647156,321.363953 
	C553.038391,328.185852 540.368469,326.835938 527.899780,320.654877 
	C526.732300,320.076111 525.623596,319.378784 524.173584,318.558929 
	C522.438843,323.483002 518.570129,323.797455 514.209778,324.409637 
	C504.053528,325.835571 497.163666,322.423676 493.211243,312.871979 
	C492.360168,310.815216 491.027222,308.803314 488.266418,306.930847 
	C488.266418,310.908752 488.279114,314.322540 488.263214,317.736176 
	C488.243256,322.012268 486.038086,324.178375 481.803131,324.259338 
	C478.640808,324.319855 475.473816,324.383698 472.314148,324.282898 
	C467.243805,324.121124 465.316376,322.148712 465.346161,317.239105 
	C465.462311,298.085754 465.616058,278.932617 465.732605,259.779266 
	C465.777954,252.328156 467.362915,250.723801 474.860168,250.706802 
	C487.853760,250.677338 487.851074,250.677429 488.229492,263.445221 
	C488.258698,264.431122 488.361847,265.414886 488.482605,267.144257 
	C492.051910,264.743073 493.434296,261.370758 495.179993,258.350098 
	C499.150208,251.480179 512.356934,247.752747 519.150696,251.733597 
	C522.315796,253.588196 522.276428,256.148438 520.396606,258.939270 
	C515.934753,265.563690 511.485840,272.197021 506.988434,278.797241 
	C502.302704,285.673889 502.327118,285.627808 506.888672,292.483521 
	C510.023987,297.195648 512.982300,302.025208 516.070129,306.769470 
	C517.594238,309.111237 518.987244,311.583801 521.662292,313.537689 
	C523.384705,310.194855 524.840637,306.914612 526.692444,303.875641 
	C529.947510,298.533783 531.919617,298.069489 537.220703,301.301300 
	C542.013489,304.223175 546.807983,304.423706 551.829712,302.161957 
	C551.874573,299.840485 550.147339,299.712158 548.829834,299.227844 
	C545.238342,297.907562 541.583679,296.751770 538.025513,295.349396 
	C526.902832,290.965515 521.589905,282.287476 522.846252,270.738281 
	C524.039062,259.772247 531.427490,251.770889 542.712463,250.121750 
	C552.099792,248.749893 561.322571,249.831772 569.953369,254.197433 
	C572.074402,255.270248 574.011414,256.523621 574.933105,259.293121 
z"/>
<path fill="#000000" opacity="1.000000" stroke="none" 
	d="
M745.944214,535.334106 
	C745.995361,537.453857 746.265076,539.154663 746.015869,540.775696 
	C745.192688,546.129517 745.521423,550.765076 751.022583,553.860901 
	C753.364807,555.179016 752.939331,557.811035 751.764587,560.130188 
	C747.620300,568.311768 742.817261,576.092102 737.636353,583.649658 
	C735.776123,586.363281 733.439819,586.815674 730.790222,585.002319 
	C728.065308,583.137390 725.822876,583.601746 723.060852,585.314209 
	C709.176392,593.922668 708.256836,593.800232 694.812927,584.641235 
	C692.139160,582.819702 689.348145,581.170166 685.648010,578.832947 
	C690.757812,587.115723 689.612732,588.902893 681.377441,592.101013 
	C675.498474,594.384094 671.076904,593.598938 666.269592,589.867676 
	C660.891846,585.693726 655.014954,582.164307 649.373596,578.327576 
	C647.626526,577.139404 645.314880,576.199280 646.170471,573.384155 
	C646.999268,570.657166 647.872498,567.939819 651.314758,567.310913 
	C655.923767,566.468994 660.553467,566.707031 665.449158,567.028870 
	C665.370117,564.391052 663.387329,563.573853 661.874939,562.513428 
	C654.517517,557.354980 647.165344,552.185669 639.701172,547.184570 
	C636.463013,545.014893 635.903992,542.728394 637.703979,539.220703 
	C646.516235,522.047119 655.085510,504.748779 663.900391,487.576538 
	C667.328247,480.898682 668.667358,480.604797 675.141907,484.259003 
	C697.175842,496.694916 718.821838,509.785553 740.490479,522.843018 
	C745.479248,525.849243 745.237976,530.372925 745.944214,535.334106 
M702.532227,513.032043 
	C694.370911,508.191406 686.229858,503.316040 678.041382,498.521729 
	C672.128723,495.059875 671.693909,495.237396 668.636597,501.147675 
	C662.595276,512.826233 656.768616,524.626221 650.344666,536.091064 
	C648.126099,540.050537 648.856567,541.795410 652.354187,544.007141 
	C665.294128,552.189697 678.078308,560.618530 690.942261,568.921875 
	C695.065063,571.583069 698.883850,574.830139 703.895447,576.222900 
	C712.550781,560.399475 721.068420,544.827820 729.696350,529.054504 
	C720.592529,523.677368 711.880310,518.531555 702.532227,513.032043 
M721.294556,579.667847 
	C724.615356,577.726746 727.834473,575.459961 731.681396,578.825012 
	C733.171448,580.128357 734.480103,579.102539 735.339294,577.659607 
	C739.395447,570.847351 743.429443,564.021851 747.804016,556.639832 
	C736.363159,553.111206 742.362793,543.559570 740.046204,536.013184 
	C731.578491,551.234497 723.373535,565.983459 715.093018,580.868225 
	C717.962463,582.074646 719.172546,580.557495 721.294556,579.667847 
M730.341492,535.694214 
	C724.386475,546.852478 718.254150,557.921204 712.556824,569.209473 
	C709.989807,574.295593 706.645691,578.549927 702.200134,582.038147 
	C705.987244,585.724304 707.841125,583.204590 709.551941,580.167480 
	C718.130005,564.940002 726.648926,549.678711 735.316101,534.502136 
	C739.269470,527.579651 739.281921,527.346252 731.571411,524.965210 
	C733.450439,528.853821 733.450439,528.853821 730.341492,535.694214 
M676.372192,584.768921 
	C677.907227,584.386780 679.895264,584.885986 680.913818,582.621704 
	C675.024048,583.101929 674.078003,582.129333 675.834290,576.764282 
	C677.353943,572.122253 674.419373,571.045959 671.268860,569.639709 
	C669.231140,571.508240 669.981506,575.203552 666.442078,575.920532 
	C664.579651,572.875427 662.605835,569.566772 658.168762,572.725220 
	C661.175537,575.985535 671.844482,583.305115 676.372192,584.768921 
z"/>
<path fill="#000000" opacity="1.000000" stroke="none" 
	d="
M410.137360,253.240265 
	C411.337677,251.902527 412.550323,251.257629 413.896027,251.190170 
	C423.878265,250.689713 433.920898,250.000885 443.837494,251.223999 
	C459.679657,253.177948 464.067474,265.228058 462.911469,280.501465 
	C462.550323,285.273315 460.687775,289.584808 457.183594,292.954102 
	C454.518677,295.516418 454.196838,298.160736 455.793243,301.442627 
	C457.902557,305.779022 459.613586,310.308197 461.693756,314.659943 
	C464.432007,320.388336 462.341980,324.012299 455.948364,324.313324 
	C455.782074,324.321167 455.615082,324.317413 455.448486,324.315796 
	C439.534973,324.159729 442.456604,326.003693 435.969299,312.651855 
	C434.693146,310.025391 434.027283,307.002960 431.344818,304.553131 
	C429.427032,308.424835 430.446167,312.216278 430.377930,315.823639 
	C430.249664,322.606140 428.910400,324.165344 422.323639,324.246155 
	C408.052185,324.421265 407.610382,324.120850 407.989899,309.782166 
	C408.364319,295.634674 409.105835,281.504486 407.952667,267.351166 
	C407.573029,262.691986 408.625153,258.084930 410.137360,253.240265 
M437.561310,280.265625 
	C440.255066,277.047821 440.181549,273.457672 437.263367,271.995239 
	C435.598206,271.160797 433.570587,270.749878 432.166016,272.279602 
	C430.559784,274.028931 431.058899,276.440308 431.517090,278.465729 
	C432.188385,281.433105 434.763733,280.587921 437.561310,280.265625 
z"/>
<path fill="#000000" opacity="1.000000" stroke="none" 
	d="
M655.218506,254.639038 
	C660.564697,258.612061 663.606506,263.728699 664.795410,269.780670 
	C666.994873,280.976440 667.170837,292.329590 665.330994,303.541107 
	C663.200623,316.523285 653.628113,324.602234 640.491211,325.244293 
	C636.523071,325.438202 632.433594,325.660126 628.566711,324.954285 
	C615.609192,322.589264 607.859009,314.079010 607.071106,300.508545 
	C606.514282,290.916718 606.120300,281.236847 607.567993,271.620087 
	C609.352478,259.766235 614.772583,253.178436 626.452148,250.694672 
	C636.212769,248.618973 646.003479,248.833679 655.218506,254.639038 
M642.913147,297.229736 
	C644.379150,290.983124 644.121826,284.762939 642.935791,278.486328 
	C641.832947,272.649811 640.258179,270.909637 635.649292,271.054230 
	C630.325378,271.221222 629.635986,275.280792 629.386414,279.064240 
	C629.015869,284.680664 629.252319,290.340118 629.307129,295.980530 
	C629.344482,299.822540 630.728088,302.944672 634.881042,303.671112 
	C639.223938,304.430756 641.835754,302.290771 642.913147,297.229736 
z"/>
<path fill="#000000" opacity="1.000000" stroke="none" 
	d="
M413.012421,409.450287 
	C406.162231,409.163849 405.753113,408.794647 405.741272,402.497559 
	C405.707489,384.507446 405.690033,366.517242 405.717834,348.527130 
	C405.726868,342.692780 406.631714,341.759308 412.331696,341.724579 
	C426.065216,341.640839 424.426178,340.944031 428.603210,352.737091 
	C430.214539,357.286346 431.948181,361.794098 433.721527,366.283051 
	C434.305450,367.761230 434.508484,369.620911 436.550812,370.145660 
	C438.560669,369.469513 438.997711,367.558228 439.622437,365.901642 
	C442.029205,359.519806 444.529388,353.162048 446.603088,346.670227 
	C447.690369,343.266327 449.543060,341.646484 453.040131,341.697021 
	C456.204498,341.742798 459.372498,341.787415 462.534424,341.688690 
	C466.407837,341.567749 468.003418,343.649170 468.017273,347.206238 
	C468.092010,366.359802 468.136444,385.513550 468.157166,404.667236 
	C468.160370,407.628784 466.723663,409.111023 463.599030,409.398193 
	C450.111206,410.637604 449.893829,410.500122 449.900391,397.102875 
	C449.902252,393.303955 449.900665,389.505066 449.900665,384.389679 
	C446.506744,388.478546 445.550415,392.344788 444.275421,395.885223 
	C442.625336,400.467163 439.289124,400.397095 435.481140,400.503326 
	C431.760223,400.607086 430.078888,398.777618 429.057983,395.546814 
	C428.171631,392.741760 426.972046,390.035706 425.631622,386.562225 
	C423.276703,389.927490 424.433624,392.934448 424.096100,395.687042 
	C423.975037,396.674438 424.013947,397.683289 424.007172,398.682587 
	C423.935791,409.220856 423.937317,409.220856 413.012421,409.450287 
z"/>
<path fill="#000000" opacity="1.000000" stroke="none" 
	d="
M721.830566,341.663574 
	C728.538513,342.002716 728.640564,342.532532 728.622803,348.848236 
	C728.575684,365.621796 728.851074,382.396454 729.034485,399.170288 
	C729.142456,409.044922 728.804993,408.924988 719.180176,409.520752 
	C712.256226,409.949341 708.306580,407.402130 705.706238,401.241608 
	C703.772583,396.660461 701.158508,392.361572 698.764465,387.982300 
	C697.932129,386.459778 697.558777,384.447815 695.087769,383.973358 
	C693.077332,387.911682 694.203735,392.109955 694.219421,396.118225 
	C694.277344,410.955658 694.744690,409.342316 679.972839,409.347198 
	C676.292542,409.348419 674.824707,407.323700 675.067261,403.957855 
	C676.288574,387.012878 675.218933,370.052185 675.495605,353.101501 
	C675.683960,341.559418 675.647461,341.737457 687.517151,341.577271 
	C692.130798,341.515015 694.754333,342.937317 696.689697,347.329071 
	C700.215393,355.329590 704.473145,363.007599 708.940430,371.838165 
	C711.274536,365.318237 709.795044,359.885406 709.999146,354.562195 
	C710.075500,352.571625 709.851379,350.571167 709.816406,348.574341 
	C709.717712,342.945160 710.790649,341.816895 716.375916,341.676056 
	C718.039307,341.634094 719.704773,341.669891 721.830566,341.663574 
z"/>
<path fill="#000000" opacity="1.000000" stroke="none" 
	d="
M646.534241,439.184448 
	C646.609436,434.431183 646.725952,430.103058 646.702698,425.775726 
	C646.680359,421.629517 649.168213,420.222870 652.764587,420.113983 
	C654.408142,420.064240 656.067139,420.567719 657.712585,420.530121 
	C661.792480,420.437012 663.311096,422.483368 663.369995,426.376038 
	C663.498413,434.862244 663.942688,443.344543 664.010132,451.830383 
	C664.038452,455.396637 665.225464,456.797699 668.954773,456.877472 
	C680.585205,457.126343 680.579834,457.261383 680.804688,445.446930 
	C680.833191,443.948181 680.834717,442.444122 680.965881,440.952820 
	C682.656677,421.721558 700.267395,412.997437 716.889832,423.211090 
	C721.687683,426.159058 723.746094,430.610779 723.550476,436.271942 
	C723.361206,441.750854 723.215332,447.253510 723.501953,452.722076 
	C724.100342,464.141449 719.710571,470.199585 708.536743,472.767975 
	C697.405579,475.326538 688.617371,471.963562 682.668274,462.796417 
	C681.714172,464.187439 682.406128,465.681702 682.308044,467.068176 
	C682.067139,470.474304 680.451660,472.330109 676.977478,472.330536 
	C668.651123,472.331512 660.324768,472.301910 651.998413,472.276184 
	C648.203308,472.264465 646.747925,470.261749 646.755066,466.571930 
	C646.772400,457.584808 646.606506,448.597290 646.534241,439.184448 
M706.982056,439.717773 
	C706.450684,437.213104 704.850220,436.049713 702.350952,436.185486 
	C699.812317,436.323364 699.060852,438.348541 698.731384,440.296326 
	C697.951050,444.910522 698.196350,449.534698 699.302002,454.098938 
	C699.764404,456.007629 701.046387,456.801178 702.922424,456.826660 
	C705.032837,456.855347 706.270630,455.932007 706.793213,453.790131 
	C707.869934,449.377136 708.159668,444.971771 706.982056,439.717773 
z"/>
<path fill="#000000" opacity="1.000000" stroke="none" 
	d="
M632.747925,508.467285 
	C633.759033,511.530823 634.661682,514.238892 633.785950,517.125977 
	C633.032288,519.610779 631.961792,521.871765 629.114136,522.443420 
	C626.026489,523.063232 623.493347,521.937561 621.720337,519.409607 
	C619.556458,516.324463 618.644287,512.809814 618.679688,509.041992 
	C618.721985,504.545319 618.809998,500.047363 618.740417,495.552094 
	C618.706360,493.346893 618.298218,490.922607 615.913452,490.181396 
	C613.726868,489.501770 612.847168,491.818909 611.772278,493.158478 
	C609.545227,495.934021 607.260315,498.575073 603.578125,499.311432 
	C599.763733,500.074249 599.297791,502.398712 600.324219,505.627533 
	C602.945312,513.872375 605.393921,522.174866 608.175537,530.364624 
	C609.654541,534.719299 608.842163,537.210022 604.090210,538.459839 
	C596.858093,540.361938 589.724426,542.647278 582.578552,544.865540 
	C578.480835,546.137634 577.173889,543.512817 576.202820,540.474487 
	C571.997498,527.316406 567.812805,514.151611 563.683716,500.969452 
	C561.545532,494.143219 559.680664,487.228546 557.419617,480.444733 
	C556.086365,476.444824 557.505127,474.536621 561.275757,473.477203 
	C568.161499,471.542542 575.034668,469.549316 581.848083,467.376526 
	C586.197998,465.989319 588.426147,467.605896 589.623047,471.752197 
	C591.421570,477.982758 593.284241,484.202393 595.382263,490.336853 
	C597.503113,496.538147 601.847473,497.438385 606.596741,492.795685 
	C607.773560,491.645264 608.697998,490.221924 609.656311,488.865936 
	C611.305969,486.531647 613.417603,484.991272 616.368835,485.361084 
	C619.549805,485.759644 621.213928,488.046295 622.275757,490.825195 
	C624.062866,495.502319 623.112549,500.383148 623.265137,505.180969 
	C623.365051,508.323669 622.749451,511.534637 623.983154,514.569519 
	C624.663269,516.242737 625.369141,518.413757 627.670349,517.890320 
	C629.960999,517.369263 629.718811,515.141174 629.558716,513.311646 
	C629.457947,512.160034 628.921997,511.033691 628.902100,509.890442 
	C628.849670,506.887878 630.093262,506.203308 632.747925,508.467285 
M576.787842,527.054749 
	C577.565735,529.398499 578.343628,531.742188 579.121521,534.085938 
	C578.053467,530.169739 578.020752,526.725159 583.796631,524.924805 
	C580.202087,523.553345 577.316467,525.314148 575.521301,522.694092 
	C575.860291,523.927185 576.199341,525.160339 576.787842,527.054749 
M576.032593,508.154053 
	C576.728577,511.570770 577.592163,514.920166 579.830811,517.719360 
	C578.678589,514.323792 579.425415,510.199493 576.032593,508.154053 
z"/>
<path fill="#000000" opacity="1.000000" stroke="none" 
	d="
M642.325562,391.995483 
	C642.316284,396.493591 642.312012,400.492889 642.318115,404.492157 
	C642.323120,407.761566 640.789734,409.358826 637.430603,409.367584 
	C621.002930,409.410522 623.924744,410.387634 623.664124,396.475281 
	C623.636047,394.976288 623.692139,393.475891 623.692078,391.976166 
	C623.691833,384.362274 623.629517,384.303162 615.783752,384.229614 
	C608.284668,384.159332 608.277405,384.159363 608.263916,391.650238 
	C608.257324,395.316223 608.289734,398.982300 608.291199,402.648315 
	C608.291626,403.647095 608.541260,404.775238 608.171631,405.624298 
	C605.000732,412.908813 598.640198,408.309418 593.790588,409.230499 
	C590.455688,409.863953 589.322998,407.452026 589.353455,404.193848 
	C589.526306,385.702148 589.574585,367.209290 589.657166,348.716766 
	C589.684998,342.471588 590.298889,341.833679 596.488159,341.745270 
	C608.010986,341.580597 608.014099,341.580566 608.209473,352.975342 
	C608.235168,354.474396 608.212463,355.974304 608.209595,357.473816 
	C608.191650,366.803894 610.555298,368.644409 619.882996,366.750275 
	C622.764221,366.165222 623.636658,364.298065 623.638733,361.705994 
	C623.642639,356.873749 623.810669,352.030731 623.544250,347.212463 
	C623.311279,343.000763 625.071045,341.681793 629.117798,341.693542 
	C643.963928,341.736664 642.021973,340.921234 642.219788,354.503937 
	C642.399353,366.832794 642.307312,379.165588 642.325562,391.995483 
z"/>
<path fill="#000000" opacity="1.000000" stroke="none" 
	d="
M522.759644,374.415375 
	C525.996094,384.091888 529.215210,393.354004 532.141296,402.707764 
	C533.900024,408.329742 532.497131,410.036346 526.661438,410.116089 
	C524.334961,410.147888 522.005676,410.029114 519.678589,409.953766 
	C515.938354,409.832642 513.329041,408.358765 512.634644,404.328461 
	C511.956238,400.390900 509.568665,398.695374 505.540436,399.124786 
	C503.732971,399.317413 501.870697,399.254883 500.056580,399.074188 
	C495.796173,398.649811 493.008240,400.008453 492.259613,404.606079 
	C491.688507,408.113342 489.423950,409.595886 485.858887,409.457245 
	C483.543549,409.367188 481.214264,409.700470 478.889099,409.784088 
	C473.127960,409.991211 471.616180,408.070190 473.416595,402.585449 
	C477.511475,390.110870 481.739014,377.679779 485.818054,365.200073 
	C487.831421,359.040192 489.765350,352.847565 491.481995,346.600189 
	C492.429443,343.152130 494.374084,341.676208 497.894257,341.642181 
	C514.157898,341.485016 511.566711,341.097992 516.022461,354.169464 
	C518.274048,360.774841 520.423279,367.415070 522.759644,374.415375 
M500.415192,378.034576 
	C500.249908,379.767578 500.138306,381.492310 502.512360,381.774414 
	C503.514862,381.893524 504.919952,381.916931 505.091736,380.855194 
	C505.520752,378.204346 505.017090,375.697510 502.754639,373.953674 
	C500.988586,374.639374 501.056488,376.158539 500.415192,378.034576 
z"/>
<path fill="#000000" opacity="1.000000" stroke="none" 
	d="
M535.938538,359.337616 
	C539.492554,343.334442 554.538269,339.146545 568.337524,340.998169 
	C572.428650,341.547180 576.414612,342.824524 580.249207,344.586700 
	C583.665649,346.156769 584.204590,348.272369 582.564148,351.359955 
	C582.017151,352.389618 581.533264,353.453705 580.965576,354.471405 
	C577.159546,361.293915 576.929077,361.375824 569.719666,358.690460 
	C561.062073,355.465607 555.248047,358.665894 553.740723,367.760284 
	C552.723694,373.896271 553.093018,380.095215 554.598328,386.109131 
	C556.124329,392.205688 562.825928,394.562866 570.316223,392.184113 
	C572.816223,391.390137 575.286499,388.393158 578.092041,391.062225 
	C581.154724,393.976135 583.063354,397.767822 584.107727,401.825745 
	C584.630981,403.858582 582.734131,405.051239 581.206238,406.093323 
	C571.999695,412.372406 552.926331,411.756104 544.164490,404.973297 
	C539.557007,401.406433 536.793396,396.518127 536.032837,391.039246 
	C534.592834,380.665894 533.641052,370.183502 535.938538,359.337616 
z"/>
<path fill="#000000" opacity="1.000000" stroke="none" 
	d="
M325.002075,341.691162 
	C334.242035,341.610809 334.215881,341.621582 337.652802,349.958618 
	C338.794434,352.727844 340.065002,355.446869 341.363037,358.147308 
	C341.938751,359.345032 342.669495,360.633179 344.268585,360.505249 
	C345.839508,360.379547 346.349060,359.021118 346.844971,357.771240 
	C348.380096,353.902191 349.962463,350.050354 351.410065,346.148651 
	C352.539734,343.103882 354.587677,341.627136 357.849945,341.699951 
	C361.013763,341.770599 364.185272,341.607391 367.344513,341.747192 
	C372.035126,341.954742 373.075226,343.511383 371.082855,347.750519 
	C367.117279,356.187988 363.469116,364.839447 358.722565,372.827759 
	C353.369812,381.836304 353.063660,391.366089 353.298950,401.265747 
	C353.493134,409.436066 353.197815,409.567169 344.876373,409.420074 
	C335.788605,409.259430 333.820740,411.789612 334.873779,398.985901 
	C335.795990,387.772949 332.443451,378.052063 327.357727,368.518433 
	C323.909882,362.055115 320.691162,355.470001 317.289673,348.981445 
	C314.149628,342.991669 314.799957,341.815430 321.528687,341.709076 
	C322.528107,341.693298 323.527893,341.699738 325.002075,341.691162 
z"/>
<path fill="#000000" opacity="1.000000" stroke="none" 
	d="
M635.149536,471.668701 
	C626.864563,473.693085 618.848083,472.029541 610.894104,472.547943 
	C608.014160,472.735626 606.020996,470.940521 605.988525,467.990356 
	C605.831055,453.662811 605.798340,439.333649 605.793274,425.005035 
	C605.792358,422.454163 607.377625,420.871429 609.853149,420.792084 
	C617.671265,420.541443 625.510315,420.288452 633.278564,421.509979 
	C644.923584,423.341095 646.677429,435.572968 643.173279,442.315308 
	C641.996033,444.580536 642.287659,445.995270 643.315186,448.187500 
	C647.045898,456.146606 647.133972,468.611267 635.149536,471.668701 
M626.789673,434.451691 
	C624.985901,434.190491 623.038879,433.737030 622.357605,436.161377 
	C622.021118,437.358612 622.544434,438.407410 623.694580,439.054962 
	C624.969177,439.772552 626.248474,439.786774 627.366821,438.847717 
	C628.896912,437.562958 629.150208,436.148651 626.789673,434.451691 
M622.767944,454.123688 
	C622.373535,457.363129 624.467834,457.161194 626.512817,456.690186 
	C627.802551,456.393158 628.530029,455.180969 627.868286,454.042480 
	C626.626282,451.905731 624.877441,451.728729 622.767944,454.123688 
z"/>
<path fill="#000000" opacity="1.000000" stroke="none" 
	d="
M752.115967,420.532166 
	C753.673645,420.861664 754.823425,421.060333 755.939331,421.378326 
	C766.471313,424.379486 764.278687,428.392609 759.448914,435.429688 
	C758.134033,437.345459 756.041809,436.983612 753.968872,436.683655 
	C741.979614,434.948578 741.071472,435.756989 741.214722,447.914490 
	C741.247498,450.699493 740.724243,453.685150 742.960876,455.976868 
	C744.043457,457.086090 745.556030,458.088654 746.896912,456.780090 
	C748.600464,455.117493 746.924988,454.158508 745.607788,453.420502 
	C741.522888,451.131775 742.818420,447.305878 743.260681,444.065643 
	C743.716675,440.725281 746.586487,439.952026 749.683411,439.763336 
	C764.176697,438.880310 764.675903,439.297150 764.913208,453.620697 
	C764.938049,455.119843 764.891357,456.619995 764.902466,458.119507 
	C764.974731,467.904877 763.461365,469.875519 754.041382,472.370911 
	C748.597351,473.813080 743.187805,473.793701 737.784607,472.172607 
	C729.875793,469.799744 725.029785,463.348785 725.059387,455.074127 
	C725.081360,448.926239 725.122559,442.776428 725.297791,436.631531 
	C725.545959,427.925171 732.365540,421.234711 742.276672,419.986786 
	C745.412720,419.591919 748.596863,419.454620 752.115967,420.532166 
z"/>
<path fill="#000000" opacity="1.000000" stroke="none" 
	d="
M656.143433,341.731201 
	C668.010986,341.774811 668.033386,341.774689 668.090027,353.301208 
	C668.170288,369.624725 668.221497,385.948425 668.268677,402.272095 
	C668.287537,408.787018 668.045837,409.028198 661.689453,409.426117 
	C649.596558,410.183105 649.670471,410.182861 649.633789,398.313416 
	C649.581848,381.496185 650.045593,364.669037 649.080933,347.866699 
	C648.791870,342.833038 651.140259,341.257507 656.143433,341.731201 
z"/>
<path fill="#000000" opacity="1.000000" stroke="none" 
	d="
M360.647156,477.527649 
	C363.751495,476.185760 366.767059,472.623962 369.463806,475.383972 
	C372.176971,478.160797 368.500183,481.082123 367.251892,483.807892 
	C366.075500,486.376740 364.681274,488.845551 363.391937,491.363007 
	C362.719513,492.675903 362.282227,494.486847 360.413208,494.238251 
	C358.338623,493.962341 358.907104,492.013306 358.682526,490.609833 
	C358.607635,490.141937 358.352997,489.702820 357.879578,488.461212 
	C348.071716,494.810577 344.729004,504.773590 341.634369,515.076721 
	C336.630402,513.583984 337.445679,509.973297 337.981506,506.898712 
	C339.461243,498.408508 343.652130,491.308746 349.947968,485.477539 
	C353.127228,482.532837 356.501587,479.809052 360.647156,477.527649 
z"/>
<path fill="#000000" opacity="1.000000" stroke="none" 
	d="
M380.322998,480.195618 
	C387.047028,476.412994 393.743500,473.484955 400.899933,471.775757 
	C402.911224,471.295410 405.388580,470.495087 406.967560,472.555847 
	C408.530792,474.596039 406.604187,476.276855 405.676392,477.948486 
	C404.305817,480.417816 402.835144,482.831726 401.398560,485.264221 
	C400.710052,486.430054 400.013000,487.667877 398.332703,487.172089 
	C396.898285,486.748901 396.775909,485.580017 397.001312,484.349976 
	C397.740540,480.316071 395.541809,480.578918 392.961975,481.641571 
	C385.038544,484.905457 378.103363,489.728668 371.539978,495.175812 
	C369.516754,496.854950 367.115997,500.400208 364.490479,497.618317 
	C362.059052,495.042114 365.167236,492.628418 367.154816,490.612762 
	C371.030792,486.682068 375.282074,483.241089 380.322998,480.195618 
z"/>
<path fill="#000000" opacity="1.000000" stroke="none" 
	d="
M434.410339,500.495422 
	C430.492554,501.025726 427.030304,501.437622 423.532837,501.112396 
	C422.000397,500.969910 420.390472,500.647552 420.138489,498.817413 
	C419.884430,496.971985 421.288849,496.049927 422.819489,495.821747 
	C435.503052,493.930908 448.192932,492.464661 460.692230,496.920135 
	C461.619568,497.250671 462.480408,497.791290 463.334900,498.297211 
	C464.638641,499.069122 466.117126,499.930267 465.396149,501.743317 
	C464.666290,503.578613 463.034851,503.141510 461.539459,502.778961 
	C452.769257,500.652679 443.861908,500.090454 434.410339,500.495422 
z"/>
<path fill="#000000" opacity="1.000000" stroke="none" 
	d="
M335.236603,509.860626 
	C335.405823,513.544312 337.654633,517.256836 333.144470,519.497986 
	C331.901855,520.115417 330.625671,520.701721 329.349121,520.325684 
	C323.865723,518.710388 318.362854,518.050964 312.642853,518.855164 
	C311.175232,519.061462 309.004974,518.605408 309.026733,516.353149 
	C309.044647,514.496643 310.829407,514.167542 312.287933,513.855896 
	C316.061462,513.049622 319.794708,512.901428 323.621063,513.904663 
	C329.603058,515.473145 330.072632,515.065552 329.715973,509.075653 
	C329.377014,503.382843 329.556152,497.787384 331.616150,492.381042 
	C332.317780,490.539673 332.874451,488.605194 335.923553,487.744476 
	C336.390808,495.251587 333.792114,502.341736 335.236603,509.860626 
z"/>
<path fill="#000000" opacity="1.000000" stroke="none" 
	d="
M314.317078,545.461060 
	C316.133423,541.479309 318.141205,538.056274 320.726044,534.992859 
	C321.620728,533.932556 322.656372,533.042358 324.148956,533.775635 
	C325.903473,534.637695 325.764221,536.179993 325.170166,537.631775 
	C323.413788,541.924072 321.519928,546.159973 319.750702,550.447144 
	C317.398926,556.146118 315.843231,562.052673 315.219727,568.203430 
	C315.044556,569.931641 315.365082,572.365967 312.896667,572.495422 
	C310.384399,572.627258 309.872772,570.269958 309.479523,568.313965 
	C308.139618,561.650208 310.747437,555.612610 312.627167,549.473694 
	C313.013397,548.212463 313.638550,547.024414 314.317078,545.461060 
z"/>
<path fill="#000000" opacity="1.000000" stroke="none" 
	d="
M429.061829,486.219299 
	C420.855133,488.010162 413.091003,489.809662 405.859436,493.360779 
	C404.987244,493.789124 403.947662,493.959686 402.965973,494.063171 
	C401.338806,494.234772 399.365479,494.722229 398.529602,492.823944 
	C397.621124,490.760681 399.527802,489.737274 400.900879,489.048950 
	C411.829956,483.570465 423.058899,479.088196 435.629761,479.673096 
	C437.259674,479.748901 439.341980,479.627716 439.588531,481.798645 
	C439.879303,484.358856 437.492493,484.431152 435.819092,484.871307 
	C433.736603,485.419006 431.590485,485.724731 429.061829,486.219299 
z"/>
<path fill="#000000" opacity="1.000000" stroke="none" 
	d="
M409.522339,497.468384 
	C410.498505,499.622528 408.995209,500.382538 407.895081,501.320953 
	C400.555359,507.581787 393.832458,514.412354 388.133728,522.234375 
	C386.934692,523.880188 385.463562,526.446777 383.026978,524.659302 
	C380.872070,523.078491 382.811127,520.957825 383.741577,519.362244 
	C388.943237,510.442444 396.060883,503.404022 405.032745,498.275024 
	C406.311768,497.543762 407.641052,496.769775 409.522339,497.468384 
z"/>
<path fill="#000000" opacity="1.000000" stroke="none" 
	d="
M349.411865,561.373779 
	C349.788879,563.142578 349.899933,564.543274 348.234192,565.045471 
	C346.895386,565.449036 345.946442,564.497131 345.511200,563.395081 
	C343.163696,557.451050 340.480011,551.705078 343.020172,544.877136 
	C344.363617,541.265991 344.083832,537.070862 344.720490,533.169373 
	C345.098907,530.850342 345.071655,528.112732 349.204956,527.045654 
	C350.320282,538.574280 346.076782,549.899414 349.411865,561.373779 
z"/>
<path fill="#000000" opacity="1.000000" stroke="none" 
	d="
M313.205505,529.153320 
	C317.162292,525.667542 321.438110,523.546570 326.161530,522.267395 
	C327.894531,521.798035 329.698608,521.678528 330.476959,523.549622 
	C331.467957,525.931885 329.127136,526.124939 327.776825,526.833923 
	C321.108398,530.335144 315.034790,534.625427 309.869781,540.146851 
	C308.997009,541.079895 308.434937,542.480591 306.062439,542.257568 
	C305.068268,536.216553 309.557922,533.070557 313.205505,529.153320 
z"/>
<path fill="#000000" opacity="1.000000" stroke="none" 
	d="
M354.616699,537.885986 
	C354.979858,534.251526 354.934296,530.888000 358.239685,528.875305 
	C361.053192,532.973755 360.089874,552.602844 357.031860,556.842712 
	C353.073334,554.413513 352.408447,549.373657 354.616699,537.885986 
z"/>
<path fill="#000000" opacity="1.000000" stroke="none" 
	d="
M371.965118,514.905945 
	C370.787659,516.408569 370.183136,518.620422 368.027527,517.249207 
	C366.538849,516.302185 366.825195,514.681458 367.457947,513.189636 
	C370.265717,506.569733 374.833374,501.377563 380.580933,497.192322 
	C381.759399,496.334198 383.432953,495.470428 384.637848,496.935760 
	C385.945526,498.526062 384.464233,499.663849 383.350159,500.653381 
	C378.828400,504.669739 375.071777,509.293579 371.965118,514.905945 
z"/>
<path fill="#000000" opacity="1.000000" stroke="none" 
	d="
M333.212585,530.467529 
	C334.914642,527.488586 335.985321,524.353943 340.353973,523.980713 
	C338.212891,532.137878 336.177063,539.894165 334.144897,547.636475 
	C329.832855,545.843506 329.448395,540.476013 333.212585,530.467529 
z"/>
<path fill="#000000" opacity="1.000000" stroke="none" 
	d="
M356.411377,507.351318 
	C359.526031,505.608887 361.784058,502.413727 366.666901,503.918152 
	C362.443695,508.860474 358.695801,513.305725 354.858032,517.671997 
	C354.301544,518.305115 353.315704,518.188354 352.576813,517.615967 
	C351.536987,516.810486 351.341522,515.671753 351.540222,514.481689 
	C352.036713,511.508911 354.074158,509.532898 356.411377,507.351318 
z"/>
<path fill="#000000" opacity="1.000000" stroke="none" 
	d="
M376.924713,521.694519 
	C374.595398,525.930298 372.464935,529.841736 370.272644,533.718140 
	C369.536774,535.019287 368.625977,536.516235 366.832245,535.553650 
	C365.201904,534.678711 365.449860,532.892944 366.024139,531.571472 
	C368.206604,526.549683 371.601379,522.256104 374.727661,517.813416 
	C375.323792,516.966248 376.505493,516.622742 377.362732,517.356750 
	C378.925232,518.694519 377.613770,520.042114 376.924713,521.694519 
z"/>
<path fill="#000000" opacity="1.000000" stroke="none" 
	d="
M623.785095,539.122070 
	C624.681641,537.724426 625.676514,537.172058 626.870789,537.913452 
	C627.855774,538.524841 627.803101,539.616211 627.425781,540.578735 
	C625.925110,544.407349 624.416138,548.234070 622.812439,552.020020 
	C622.424622,552.935669 621.605774,553.665527 620.434448,553.274841 
	C618.999146,552.796143 618.885742,551.624268 619.324219,550.457642 
	C620.711243,546.767578 622.189758,543.111938 623.785095,539.122070 
z"/>
<path fill="#000000" opacity="1.000000" stroke="none" 
	d="
M771.386719,508.188904 
	C772.743896,507.085693 773.846436,505.491516 775.362244,507.037262 
	C776.343262,508.037567 775.651062,509.250244 774.679504,510.017731 
	C773.422913,511.010284 772.035217,512.565430 770.367798,511.291840 
	C769.044250,510.280945 770.552917,509.312561 771.386719,508.188904 
z"/>
<path fill="#000000" opacity="1.000000" stroke="none" 
	d="
M678.187744,612.307495 
	C681.707764,614.092224 679.425720,615.623108 678.018372,616.658142 
	C676.283997,617.933655 674.764893,620.422180 672.150024,619.358154 
	C670.828979,618.820618 671.312683,617.318970 672.326416,616.497559 
	C674.111084,615.051575 675.997498,613.731201 678.187744,612.307495 
z"/>
<path fill="#000000" opacity="1.000000" stroke="none" 
	d="
M406.509155,586.767822 
	C413.339966,577.306335 422.810547,576.809814 432.688293,578.253418 
	C435.257355,578.628845 440.223938,577.776062 439.638214,581.787476 
	C438.973175,586.341736 434.594971,583.586609 431.728516,583.418762 
	C426.764313,583.128113 421.768097,582.431519 416.982727,584.478149 
	C411.985992,586.615234 408.746918,591.400452 409.074463,596.067017 
	C409.363190,600.180237 411.322235,601.241638 414.820709,598.958008 
	C418.297363,596.688538 421.779297,595.836426 425.536469,598.089905 
	C426.866333,598.887573 428.017944,599.961182 427.326630,601.732727 
	C426.657684,603.446960 425.294861,603.030396 423.970764,602.614746 
	C421.769379,601.923767 419.755798,602.146545 417.904938,603.699219 
	C414.943787,606.183228 411.607422,606.942810 408.286438,604.663391 
	C404.855591,602.308533 403.645203,598.665894 403.924042,594.638794 
	C404.108063,591.980713 405.022095,589.450317 406.509155,586.767822 
z"/>
<path fill="#000000" opacity="1.000000" stroke="none" 
	d="
M407.048706,564.489014 
	C405.382172,564.490906 404.634613,565.449951 403.781219,566.220947 
	C402.833649,567.077026 401.753967,567.549500 400.643005,566.730652 
	C399.493378,565.883301 399.676910,564.605103 400.327789,563.584351 
	C401.747803,561.357300 401.429352,559.605408 399.356598,557.982788 
	C398.543182,557.346069 398.253693,556.299194 398.783936,555.275574 
	C399.192261,554.487366 400.219147,553.718872 400.764984,554.160950 
	C404.044922,556.817566 406.836761,554.256836 410.348022,552.970276 
	C410.641327,556.727356 410.150604,559.921082 411.911774,563.317017 
	C413.360565,566.110474 409.290649,564.855286 407.048706,564.489014 
z"/>
<path fill="#000000" opacity="1.000000" stroke="none" 
	d="
M437.678192,549.052490 
	C444.078583,546.684814 444.983124,550.703857 446.138611,555.155029 
	C446.872253,557.981262 446.222229,559.630249 443.702148,558.239258 
	C440.744324,556.606750 438.982086,561.817261 436.584839,558.912231 
	C434.917938,556.892151 438.370392,554.021729 435.489777,551.655212 
	C434.087799,550.503540 435.308350,548.962891 437.678192,549.052490 
z"/>
</svg>