<svg version="1.1" id="Layer_1" xmlns="http://www.w3.org/2000/svg" xmlns:xlink="http://www.w3.org/1999/xlink" x="0px" y="0px"
	 width="100%" viewBox="0 0 1024 1024" enable-background="new 0 0 1024 1024" xml:space="preserve">
<path fill="#000000" opacity="1.000000" stroke="none" 
	d="
M438.493774,473.587830 
	C442.828369,465.219299 447.714783,457.709320 454.494232,451.581360 
	C455.755219,450.441559 456.922241,449.321381 456.316833,447.317993 
	C454.316345,440.698395 457.148590,435.181793 460.768951,430.089661 
	C462.574188,427.550537 463.165619,425.467682 461.214722,422.934387 
	C460.913910,422.543732 460.533905,422.065704 460.524475,421.620972 
	C460.355621,413.653534 453.788208,410.045990 449.267761,405.062408 
	C435.010132,389.344025 428.172180,370.613037 426.894897,349.683716 
	C426.720917,346.832520 425.893341,344.749054 423.893494,342.671143 
	C418.873230,337.454926 417.617371,330.552063 417.045044,323.777069 
	C416.444458,316.667084 416.749725,309.464874 416.933014,302.309967 
	C417.049042,297.780792 419.049255,294.354218 423.836761,293.102722 
	C425.078735,292.778076 426.476013,292.485718 427.486664,290.626617 
	C423.815918,282.624268 421.844849,273.824280 422.748779,263.754669 
	C417.403809,267.519226 414.353027,272.043030 411.080475,276.350647 
	C409.972870,277.808594 409.029907,279.393799 407.892303,280.826050 
	C406.959900,281.999939 405.877899,283.202728 404.121857,282.633575 
	C402.504456,282.109375 401.933929,280.754272 401.671021,279.176636 
	C400.389374,271.486084 402.416382,264.334076 405.246735,257.332306 
	C407.845093,250.904465 412.277374,245.686890 417.354309,239.720581 
	C408.446686,241.338120 400.838470,244.175079 393.317566,247.369919 
	C390.857971,248.414749 388.151703,251.191116 385.584869,248.652786 
	C382.989166,246.085846 385.089996,242.880844 386.332306,240.304810 
	C392.767761,226.960449 403.275543,217.413055 415.580872,209.624191 
	C417.665039,208.304993 419.805511,207.074722 421.840759,205.152985 
	C416.328186,204.169800 410.877808,204.255951 405.385895,204.656799 
	C401.908051,204.910660 397.204193,207.207657 395.453033,202.999359 
	C393.754700,198.917999 398.450348,196.820221 401.170959,194.712021 
	C421.209747,179.184128 444.126343,171.829163 470.279053,171.263809 
	C464.405945,167.555771 458.538574,166.078415 452.957550,163.915573 
	C450.011841,162.774033 445.186218,162.788452 445.319550,158.751129 
	C445.462402,154.424652 450.368958,154.483124 453.568298,153.846512 
	C484.787994,147.634308 515.165588,149.986374 544.378723,163.292419 
	C545.121582,163.630783 545.872437,163.951569 547.354553,163.625076 
	C545.118225,160.942612 542.890503,158.252945 540.642700,155.580170 
	C539.143738,153.797745 537.369873,152.191910 536.157898,150.235214 
	C534.236389,147.133011 535.651184,144.756424 539.233704,145.322525 
	C543.482727,145.993958 547.748962,147.005112 551.789856,148.470001 
	C572.791138,156.083405 591.436584,167.340286 606.209045,184.422165 
	C606.635925,184.915756 607.164490,185.321365 608.289429,186.365601 
	C608.204224,180.302643 607.260986,175.102722 605.874451,169.931381 
	C605.342041,167.946121 604.011475,165.463226 606.634094,164.119720 
	C608.998779,162.908310 610.726562,164.899887 612.211731,166.409470 
	C620.904053,175.244522 626.046021,185.979370 627.951416,198.094727 
	C628.593567,202.177902 630.277161,202.932037 633.793884,202.700409 
	C642.707581,202.113312 650.994995,204.246689 658.479004,209.143219 
	C660.324219,210.350479 663.106628,211.486160 662.108887,214.403381 
	C661.193481,217.079773 658.482300,216.102280 656.419922,216.182312 
	C652.335999,216.340805 648.185364,215.709305 644.064880,216.987534 
	C644.645203,219.620270 647.010315,219.856079 648.455688,221.035858 
	C661.050537,231.316238 669.018799,244.452011 672.962585,260.127228 
	C673.204773,261.089691 673.273499,262.098541 673.387390,263.089874 
	C673.595886,264.904663 674.073242,266.883820 672.096008,268.032349 
	C670.184387,269.142731 668.601562,268.003601 667.080017,266.912323 
	C664.165771,264.822144 661.241699,262.745636 657.204102,259.866577 
	C663.504639,279.519257 659.071777,296.637939 651.116577,313.220856 
	C649.681824,316.211700 651.011047,318.276581 652.159241,320.663422 
	C659.788757,336.522339 654.302246,356.985809 640.271851,365.311096 
	C636.904907,367.308929 633.266113,368.655457 629.446106,368.838135 
	C625.810608,369.011963 624.260864,370.806763 623.026123,373.902771 
	C619.940857,381.639221 614.841797,388.273376 610.153870,395.527832 
	C612.753235,396.937744 614.956116,398.032715 617.060669,399.292023 
	C624.530334,403.761963 627.289795,409.617188 625.691650,418.222992 
	C625.215210,420.789124 625.737915,422.636871 627.353882,424.609802 
	C636.164795,435.367310 638.659180,447.016541 631.754395,459.739288 
	C630.797119,461.503143 631.163147,462.840363 631.967041,464.393890 
	C639.932678,479.788361 642.448242,496.590485 644.120300,513.500427 
	C645.926086,531.761780 646.161865,550.099304 643.267334,568.287720 
	C641.223938,581.127686 638.866760,593.998657 629.102783,603.831909 
	C628.633301,604.304688 628.226624,604.955627 627.653809,605.192749 
	C619.913940,608.396667 621.168701,614.427368 622.799927,620.550354 
	C624.255615,626.014771 625.690125,631.487915 627.307373,636.905518 
	C629.690735,644.889709 627.573425,651.771240 622.100281,657.638000 
	C619.839417,660.061401 619.058044,662.505920 619.232544,665.713989 
	C619.448364,669.681885 619.612915,673.672424 618.468018,677.620361 
	C617.377441,681.380798 615.517334,684.418457 611.721191,685.686584 
	C608.343811,686.814697 607.286072,688.822144 607.263123,692.378662 
	C606.997070,733.530945 606.689636,774.683838 606.107788,815.832581 
	C605.901001,830.457153 605.875793,845.108887 604.461487,859.694519 
	C604.227295,862.109314 605.894653,863.305969 607.288330,864.663513 
	C613.632996,870.843323 620.890137,875.913513 627.791260,881.417419 
	C631.695923,884.531799 635.840393,887.436951 638.704895,891.617310 
	C640.600159,894.383118 642.302673,897.423340 640.415405,900.903625 
	C638.630554,904.194885 635.497437,905.249939 631.998596,905.319519 
	C615.132812,905.655151 599.585205,900.278809 584.227783,894.152222 
	C582.069519,893.291260 580.000427,892.183044 577.952820,891.073364 
	C573.780090,888.812195 571.615234,885.322693 571.701172,880.506409 
	C571.742798,878.174316 571.683411,875.840332 571.727905,873.508301 
	C571.822632,868.540955 572.251526,864.076965 569.261719,859.013550 
	C566.342773,854.070190 566.648621,847.156616 565.792542,841.072205 
	C560.811707,805.674622 554.489014,770.500244 548.278748,735.307373 
	C547.008423,728.108582 545.382568,720.971924 544.151184,713.767151 
	C543.621521,710.668213 542.214844,709.011658 539.051514,708.770325 
	C533.621765,708.355957 528.277771,706.880310 522.387878,707.302124 
	C520.588318,716.565857 520.886658,725.911926 520.422363,735.137878 
	C518.522766,772.886963 516.938721,810.653076 515.473877,848.422119 
	C515.088135,858.369141 511.921356,868.068237 513.831055,878.272949 
	C514.942139,884.210205 511.724915,888.841370 505.740021,891.064697 
	C488.639191,897.417419 471.175415,902.043213 452.785797,902.304749 
	C451.456421,902.323669 450.106232,902.316162 448.797455,902.114746 
	C440.813324,900.886047 438.744904,895.915100 443.495026,889.409424 
	C447.123627,884.439819 452.435242,881.474487 457.314362,878.028442 
	C463.708008,873.512573 470.204254,869.139282 476.720184,864.800537 
	C479.663971,862.840332 480.825684,861.165649 480.092499,856.867554 
	C477.943329,844.268555 477.035431,831.456543 475.679169,818.723877 
	C473.794403,801.030457 471.905396,783.337341 470.090790,765.636597 
	C468.564331,750.746582 467.139801,735.846130 465.673553,720.949951 
	C464.631439,710.363037 463.616302,699.773376 462.535950,689.190430 
	C462.346558,687.335144 461.827881,685.465698 459.817596,684.749878 
	C450.774078,681.529297 450.096222,674.109436 450.896973,666.310791 
	C451.252960,662.843750 450.659698,660.489868 448.111115,657.979248 
	C441.109161,651.081726 438.740753,642.976074 442.465485,633.376953 
	C446.434418,623.148438 449.869049,612.737305 450.308594,600.951599 
	C442.666016,603.046936 435.493561,602.027405 428.664276,598.312256 
	C414.754730,590.745422 407.150818,573.261902 410.165039,555.750000 
	C415.123199,526.944336 425.602875,500.047791 438.493774,473.587830 
M571.730835,425.879150 
	C580.543091,422.288544 589.355347,418.697937 598.066406,415.148560 
	C597.617371,412.901367 597.079224,411.583893 595.343689,410.912598 
	C591.467957,413.641632 587.671021,416.579620 583.613647,419.097717 
	C579.548828,421.620422 575.223816,423.723938 570.264282,426.155457 
	C566.995239,427.319550 563.437866,427.872070 560.886108,430.564056 
	C564.583862,429.757660 567.877563,428.068054 571.730835,425.879150 
M583.375305,464.012848 
	C571.165222,467.429779 559.240417,472.142120 545.942261,473.501740 
	C546.777100,469.834259 548.869080,469.317322 550.619324,468.485291 
	C572.052002,458.296143 595.063293,452.475403 617.275269,444.440643 
	C619.345642,443.691681 621.457520,444.063599 620.992920,446.600037 
	C620.312561,450.314209 622.622192,451.439331 624.900940,453.122620 
	C628.513794,444.327942 625.762085,433.363495 618.611267,427.196228 
	C616.513916,428.106293 615.487305,431.394318 612.261658,430.090973 
	C611.650146,427.429047 613.707397,425.769379 614.545471,423.712982 
	C615.489990,421.395630 616.412170,419.111176 616.820801,416.609894 
	C617.876038,410.151703 615.341003,406.413391 608.035339,402.858154 
	C602.126526,399.982666 602.071350,406.401184 598.751404,407.763824 
	C606.432434,415.642365 605.902466,418.577667 596.092896,423.617523 
	C592.096130,425.670990 588.000122,427.534668 583.921936,429.425720 
	C564.520203,438.422424 545.631531,448.272522 529.909607,463.117523 
	C527.280823,465.599701 525.110718,467.020264 522.062134,463.938202 
	C520.220825,467.522430 518.167419,470.317810 515.122681,472.241180 
	C513.890198,473.019714 513.521545,474.197296 513.215271,475.567322 
	C510.373352,488.281555 509.113312,501.194702 508.602539,514.169739 
	C508.464172,517.684509 508.709778,521.268738 511.566986,524.356506 
	C514.227051,527.231323 514.132446,530.992554 510.946564,533.701721 
	C507.948700,536.250977 504.315277,536.264282 501.318146,533.745667 
	C498.307861,531.216003 497.580383,527.779419 500.034241,524.393250 
	C501.395172,522.515198 501.945160,520.651489 501.874115,518.381470 
	C501.498260,506.371521 502.854675,494.521454 505.692657,481.871765 
	C502.771576,486.656769 498.343781,489.968506 501.753357,495.605896 
	C502.165375,496.287201 501.734680,497.573395 501.504150,498.533508 
	C498.868500,509.510620 497.001404,520.760498 493.292786,531.365356 
	C489.987640,540.816467 491.190948,547.234619 500.354309,551.862122 
	C502.210022,552.799316 503.535889,553.924133 505.750549,552.951843 
	C508.387421,551.794250 511.286835,551.961487 514.124146,551.917847 
	C535.114746,551.595398 556.094604,552.169495 577.077637,552.578735 
	C584.439270,552.722290 584.436768,552.367920 585.739624,544.898499 
	C587.980347,532.051392 587.484863,519.020691 588.676575,506.108521 
	C588.861450,504.105499 588.279663,501.751251 591.719482,500.258362 
	C595.430725,516.164001 594.470886,531.730347 592.727112,547.708130 
	C599.565491,547.249268 606.069641,545.382812 612.481628,550.784973 
	C605.719543,552.970947 599.460449,550.833557 593.094604,553.277344 
	C597.815002,554.381592 601.834839,554.814819 605.362732,556.822998 
	C606.519287,557.481323 607.748169,558.350281 607.105774,559.969299 
	C606.542480,561.389099 605.237732,561.009033 604.080444,560.886108 
	C602.098816,560.675720 600.113098,560.351746 598.128357,560.346436 
	C577.136597,560.290100 556.144043,560.370544 535.153503,560.193726 
	C531.342896,560.161621 529.288635,561.544617 528.155884,565.044495 
	C524.796814,575.423218 524.255188,585.903198 526.653381,596.548523 
	C527.444458,600.060303 529.554321,601.971313 533.120361,602.453491 
	C556.605591,605.629272 580.109619,607.066040 603.803467,604.669556 
	C619.081299,603.124207 628.165955,595.218323 631.469055,580.377258 
	C631.866394,578.591797 632.362976,576.826111 632.700073,575.029968 
	C637.920471,547.210999 636.937500,519.385559 632.297729,491.643677 
	C630.166016,478.897491 626.018799,466.797760 617.759644,456.472900 
	C616.203186,454.527161 615.013123,453.080750 612.050598,454.438354 
	C603.096741,458.541534 593.479431,460.761505 583.375305,464.012848 
M444.625397,230.853882 
	C455.613495,237.282196 467.304138,240.751801 481.168854,239.546112 
	C472.061462,233.599503 463.727539,228.116409 460.501587,217.524017 
	C477.558624,232.008286 496.672119,240.477310 520.174072,240.767563 
	C511.049286,234.588898 501.530945,230.428070 497.982239,219.941757 
	C508.451050,225.534180 518.163879,232.202011 529.215820,236.382889 
	C540.273376,240.565887 551.352112,244.542145 564.403992,244.638290 
	C559.955627,240.513718 556.262329,237.394119 552.939819,233.919937 
	C549.831116,230.669312 545.582764,228.010788 545.642700,222.424500 
	C561.347412,231.728348 574.717346,244.486862 592.349243,251.565750 
	C591.819946,246.576630 589.100159,242.313828 590.904297,237.765350 
	C593.978577,237.799362 594.408813,240.032715 595.215515,241.738022 
	C601.146118,254.274033 607.531799,266.511536 617.245056,276.662262 
	C618.278564,277.742279 619.298767,278.918152 618.959595,280.617065 
	C617.586121,287.496155 617.826233,294.509338 617.233459,301.453247 
	C616.788086,306.669830 619.772583,310.245331 624.839417,309.064178 
	C631.419250,307.530365 637.580017,307.608887 643.702576,310.365479 
	C644.380005,309.117126 644.838684,308.423798 645.153015,307.670319 
	C651.871765,291.564911 654.739563,275.152191 649.094116,258.058655 
	C648.462097,256.144928 647.789307,254.086258 649.629211,252.490204 
	C651.222412,251.108170 653.150452,251.647827 654.847168,252.333633 
	C658.021667,253.616806 661.119751,255.089142 664.755188,256.707916 
	C664.257507,255.390747 663.959167,254.493576 663.585632,253.628906 
	C657.989258,240.673111 650.049744,229.612015 638.193787,221.567566 
	C633.390259,218.308243 633.854004,215.445251 639.295044,213.106277 
	C641.216492,212.280273 643.246094,211.705750 645.763611,210.829391 
	C640.299133,208.646912 635.158997,208.818390 630.073608,209.040741 
	C626.034607,209.217331 623.808777,207.480835 622.942322,203.656525 
	C622.501160,201.709213 622.062866,199.751526 621.449280,197.854797 
	C619.502258,191.836395 617.604553,185.784866 613.737183,180.551743 
	C614.475769,184.306061 614.019958,187.902237 613.379517,191.508987 
	C613.024719,193.506775 612.846985,195.679291 610.596924,196.406723 
	C608.211060,197.178070 606.950684,195.182907 605.692322,193.717133 
	C599.802673,186.856491 593.144531,180.832108 585.982544,175.347351 
	C574.744934,166.741425 562.425842,160.141663 548.392944,154.663803 
	C551.257385,159.216339 554.069397,162.571762 555.305298,166.804596 
	C555.904297,168.856125 557.049194,170.967239 555.131348,172.885254 
	C553.087708,174.929016 551.022217,173.430481 549.170410,172.550217 
	C524.349487,160.751740 498.074768,157.050095 470.883698,158.311218 
	C468.025360,158.443787 465.261292,158.830688 461.898071,160.012604 
	C469.741425,162.893677 476.338135,166.370560 482.159698,171.207230 
	C483.792755,172.564041 486.232727,173.793854 485.424103,176.293228 
	C484.657959,178.661163 482.042511,177.975830 480.155396,177.990601 
	C469.308533,178.075439 458.527893,178.745193 447.948975,181.327896 
	C434.182251,184.688843 421.172424,189.809723 408.466827,198.251740 
	C417.710510,197.598328 425.828857,197.954865 433.769745,200.097687 
	C435.603180,200.592468 438.010742,200.927246 438.263519,203.428467 
	C438.526031,206.025894 436.147369,206.573334 434.396545,207.365707 
	C427.394257,210.534775 420.646240,214.147995 414.516205,218.803314 
	C406.879547,224.602768 399.939667,231.078629 394.596222,239.905182 
	C402.820892,237.131393 410.184753,233.894913 418.306458,233.571960 
	C421.237854,233.455368 424.823029,232.400818 426.519562,235.506271 
	C428.429504,239.002441 424.687683,240.778030 422.868286,242.878098 
	C416.637207,250.070404 411.523163,257.798676 409.273712,268.136841 
	C413.369507,263.896729 416.651978,260.105194 421.109009,257.687012 
	C423.114258,256.599030 425.100525,254.654800 427.511353,256.105774 
	C429.677856,257.409668 429.142731,259.935425 429.155731,262.054626 
	C429.192596,268.068237 428.950836,274.109558 431.550293,280.361481 
	C433.789520,265.288788 439.776581,252.511429 449.429474,241.145523 
	C443.122742,236.735367 435.906403,233.714401 434.208618,225.614304 
	C438.407715,225.850815 440.803741,228.894608 444.625397,230.853882 
M476.987732,347.067688 
	C465.526978,349.390869 454.010681,350.700226 442.287384,349.476349 
	C436.600891,348.882690 435.798035,349.842560 436.635010,354.921875 
	C441.189758,382.563507 455.113373,403.374573 480.681458,415.880737 
	C483.310059,417.166473 484.985229,417.134521 487.341705,415.409485 
	C493.700867,410.754425 500.675018,407.149475 508.414398,405.399445 
	C514.076416,404.119141 519.806213,402.712067 525.648499,404.651215 
	C531.823181,406.700623 533.470581,412.777191 529.186157,417.723755 
	C526.938293,420.319061 523.961548,421.784912 520.939758,423.224609 
	C519.768921,423.782501 518.109680,423.809021 517.431152,425.687225 
	C523.296753,426.468262 528.803772,426.199677 534.257385,425.797272 
	C572.710571,422.959869 599.406982,403.145660 615.976379,368.855347 
	C616.612244,367.539459 617.568726,366.237091 616.419373,364.685150 
	C615.543640,363.502716 614.199158,362.219635 615.292786,360.699463 
	C616.467773,359.066132 618.309387,359.889618 619.914368,360.134674 
	C621.063965,360.310181 622.206238,360.586487 623.361938,360.660980 
	C638.881775,361.661316 650.822693,345.195007 646.208191,328.998840 
	C644.532043,323.115845 641.368896,318.217621 634.843201,316.942902 
	C628.642151,315.731628 623.908325,318.738007 619.934570,323.131989 
	C618.487671,324.731873 617.317566,326.579559 615.983276,328.284424 
	C614.753235,329.856018 613.194214,330.699097 611.176331,329.983185 
	C609.218933,329.288696 608.319824,327.711060 608.244263,325.742828 
	C608.193726,324.425476 608.350952,323.075714 608.600220,321.775909 
	C609.374146,317.740265 607.972534,315.371765 603.721008,314.851501 
	C602.107300,314.654053 600.534302,314.123505 599.033630,313.766388 
	C597.342773,315.827789 597.503357,318.045288 597.290466,320.175018 
	C595.568604,337.399414 589.738342,344.227509 573.007812,346.809540 
	C559.985657,348.819275 546.777649,349.154999 533.695251,346.993591 
	C521.335205,344.951508 516.875061,340.325958 514.554565,327.982056 
	C514.064087,325.372650 513.692810,322.733551 513.419678,320.092285 
	C512.997253,316.006470 509.874542,315.465057 506.886200,315.466980 
	C501.941040,315.470123 495.822296,313.498108 492.801941,318.661713 
	C490.967926,321.797089 491.791809,326.487152 491.363068,331.110291 
	C496.167572,327.821320 495.360199,322.083466 499.666382,319.404724 
	C501.625824,329.464813 496.957062,336.384613 488.209747,341.070160 
	C491.075043,348.320496 498.058746,348.259857 503.530945,350.700470 
	C498.629608,355.748322 489.071960,354.677246 484.049103,348.430176 
	C481.998291,345.879486 480.242523,345.710388 476.987732,347.067688 
M564.906067,614.563843 
	C552.602112,614.041016 540.449585,612.334595 528.280212,610.468567 
	C515.044250,608.438965 502.775848,601.866516 488.863129,602.771912 
	C484.689667,603.043518 483.183685,604.139038 482.108459,607.883667 
	C479.336853,617.536255 475.982513,627.363159 468.716217,634.335266 
	C462.676636,640.130310 463.733002,645.367249 466.266144,651.573059 
	C466.894501,653.112488 467.625488,654.615540 468.161652,656.185791 
	C469.408325,659.837036 471.800079,661.595032 475.717560,662.298279 
	C509.199677,668.308716 542.809570,669.315674 576.528381,664.933777 
	C591.351013,663.007446 591.212341,662.704346 594.289917,648.415710 
	C594.978638,645.217834 594.004333,643.432190 591.500305,641.769165 
	C583.908264,636.726746 578.549011,629.678345 575.291382,621.350037 
	C573.413574,616.549133 570.776123,614.323547 564.906067,614.563843 
M540.002258,283.210724 
	C556.479919,282.340637 572.976685,281.429291 589.162231,285.771027 
	C596.657410,287.781555 597.827576,289.468140 598.470764,297.207733 
	C598.631348,299.139038 598.307922,301.319977 601.022034,301.983582 
	C603.726990,302.644958 606.253601,304.049896 609.858154,304.029938 
	C610.725281,296.449829 611.759766,288.937744 611.654236,281.301086 
	C611.636719,280.030212 610.867798,279.143921 609.982605,278.348724 
	C604.953064,273.830353 601.226196,268.323578 598.066895,262.419617 
	C597.053833,260.526581 595.792175,259.349792 593.632324,258.829742 
	C586.939636,257.218292 580.766235,254.319992 574.858276,250.824768 
	C573.579834,250.068420 572.287842,249.045547 570.688904,249.529343 
	C557.073120,253.649078 544.371887,249.428024 531.658691,245.304688 
	C530.227539,244.840515 528.921997,244.457458 527.330383,245.037247 
	C516.810913,248.869202 506.344177,247.213364 495.892395,244.578262 
	C494.168701,244.143707 492.524994,243.318069 490.564606,244.073364 
	C480.512360,247.946228 470.294159,247.242218 460.123108,244.694916 
	C456.625397,243.818939 454.567627,244.848373 452.658234,247.799408 
	C445.110077,259.465210 440.376678,272.101532 438.585907,285.890533 
	C438.191864,288.924805 439.299896,290.128540 442.058044,289.582245 
	C448.321350,288.341675 454.680267,288.799255 460.983063,288.288605 
	C469.326447,287.612610 477.590240,288.552368 485.730865,290.593445 
	C489.201416,291.463654 490.996979,293.445892 491.769257,297.007660 
	C492.463593,300.210236 491.683350,303.735565 493.832428,306.868011 
	C498.220947,306.527771 502.698822,304.827820 507.077301,305.980835 
	C511.550079,307.158661 513.250427,305.701599 513.290833,301.359833 
	C513.304749,299.870056 513.620239,298.385468 513.742004,296.893921 
	C514.133057,292.103790 516.376465,288.879211 521.111023,287.312775 
	C526.986694,285.368866 532.927307,283.862854 540.002258,283.210724 
M483.613678,536.233765 
	C485.210266,529.884949 487.321960,523.641541 488.127960,516.799744 
	C473.861176,516.546692 463.129578,510.319214 454.551392,499.163330 
	C444.158539,516.545837 434.995789,533.734131 425.665771,550.934204 
	C422.498657,548.957581 423.424469,546.800415 423.940399,545.053528 
	C425.022339,541.390259 426.276520,537.751038 427.798645,534.249146 
	C436.442810,514.361877 447.845551,495.870972 457.229095,476.354614 
	C458.106445,474.529846 459.357910,473.015472 461.105774,471.888824 
	C466.857971,468.181000 466.367920,458.733643 460.056000,455.466553 
	C454.883972,460.416779 450.858765,466.342285 447.647949,472.717407 
	C434.872406,498.083252 424.500366,524.408813 418.806366,552.286743 
	C416.190247,565.095093 417.609497,577.628906 428.065552,587.373352 
	C436.290833,595.038879 444.918304,595.950623 454.519440,590.192627 
	C460.528137,586.588989 465.003723,581.513123 468.609467,575.598511 
	C475.897675,563.643555 479.569153,550.297852 483.613678,536.233765 
M530.867432,336.837006 
	C546.242798,340.105438 561.561462,339.183563 576.815491,336.058502 
	C582.437683,334.906677 585.578674,331.253937 586.867493,325.619598 
	C588.766541,317.317566 589.519226,308.934570 589.701843,300.448883 
	C589.767700,297.391907 588.503113,295.976532 585.664551,295.170288 
	C580.996826,293.844482 576.226990,293.130493 571.443726,292.772583 
	C556.679626,291.667755 541.902222,291.058014 527.299316,294.407837 
	C525.105713,294.911011 522.464600,295.164795 522.406067,298.379364 
	C522.215576,308.842865 521.835938,319.320892 524.352051,329.615356 
	C525.147034,332.867920 526.852600,335.386139 530.867432,336.837006 
M516.421021,460.889526 
	C518.224121,454.481995 516.945557,452.438049 510.600616,451.124298 
	C507.466888,450.475433 504.350677,450.300293 501.176300,450.516327 
	C499.857239,450.606140 498.254791,450.685547 498.078766,448.878998 
	C497.904663,447.092041 499.519958,447.003082 500.783813,446.591309 
	C505.221436,445.145477 509.870544,446.104858 515.484192,445.626953 
	C508.469666,438.308533 499.534973,442.150909 491.239624,439.503235 
	C496.993439,434.245789 503.584412,436.684631 510.269562,434.803528 
	C502.642639,429.740601 494.661133,433.928467 487.907715,430.427124 
	C501.116486,425.602509 513.604004,419.866852 526.420715,412.262329 
	C521.539124,409.474457 518.063660,410.247192 514.690796,410.756470 
	C502.756531,412.558563 492.967468,418.538330 483.987488,426.324677 
	C477.898315,431.604523 474.112244,437.892487 473.281921,445.911896 
	C472.512238,453.346039 472.474182,460.940338 470.844269,468.178192 
	C469.068298,476.064575 472.066315,480.598419 478.625763,483.837646 
	C480.859406,484.940674 483.171356,485.894226 485.358368,487.080475 
	C489.745514,489.459991 492.950775,487.731415 495.740112,484.304840 
	C500.216522,478.805847 501.939423,472.291870 502.830353,465.428040 
	C503.510132,460.190430 506.566284,458.679260 511.448639,461.010254 
	C511.781555,463.517609 506.867065,463.975250 509.124023,467.423248 
	C512.994324,467.358582 514.686401,464.624817 516.421021,460.889526 
M477.796600,680.650146 
	C491.353943,683.277832 504.992706,685.086426 518.796814,686.032837 
	C547.073120,687.971436 574.964600,685.708984 602.556396,679.464111 
	C609.810059,677.822449 612.046814,673.193604 609.566345,665.288879 
	C559.633301,676.508484 509.649048,677.809998 459.829224,664.185852 
	C458.241913,674.460876 459.044342,675.803223 468.249512,678.344910 
	C471.134125,679.141357 474.054230,679.809143 477.796600,680.650146 
M482.663055,328.013672 
	C483.857452,319.627869 485.260162,311.285583 484.038177,302.726349 
	C483.611176,299.735565 482.727478,298.518066 479.570526,298.113281 
	C466.916534,296.490814 454.325165,297.579010 441.716095,298.434204 
	C438.791321,298.632568 437.331909,299.942566 437.264862,303.167358 
	C437.040009,313.978088 436.700592,324.791229 436.106354,335.587006 
	C435.877289,339.748291 437.654083,341.419678 441.461365,341.558167 
	C450.782806,341.897247 460.059723,341.741577 469.340912,340.395203 
	C476.477173,339.359985 480.933167,335.864685 482.663055,328.013672 
M598.055359,638.748352 
	C601.563843,641.636108 600.427124,645.444153 599.809692,648.951965 
	C599.080750,653.093384 597.845093,657.145691 596.787720,661.403564 
	C600.569336,661.949280 603.524109,660.660645 606.525024,659.856812 
	C613.484375,657.992615 620.406494,646.424072 618.877502,639.390564 
	C617.113403,631.275391 614.311707,623.379517 613.710999,615.018860 
	C613.521667,612.383118 611.961670,612.223206 609.855591,612.711670 
	C605.305115,613.767090 600.682678,614.287109 596.014771,614.532959 
	C590.604736,614.817871 585.203064,615.262207 578.957886,615.695618 
	C583.457764,625.339966 589.375000,632.672607 598.055359,638.748352 
M468.431030,589.329468 
	C465.880402,591.455994 463.391663,593.663696 460.753967,595.676147 
	C459.350739,596.746765 458.295624,597.806274 458.272064,599.701355 
	C458.109344,612.809692 455.664886,625.540527 450.622345,637.587830 
	C447.783264,644.370789 456.220062,656.523376 463.173035,659.240845 
	C461.398315,653.425964 458.923431,648.155701 458.202728,642.375061 
	C457.910583,640.031860 458.166656,638.141907 459.750214,636.396545 
	C468.506012,626.745850 474.480316,615.488220 478.564972,603.209106 
	C479.882263,599.249084 482.375946,597.640320 486.378082,597.765747 
	C489.386902,597.859985 492.401093,597.784302 495.412872,597.784302 
	C495.434082,597.339355 495.455261,596.894470 495.476440,596.449524 
	C486.591278,597.495178 479.149414,594.262146 472.369904,589.070068 
	C471.245911,588.209229 470.121613,587.536743 468.431030,589.329468 
M504.514801,592.763611 
	C508.460938,599.272095 515.253601,598.387024 521.851501,600.138000 
	C517.920227,586.179260 519.398743,573.408325 524.558411,560.208496 
	C519.806824,560.208496 515.840332,560.419189 511.907288,560.146790 
	C508.268585,559.894775 506.398407,561.550415 505.251160,564.744202 
	C502.018311,573.744019 501.139740,582.798950 504.514801,592.763611 
M462.714325,500.804901 
	C468.846497,506.497375 476.071533,509.990906 484.290863,511.416718 
	C486.048828,511.721680 488.438782,512.497131 489.405212,510.759125 
	C491.570465,506.865021 493.746429,502.453827 493.270111,498.145996 
	C492.918640,494.966858 488.366333,495.992035 485.697296,495.111511 
	C484.437042,494.695740 483.187988,494.245880 481.936157,493.804901 
	C474.756592,491.275482 468.927032,486.782074 464.046631,480.827057 
	C461.888153,483.487732 461.513092,486.476501 459.968750,488.746307 
	C456.706177,493.541290 458.394470,497.061066 462.714325,500.804901 
M486.390564,555.947083 
	C483.646545,565.177734 479.364868,573.740906 474.599518,581.928955 
	C481.375000,587.895813 488.831085,590.446350 494.407288,588.708435 
	C492.982635,579.402466 494.133392,570.317627 497.923615,561.613708 
	C498.433990,560.441650 498.633911,559.340210 497.641205,558.417419 
	C494.797516,555.773865 492.497437,552.419678 488.328705,550.941589 
	C487.700836,552.533142 487.164642,553.892334 486.390564,555.947083 
M552.480347,435.954315 
	C552.797119,434.663086 553.119568,433.371124 551.742615,431.969543 
	C542.138916,435.036865 532.862000,439.588226 522.805969,441.760254 
	C521.657410,442.008331 520.835083,442.690918 520.906067,444.227600 
	C521.126343,448.995850 521.911011,453.426331 526.820435,456.394318 
	C534.321350,448.620697 543.020264,442.329987 552.480347,435.954315 
M425.376190,322.990936 
	C425.928955,326.066132 426.172913,329.218964 428.028168,333.079376 
	C428.652496,327.056824 429.192963,321.995880 429.697662,316.931366 
	C430.218018,311.709930 430.703522,306.485046 431.213013,301.170410 
	C426.698547,300.779724 425.072144,302.645752 425.212250,306.645325 
	C425.392334,311.786133 425.312317,316.936096 425.376190,322.990936 
M476.612061,425.367340 
	C478.540222,422.049835 475.804474,420.388947 473.935028,418.796631 
	C471.627075,416.830872 469.008667,414.766266 465.075165,417.049255 
	C467.721039,421.897339 470.175629,426.627502 471.650909,432.323914 
	C473.521027,429.675659 474.855865,427.785431 476.612061,425.367340 
M466.550720,441.029388 
	C466.198456,439.578918 465.846222,438.128479 465.272278,435.765259 
	C463.008240,440.770325 462.420197,444.653229 465.251190,448.965149 
	C466.397369,446.318298 466.654572,444.074890 466.550720,441.029388 
z"/>
<path fill="#000000" opacity="1.000000" stroke="none" 
	d="
M275.962891,278.325134 
	C259.355682,270.552216 255.458740,251.959412 267.442078,238.988525 
	C268.931763,237.376083 269.498199,236.039581 268.973419,233.724167 
	C266.595978,223.235367 270.122650,214.406372 277.309998,206.836609 
	C288.891266,194.639099 313.921204,188.523804 329.134766,205.222610 
	C330.568604,206.796448 332.330505,206.979416 334.160492,206.672012 
	C352.162354,203.648041 368.618927,225.462433 357.905457,245.489304 
	C356.038116,248.979965 356.119720,251.650208 357.373169,255.158295 
	C363.329163,271.827972 352.035675,287.978699 334.487305,287.848236 
	C331.323029,287.824707 330.109528,289.830170 328.420135,291.497345 
	C317.512970,302.260925 298.353516,302.228516 287.872681,291.364838 
	C286.009491,289.433594 284.108917,287.361542 283.499054,284.768402 
	C282.562927,280.787933 280.163605,278.914978 275.962891,278.325134 
M279.617676,215.142593 
	C275.509308,221.335342 273.366577,227.930481 275.185547,235.446915 
	C275.657379,237.396744 275.592926,239.277649 273.809753,240.917450 
	C261.177490,252.534241 268.377960,270.704132 282.356873,273.781464 
	C284.899506,274.341187 286.857269,275.607574 287.804260,278.328247 
	C293.363861,294.300720 315.125427,296.089539 325.613739,285.334259 
	C328.336975,282.541718 331.073425,281.680847 334.793457,281.600189 
	C345.773407,281.361969 354.498749,270.652985 352.024872,259.949280 
	C350.428741,253.043076 348.751770,246.574295 353.178436,240.093094 
	C354.133636,238.694534 354.249207,236.591629 354.385742,234.785507 
	C355.461365,220.558517 343.802551,210.181381 332.312805,211.942307 
	C329.408020,212.387497 327.655212,211.282303 325.660187,209.604492 
	C311.655975,197.826843 291.456909,200.064514 279.617676,215.142593 
z"/>
<path fill="#000000" opacity="1.000000" stroke="none" 
	d="
M367.574402,305.796783 
	C361.294312,309.216064 356.113525,309.267426 352.454742,305.931366 
	C348.797302,302.596497 347.714294,298.361664 349.259338,293.698822 
	C350.876465,288.818634 354.433105,286.015656 359.602051,285.752228 
	C364.409607,285.507202 368.449799,287.219849 370.819336,291.653107 
	C373.390198,296.462982 372.468414,300.451172 367.574402,305.796783 
M366.335388,295.042847 
	C366.020782,294.460449 365.788116,293.811432 365.377777,293.306854 
	C363.284058,290.731964 360.526215,290.406372 357.750244,291.693115 
	C355.324829,292.817291 353.935120,294.978027 354.449554,297.789948 
	C354.909973,300.306610 356.647736,302.019104 359.087189,302.437500 
	C362.216461,302.974152 364.542267,301.367828 365.957184,298.614899 
	C366.384369,297.783661 366.345154,296.712708 366.335388,295.042847 
z"/>
<path fill="#000000" opacity="1.000000" stroke="none" 
	d="
M362.959045,175.091675 
	C358.859314,171.943314 355.006409,169.059296 351.273773,166.027161 
	C349.994263,164.987793 348.703979,163.545029 350.145844,161.780746 
	C351.316284,160.348572 352.914703,160.853745 354.241455,161.622299 
	C361.731903,165.961197 368.881378,170.793060 375.177246,176.774658 
	C376.346985,177.886002 377.746490,179.384491 376.277893,181.073181 
	C375.005768,182.536011 373.448761,181.378555 372.213684,180.682358 
	C369.179291,178.971848 366.234100,177.103088 362.959045,175.091675 
z"/>
<path fill="#000000" opacity="1.000000" stroke="none" 
	d="
M416.014832,117.990967 
	C421.279877,126.314156 425.580872,134.687576 428.952637,143.499405 
	C425.948975,144.868927 424.836609,143.617661 424.072540,142.431458 
	C419.769409,135.751022 414.841614,129.445953 411.643219,122.091057 
	C410.885559,120.348869 410.358887,118.516075 411.932922,117.009270 
	C413.378357,115.625595 414.659393,116.582588 416.014832,117.990967 
z"/>
<path fill="#000000" opacity="1.000000" stroke="none" 
	d="
M386.679688,316.738342 
	C383.425568,319.194092 380.356720,319.661957 377.349152,317.164978 
	C375.143188,315.333496 374.186890,312.916321 375.083191,310.077454 
	C375.950684,307.329895 377.899902,305.504333 380.746796,305.156616 
	C383.520569,304.817841 386.037689,305.776276 387.566528,308.273376 
	C389.289032,311.086670 389.246704,313.902222 386.679688,316.738342 
z"/>
<path fill="#000000" opacity="1.000000" stroke="none" 
	d="
M607.045410,134.811890 
	C605.974792,136.514862 605.245850,138.100937 603.212341,138.219879 
	C601.208130,137.154709 601.755371,135.344986 602.287964,133.875290 
	C604.609436,127.469574 607.019714,121.093010 609.567932,114.774490 
	C610.292175,112.978706 611.443665,110.702576 613.946533,111.870071 
	C616.415222,113.021629 615.349426,115.266472 614.619507,117.116837 
	C612.310181,122.971710 608.560608,128.211853 607.045410,134.811890 
z"/>
<path fill="#000000" opacity="1.000000" stroke="none" 
	d="
M670.590027,172.710083 
	C669.131958,173.626877 667.852600,174.419540 666.719116,173.103821 
	C665.646545,171.858734 666.331604,170.504150 667.222107,169.491272 
	C669.895447,166.450684 672.267395,162.913162 677.358276,162.373413 
	C677.513489,167.613968 673.959839,169.906174 670.590027,172.710083 
z"/>
<path fill="#000000" opacity="1.000000" stroke="none" 
	d="
M504.746094,101.730484 
	C504.368225,100.622810 504.052124,99.826637 504.021149,99.019508 
	C503.962219,97.484573 504.124084,95.916527 506.007996,95.509430 
	C507.155029,95.261559 507.853516,96.061661 508.299072,97.010429 
	C509.126526,98.772476 509.200928,100.591721 508.130188,102.242279 
	C507.057129,103.896431 505.936157,103.175575 504.746094,101.730484 
z"/>
<path fill="#000000" opacity="1.000000" stroke="none" 
	d="
M684.326294,153.699905 
	C685.559509,151.886658 686.337646,149.856567 689.100830,150.512299 
	C690.223938,153.106583 688.322876,154.309052 686.590759,155.354462 
	C685.364197,156.094742 683.950989,156.259476 684.326294,153.699905 
z"/>
<path fill="#000000" opacity="1.000000" stroke="none" 
	d="
M542.195496,482.031860 
	C542.092529,494.321289 542.179016,506.094635 544.134705,517.794067 
	C544.628723,520.749023 545.406555,522.913147 547.981934,524.833069 
	C551.156738,527.199829 551.541443,530.851379 549.363708,534.204163 
	C547.138550,537.629883 543.546021,538.040833 540.036011,536.804626 
	C536.384216,535.518433 534.291443,531.853149 536.013794,528.833191 
	C539.972717,521.891663 536.892151,515.214417 536.284607,508.583984 
	C535.229797,497.071472 536.026245,485.684814 536.942871,474.267029 
	C537.089722,472.437439 537.185486,469.737976 539.929688,469.880981 
	C542.804626,470.030731 542.188599,472.662781 542.244019,474.557281 
	C542.312012,476.882019 542.221863,479.211395 542.195496,482.031860 
z"/>
<path fill="#000000" opacity="1.000000" stroke="none" 
	d="
M590.669434,437.597809 
	C594.623047,436.597687 597.541626,433.432861 601.707947,434.100708 
	C602.076538,437.003296 599.870728,437.714417 598.239563,438.515015 
	C583.307678,445.843872 567.680908,451.696564 553.086609,459.751160 
	C552.348389,460.158630 551.512024,460.279205 550.546021,459.392609 
	C550.434753,456.868164 552.701721,456.093964 554.369019,454.990051 
	C565.551208,447.586182 578.006775,442.816254 590.669434,437.597809 
z"/>
<path fill="#000000" opacity="1.000000" stroke="none" 
	d="
M580.148193,208.880005 
	C568.007202,198.224274 553.652161,192.358826 539.132202,186.383118 
	C547.313843,184.239044 554.385437,187.600479 561.424683,190.508408 
	C575.411865,196.286514 586.919006,206.484390 587.797485,213.734573 
	C583.802612,214.567688 582.928101,210.452728 580.148193,208.880005 
z"/>
<path fill="#000000" opacity="1.000000" stroke="none" 
	d="
M499.849670,193.231049 
	C496.800446,191.706711 493.162292,192.241379 491.182983,189.198593 
	C499.887604,184.154419 538.215332,201.335983 540.092834,212.064377 
	C526.697998,204.950241 514.152222,197.585007 499.849670,193.231049 
z"/>
<path fill="#000000" opacity="1.000000" stroke="none" 
	d="
M620.603516,241.324799 
	C619.526062,239.505157 617.686157,238.456223 618.027161,236.324951 
	C622.040161,235.707153 625.287964,238.562485 629.221802,246.106186 
	C634.690674,256.593628 635.945374,269.873718 631.289062,274.685120 
	C629.147339,262.937866 627.890625,251.289352 620.603516,241.324799 
z"/>
<path fill="#000000" opacity="1.000000" stroke="none" 
	d="
M486.444336,207.571182 
	C487.468201,208.689117 488.401154,209.493927 487.406097,211.859360 
	C475.271545,206.467056 462.597015,202.494843 449.180908,200.153473 
	C450.492218,196.450104 452.921722,196.870560 454.880066,197.049515 
	C466.082001,198.073212 476.751190,200.828110 486.444336,207.571182 
z"/>
<path fill="#000000" opacity="1.000000" stroke="none" 
	d="
M519.625122,385.059692 
	C515.638306,385.108643 512.566711,383.235077 509.324402,382.041077 
	C502.278595,379.446350 495.247650,378.088806 487.894104,380.568787 
	C487.106293,380.834534 486.278595,381.017700 485.243591,380.098846 
	C484.735382,376.914337 487.183472,375.564697 489.647827,374.858154 
	C500.317444,371.799194 510.011230,374.606354 519.006470,380.443726 
	C520.411011,381.355194 522.028809,382.930084 519.625122,385.059692 
z"/>
<path fill="#000000" opacity="1.000000" stroke="none" 
	d="
M625.195923,337.227722 
	C623.084717,339.170013 621.863403,341.846283 617.887085,341.822021 
	C619.256714,334.400024 623.595459,329.744751 629.272949,326.351501 
	C632.291382,324.547485 635.903992,322.122375 640.344421,327.042175 
	C633.826416,328.742126 629.599243,332.809723 625.195923,337.227722 
z"/>
<path fill="#000000" opacity="1.000000" stroke="none" 
	d="
M496.864380,391.262329 
	C495.641449,389.882782 494.514740,388.807770 495.434479,386.716187 
	C499.258240,386.784088 502.165833,388.451721 504.762329,391.680908 
	C501.693512,394.181091 499.425385,392.846863 496.864380,391.262329 
z"/>
<path fill="#000000" opacity="1.000000" stroke="none" 
	d="
M547.279053,275.264648 
	C541.853943,274.535919 536.897156,273.780029 532.708557,270.705841 
	C527.700684,267.030334 525.925720,261.448944 528.621460,256.642944 
	C542.217468,267.521027 558.820435,266.654297 575.062195,268.446991 
	C566.859070,274.962189 557.394653,275.493866 547.279053,275.264648 
z"/>
<path fill="#000000" opacity="1.000000" stroke="none" 
	d="
M476.209595,276.541199 
	C463.331177,280.544495 449.410675,279.603424 444.580475,274.546204 
	C445.511993,272.328186 447.566864,272.963409 449.270569,272.711151 
	C461.147217,270.952759 472.961243,269.030304 482.185211,260.255646 
	C484.170471,258.367126 485.397034,259.367798 486.322052,261.390747 
	C487.926392,264.899323 486.516663,267.865570 484.566437,270.682587 
	C482.596985,273.527344 479.682587,275.109894 476.209595,276.541199 
z"/>
<path fill="#000000" opacity="1.000000" stroke="none" 
	d="
M568.307617,308.521057 
	C568.240601,312.257935 566.127747,310.808868 564.500427,310.408752 
	C560.869995,309.516052 557.370850,307.780243 553.071899,308.502106 
	C555.171692,315.202362 554.354431,320.987793 548.738525,325.245819 
	C545.569153,327.648865 541.936218,328.177948 538.500916,325.846069 
	C532.934692,322.067657 532.445618,316.348938 533.152283,310.480042 
	C532.280151,308.725952 530.114075,309.853790 529.205811,308.262878 
	C528.779724,305.975983 530.640076,305.263733 532.217346,304.418854 
	C542.789062,298.755798 561.072510,300.676575 568.307617,308.521057 
z"/>
<path fill="#000000" opacity="1.000000" stroke="none" 
	d="
M462.123535,328.052795 
	C453.212341,325.933624 452.539856,319.093994 452.563232,312.332581 
	C450.525696,311.227814 448.937714,313.284882 447.362640,312.091919 
	C447.328308,307.567810 451.390991,304.848267 460.131836,303.545715 
	C470.124878,302.056580 479.324890,305.038147 480.932861,310.464172 
	C477.933868,311.884338 475.272919,309.315979 471.813232,309.608582 
	C472.797913,317.814178 473.272400,325.975281 462.123535,328.052795 
z"/>
<path fill="#000000" opacity="1.000000" stroke="none" 
	d="
M326.276733,240.835785 
	C323.941437,247.047104 319.509125,251.909637 317.902832,258.396545 
	C317.039032,261.885010 312.599548,261.872040 310.302063,258.841888 
	C308.180298,256.043427 308.401642,252.969025 309.527924,249.831482 
	C311.466125,244.432129 315.584198,240.842224 320.202301,236.721329 
	C320.568848,241.106445 323.812500,239.983124 326.276733,240.835785 
z"/>
<path fill="#000000" opacity="1.000000" stroke="none" 
	d="
M311.156464,266.156647 
	C313.492401,262.886993 316.205170,261.757385 319.436279,263.927979 
	C322.257324,265.823059 323.116852,268.677948 321.677734,271.766724 
	C320.339203,274.639679 317.753998,276.002167 314.685333,274.980682 
	C310.547943,273.603516 309.997864,270.301971 311.156464,266.156647 
z"/>
</svg>